<svg width="64" height="64" viewBox="0 0 64 64" xmlns="http://www.w3.org/2000/svg">
<path d="M32 0C25.671 0 19.4841 1.87677 14.2218 5.39297C8.95939 8.90918 4.85787 13.9069 2.43587 19.7541C0.0138648 25.6014 -0.619841 32.0355 0.614885 38.2429C1.84961 44.4503 4.89732 50.1521 9.3726 54.6274C13.8479 59.1027 19.5497 62.1504 25.7571 63.3851C31.9645 64.6198 38.3986 63.9861 44.2459 61.5641C50.0931 59.1421 55.0908 55.0406 58.607 49.7782C62.1232 44.5159 64 38.329 64 32C63.9902 23.5161 60.6156 15.3825 54.6166 9.38342C48.6175 3.38438 40.4839 0.00981367 32 0ZM32 56.584C27.1378 56.584 22.3847 55.1422 18.3419 52.4408C14.299 49.7395 11.1481 45.9 9.28735 41.4079C7.42664 36.9157 6.9398 31.9727 7.88838 27.2039C8.83696 22.4351 11.1784 18.0546 14.6165 14.6165C18.0546 11.1783 22.4351 8.83694 27.2039 7.88836C31.9727 6.93978 36.9158 7.42663 41.4079 9.28734C45.9 11.148 49.7395 14.299 52.4409 18.3419C55.1422 22.3847 56.584 27.1377 56.584 32C56.5762 38.5177 53.9835 44.7661 49.3749 49.3748C44.7662 53.9835 38.5177 56.5761 32 56.584Z" fill="currentColor" />
<path d="M41.3291 21.6918L28.581 34.4473L22.6482 28.5145C21.9489 27.839 21.0123 27.4653 20.04 27.4737C19.0678 27.4822 18.1378 27.8721 17.4503 28.5596C16.7628 29.2471 16.3728 30.1771 16.3644 31.1494C16.3559 32.1216 16.7297 33.0582 17.4051 33.7576L25.9558 42.3082C26.6511 43.0033 27.5941 43.3939 28.5773 43.3939C29.5605 43.3939 30.5035 43.0033 31.1989 42.3082L46.5796 26.9349C47.2551 26.2355 47.6288 25.2989 47.6204 24.3267C47.6119 23.3544 47.222 22.4244 46.5345 21.7369C45.847 21.0494 44.917 20.6595 43.9447 20.651C42.9725 20.6426 42.0359 21.0163 41.3365 21.6918H41.3291Z" fill="currentColor"/>
</svg>
