<svg width="18px" height="16px" viewBox="0 0 18 14" xmlns="http://www.w3.org/2000/svg">
    <g id="triangle">
        <path fill="currentColor" d="M9.96657332,1.09898071 L17.1665437,13.5696952 C17.4426861,14.0479878 17.2788109,14.6595782 16.8005183,14.9357206 C16.6484991,15.023489 16.476055,15.0696952 16.3005183,15.0696952 L1.90057754,15.0696952 C1.34829279,15.0696952 0.900577539,14.62198 0.900577539,14.0696952 C0.900577539,13.8941586 0.946783803,13.7217144 1.03455213,13.5696952 L8.23452252,1.09898071 C8.51066489,0.620688084 9.1222553,0.456812929 9.60054792,0.732955304 C9.75256713,0.820723636 9.87880499,0.946961498 9.96657332,1.09898071 Z M9.10054792,10.7803788 C8.46598798,10.7803788 7.95157106,11.2947958 7.95157106,11.9293557 C7.95157106,12.5639156 8.46598798,13.0783326 9.10054792,13.0783326 C9.73510786,13.0783326 10.2495248,12.5639156 10.2495248,11.9293557 C10.2495248,11.2947958 9.73510786,10.7803788 9.10054792,10.7803788 Z M8.0096943,6.65040651 L8.19497931,10.0473816 C8.20364659,10.20634 8.33507955,10.3307792 8.49426281,10.3307792 L9.70683303,10.3307792 C9.86601628,10.3307792 9.99744925,10.20634 10.0061165,10.0473816 L10.1914015,6.65040651 C10.2007682,6.4787094 10.0640649,6.33433796 9.89211804,6.33433796 L8.30895282,6.33433796 C8.13700594,6.33433796 8.00032765,6.4787094 8.0096943,6.65040651 L8.0096943,6.65040651 Z"></path>
    </g>
</svg>