<?xml version="1.0" encoding="UTF-8"?>
<svg width="108px" height="108px" viewBox="0 0 108 108" version="1.1" xmlns="http://www.w3.org/2000/svg" xmlns:xlink="http://www.w3.org/1999/xlink">
    <!-- Generator: Sketch 63.1 (92452) - https://sketch.com -->
    <title>chatbox</title>
    <desc>Created with Sketch.</desc>
    <g id="chatbox" stroke="none" stroke-width="1" fill="none" fill-rule="evenodd">
        <g id="Group-46" transform="translate(4.000000, 0.000000)" fill-rule="nonzero">
            <path d="M88.4236111,30.9437963 L77.8801852,30.9437963 L77.8801852,12.500463 C77.8747222,9.18506481 76.554537,6.00712037 74.2092593,3.66371296 C71.8638889,1.3202963 68.6849074,0.00274643519 65.3694444,-3.63366292e-11 L13.1134259,-3.63366292e-11 C11.4674074,-0.00400373148 9.83675926,0.316538889 8.31475,0.943324074 C6.79275926,1.57011111 5.40928704,2.49084259 4.24348148,3.65283333 C3.07768519,4.81483333 2.15243519,6.19528704 1.52066667,7.71522222 C0.888909259,9.23515741 0.563035185,10.8647222 0.561692593,12.5107407 L0.561692593,54.8176852 C0.565725,56.4619444 0.893582407,58.0893519 1.5265463,59.6068519 C2.15950926,61.1244444 3.08518519,62.5025 4.25072222,63.6623148 C5.41625926,64.8221296 6.79882407,65.7410185 8.31948148,66.3665741 C9.84018519,66.992037 11.4690741,67.3119444 13.1134259,67.3078704 L19.3943519,67.3078704 L19.3943519,81.6526852 C19.3934259,82.16 19.5432407,82.6561111 19.8246296,83.0782407 C20.1060185,83.5002778 20.5063889,83.8293519 20.975,84.0236111 C21.4437037,84.2178704 21.9594444,84.2686111 22.4569444,84.1693519 C22.9544444,84.0701852 23.4112963,83.825463 23.769537,83.4662963 L39.8562037,67.3078704 L42.9300926,67.3078704 L42.9300926,74.0499074 C42.9327778,76.9615741 44.087037,79.7538889 46.1411111,81.8175 C48.1950926,83.8811111 50.982037,85.0484259 53.8936111,85.0647222 L66.5375,85.0647222 L80.1343519,98.6407407 C80.4925926,99 80.9494444,99.2444444 81.4469444,99.3444444 C81.9444444,99.4435185 82.4601852,99.3925926 82.9287963,99.1981481 C83.3974074,99.0037037 83.7978704,98.675 84.0792593,98.2527778 C84.3606481,97.8305556 84.5103704,97.3342593 84.509537,96.8277778 L84.509537,85.0647222 L88.4236111,85.0647222 C91.3440741,85.0619444 94.1444444,83.9006481 96.2092593,81.8355556 C98.2740741,79.770463 99.4351852,76.9703704 99.437963,74.0499074 L99.437963,41.9586111 C99.4351852,39.0381481 98.2740741,36.2380556 96.2092593,34.172963 C94.1444444,32.1078704 91.3440741,30.9464815 88.4236111,30.9437963 Z M38.7905556,62.1847222 C38.4539815,62.1841667 38.1205556,62.2499074 37.8093519,62.3782407 C37.4981481,62.5065741 37.2152778,62.695 36.9769444,62.9326852 L24.4764815,75.422963 L24.4764815,64.7462963 C24.4764815,64.4099074 24.4102778,64.0768519 24.2815741,63.7660185 C24.1527778,63.4552778 23.9640741,63.1728704 23.7262963,62.935 C23.4884259,62.6971296 23.2060185,62.5084259 22.8951852,62.3797222 C22.5844444,62.2510185 22.2512963,62.1847222 21.9149074,62.1847222 L13.1134259,62.1847222 C12.1414815,62.1900926 11.1781481,62.0037037 10.2784259,61.6361111 C9.3787037,61.2686111 8.56040741,60.7271296 7.87032407,60.0427778 C7.18025,59.3583333 6.63199074,58.544537 6.25696296,57.647963 C5.88193519,56.7512963 5.68751852,55.789537 5.68483333,54.8176852 L5.68483333,12.5107407 C5.68483333,11.5371296 5.87725,10.5731481 6.25107407,9.67416667 C6.62489815,8.77516667 7.17273148,7.95894444 7.86307407,7.27240741 C8.55341667,6.58587037 9.37268519,6.04255556 10.2737037,5.67371296 C11.1747222,5.30487963 12.1398148,5.11777778 13.1134259,5.12306236 L65.3694444,5.12306236 C67.3287037,5.12306236 69.2077778,5.90150926 70.5932407,7.28694444 C71.9787037,8.67238889 72.757037,10.5514815 72.757037,12.5107407 L72.757037,54.8176852 C72.7515741,56.7734259 71.9708333,58.6472222 70.5860185,60.0282407 C69.2011111,61.4092593 67.3251852,62.1847222 65.3694444,62.1847222 L38.7905556,62.1847222 Z M94.3148148,74.0499074 C94.3148148,75.6125 93.6944444,77.1110185 92.589537,78.2159259 C91.4847222,79.3208333 89.9861111,79.9415741 88.4236111,79.9415741 L81.947963,79.9415741 C81.2685185,79.9415741 80.617037,80.2113889 80.1365741,80.6918519 C79.6562037,81.1722222 79.3863889,81.8237037 79.3863889,82.5031481 L79.3863889,90.7000926 L69.4064815,80.7407407 C69.1681481,80.5030556 68.8852778,80.3146296 68.5741667,80.1862963 C68.262963,80.057963 67.929537,79.9921296 67.5928704,79.9927778 L53.8936111,79.9927778 C53.1112963,79.9996296 52.335463,79.8505556 51.6112963,79.5543519 C50.8872222,79.2580556 50.2293519,78.8205556 49.6761111,78.2674074 C49.122963,77.7141667 48.685463,77.0562963 48.3891667,76.3322222 C48.092963,75.6081481 47.9438889,74.8322222 47.9505148,74.0499074 L47.9505148,67.3078704 L65.3694444,67.3078704 C68.6831481,67.3051852 71.8605556,65.9890741 74.2056481,63.6478704 C76.5506481,61.3066667 77.872037,58.1312963 77.8801852,54.8176852 L77.8801852,36.0669444 L88.4236111,36.0669444 C89.9861111,36.0669444 91.4847222,36.6876852 92.589537,37.7925926 C93.6944444,38.8975 94.3148148,40.3960185 94.3148148,41.9586111 L94.3148148,74.0499074 Z" id="Shape" fill="#18AF7C"></path>
            <path d="M39.5385185,13.2894444 C38.0327778,13.2483333 36.5340741,13.509537 35.1309259,14.0575 C33.7277778,14.6055556 32.4487037,15.4291667 31.3693519,16.4799074 C30.29,17.5306481 29.4322222,18.787037 28.8466667,20.1749074 C28.2611111,21.5628704 27.9597222,23.0539815 27.960277,24.5603704 C27.960277,24.8967593 28.0264815,25.2298148 28.1552778,25.5406481 C28.2839815,25.8513889 28.4726852,26.1337963 28.7105556,26.3716667 C28.9484259,26.609537 29.2307407,26.7982407 29.5415741,26.9269444 C29.8523148,27.0556481 30.185463,27.1219444 30.5218519,27.1219444 C30.8582407,27.1219444 31.1912963,27.0556481 31.5021296,26.9269444 C31.8128704,26.7982407 32.0952778,26.609537 32.3331481,26.3716667 C32.5710185,26.1337963 32.7597222,25.8513889 32.8884259,25.5406481 C33.0171296,25.2298148 33.0834259,24.8967593 33.0834259,24.5603704 C33.0805556,23.7405556 33.2433333,22.9286111 33.562037,22.1732407 C33.8807407,21.4178704 34.3487037,20.7347222 34.937963,20.1647222 C35.5226852,19.5861111 36.22,19.1338889 36.9867593,18.8360185 C37.7534259,18.5381481 38.5732407,18.4010185 39.3950926,18.4330556 C40.7594444,18.4827778 42.0684259,18.9851852 43.1155556,19.8611111 C44.1627778,20.7369444 44.8886111,21.9364815 45.1787037,23.2705556 C45.4687963,24.6046296 45.3064815,25.9972222 44.7175926,27.2288889 C44.1286111,28.4605556 43.1464815,29.4611111 41.9259259,30.0728704 C40.3730556,30.8265741 39.0601852,31.9969444 38.1338889,33.4534259 C37.2075,34.9099074 36.7040741,36.5951852 36.6798148,38.3211111 C36.6798148,38.3211111 36.6798148,38.3211111 36.6798148,38.3825926 L36.6798148,39.5916667 C36.6798148,40.2710185 36.9497222,40.9225926 37.4300926,41.402963 C37.910463,41.8833333 38.562037,42.1532407 39.2413889,42.1532407 C39.9208333,42.1532407 40.5723148,41.8833333 41.0526852,41.402963 C41.5331481,40.9225926 41.802963,40.2710185 41.802963,39.5916667 L41.802963,38.4236111 C41.8088889,37.6308333 42.0377778,36.8558333 42.4636111,36.1871296 C42.8894444,35.5185185 43.495,34.9832407 44.2108333,34.6426852 C46.4613889,33.527037 48.2748148,31.6914815 49.3630556,29.4275 C50.4512963,27.1635185 50.7521296,24.6009259 50.2176852,22.1464815 C49.6832407,19.6921296 48.3441667,17.4865741 46.4131481,15.8800926 C44.4821296,14.2735185 42.0697222,13.3581481 39.5590741,13.2791667 L39.5385185,13.2894444 Z" id="Path" fill="#3B403D"></path>
            <path d="M39.2208333,47.6451852 C38.5414815,47.6451852 37.8899074,47.9150926 37.409537,48.395463 C36.9291667,48.8758333 36.6592593,49.5274074 36.6592593,50.2067593 L36.6592593,51.1391667 C36.6592593,51.4755556 36.7255556,51.8087037 36.8542593,52.1194444 C36.9830556,52.4302778 37.1716667,52.7125926 37.409537,52.950463 C37.6474074,53.1883333 37.9298148,53.377037 38.2405556,53.5057407 C38.5513889,53.634537 38.8844444,53.7007407 39.2208333,53.7007407 C39.5572222,53.7007407 39.8903704,53.634537 40.2011111,53.5057407 C40.5119444,53.377037 40.7943519,53.1883333 41.0321296,52.950463 C41.27,52.7125926 41.4587037,52.4302778 41.5874074,52.1194444 C41.7162037,51.8087037 41.7824074,51.4755556 41.7824074,51.1391667 L41.7824074,50.2067593 C41.7824074,49.5274074 41.5125926,48.8758333 41.0321296,48.395463 C40.5517593,47.9150926 39.9002778,47.6451852 39.2208333,47.6451852 Z" id="Path" fill="#3B403D"></path>
        </g>
    </g>
</svg>