<?xml version="1.0" encoding="UTF-8"?>
<svg width="108px" height="108px" viewBox="0 0 108 108" version="1.1" xmlns="http://www.w3.org/2000/svg" xmlns:xlink="http://www.w3.org/1999/xlink">
    <!-- Generator: Sketch 63.1 (92452) - https://sketch.com -->
    <title>chatbox</title>
    <desc>Created with Sketch.</desc>
    <g id="chatbox" stroke="none" stroke-width="1" fill="none" fill-rule="evenodd">
        <g id="stopwatch" transform="translate(13.500000, 0.000000)">
            <path d="M43.7391692,73.1076923 L43.7391692,54.8307692 C43.7391692,52.9954813 42.249244,51.5076923 40.4113451,51.5076923 C38.5734462,51.5076923 37.0835209,52.9954813 37.0835209,54.8307692 L37.0835209,76.4307692 C37.0835209,78.2660571 38.5734462,79.7538462 40.4113451,79.7538462 L57.0505846,79.7538462 L57.1837451,79.7538462 L57.1837451,79.7512352 C58.9599297,79.6814505 60.3785275,78.2215516 60.3785275,76.4307692 C60.3785275,74.6399868 58.9599297,73.1800879 57.1837451,73.1103033 L57.1837451,73.1076923 L57.0505846,73.1076923 L43.7391692,73.1076923 Z" id="Path" fill="#3B403D"></path>
            <path d="M43.7391692,3.32307692 C43.7391692,1.48778901 42.249244,0 40.4113451,0 C38.5734462,0 37.0835209,1.48778901 37.0835209,3.32307692 L37.0835209,9.96923077 C37.0835209,11.8045187 38.5734462,13.2923077 40.4113451,13.2923077 C42.249244,13.2923077 43.7391692,11.8045187 43.7391692,9.96923077 L43.7391692,3.32307692 Z" id="Path" fill="#18AF7C"></path>
            <path d="M22.0660615,6.20095648 C21.1471121,4.61155253 19.1118462,4.0669833 17.5200923,4.98462725 C15.9284571,5.90225934 15.3831165,7.93462945 16.3020659,9.52403341 L19.6298901,15.2797451 C20.5488396,16.8691253 22.5841055,17.4137538 24.1758593,16.4961099 C25.7674945,15.5784659 26.3128352,13.5460484 25.3938857,11.9566681 L22.0660615,6.20095648 Z" id="Path" fill="#18AF7C"></path>
            <path d="M59.5642549,6.20095648 C60.4832044,4.61155253 62.5184703,4.0669833 64.1101055,4.98462725 C65.7018593,5.90225934 66.2472,7.93462945 65.3282505,9.52403341 L62.0003077,15.2797451 C61.0813582,16.8691253 59.0460923,17.4137538 57.4544571,16.4961099 C55.8627033,15.5784659 55.3173626,13.5460484 56.2363121,11.9566681 L59.5642549,6.20095648 Z" id="Path" fill="#18AF7C"></path>
            <path d="M1.69518462,25.6941495 C0.10349011,24.7765055 -0.441860044,22.7442066 0.477098901,21.1548264 C1.39606022,19.5653275 3.43134989,19.0208176 5.02303253,19.9384615 L10.7870637,23.2615385 C12.3786989,24.1791824 12.9240396,26.2114813 12.0050901,27.8009802 C11.0861407,29.3903604 9.05088659,29.9348703 7.45919209,29.0172264 L1.69518462,25.6941495 Z" id="Path" fill="#18AF7C"></path>
            <path d="M79.0081714,25.6941495 C80.5998066,24.7765055 81.1451473,22.7442066 80.2261978,21.1548264 C79.3072484,19.5653275 77.2719824,19.0208176 75.6802286,19.9384615 L69.916233,23.2615385 C68.3245978,24.1791824 67.7792571,26.2114813 68.6982066,27.8009802 C69.617156,29.3903604 71.652422,29.9348703 73.2440571,29.0172264 L79.0081714,25.6941495 Z" id="Path" fill="#18AF7C"></path>
            <path d="M20.4442813,23.2615385 L60.3785275,23.2615385 L60.3785275,29.9076923 L43.7391692,29.9076923 L43.7391692,38.3715692 C61.4764484,40.0449758 75.3538549,54.9579956 75.3538549,73.1076923 C75.3538549,92.3782154 59.7095209,108 40.4113451,108 C21.1131692,108 5.46887077,92.3782154 5.46887077,73.1076923 C5.46887077,54.9579956 19.3462418,40.0449758 37.0835209,38.3715692 L37.0835209,29.9076923 L20.4442813,29.9076923 L20.4442813,23.2615385 Z M57.9244352,95.2906549 C53.9262989,98.442356 49.0557363,100.539336 43.7337099,101.161108 C43.6336615,99.4155429 42.184444,98.0307692 40.4113451,98.0307692 C38.6382462,98.0307692 37.1890286,99.4155429 37.0889802,101.161108 C31.7669538,100.539336 26.8963912,98.442356 22.8982549,95.2906549 C23.4409846,94.6993846 23.7721055,93.9113407 23.7721055,93.0461538 C23.7721055,91.2108659 22.2821802,89.7230769 20.4442813,89.7230769 C19.577789,89.7230769 18.7886769,90.0537231 18.1964571,90.595622 C15.3676879,87.0173802 13.3873714,82.7393934 12.5586198,78.0642989 C14.1914374,77.8518593 15.4524264,76.4575912 15.4524264,74.7692308 C15.4524264,72.9499648 13.9884923,71.4721451 12.1726681,71.4465099 C12.5187429,65.4871648 14.7150593,60.023433 18.1964571,55.6197626 C18.7886769,56.1616615 19.577789,56.4923077 20.4442813,56.4923077 C22.2821802,56.4923077 23.7721055,55.0045187 23.7721055,53.1692308 C23.7721055,52.304044 23.4409846,51.516 22.8982549,50.9247297 C27.7150549,47.1276396 33.7981846,44.8615385 40.4113451,44.8615385 C56.0337231,44.8615385 68.6980879,57.5077451 68.6980879,73.1076923 C68.6980879,79.7113582 66.4287824,85.7857055 62.626233,90.595622 C62.0341319,90.0537231 61.2449011,89.7230769 60.3785275,89.7230769 C58.5405099,89.7230769 57.0505846,91.2108659 57.0505846,93.0461538 C57.0505846,93.9113407 57.3818242,94.6993846 57.9244352,95.2906549 Z" id="Shape" fill="#3B403D"></path>
        </g>
    </g>
</svg>