<?xml version="1.0" encoding="UTF-8"?>
<svg width="108px" height="108px" viewBox="0 0 108 108" version="1.1" xmlns="http://www.w3.org/2000/svg" xmlns:xlink="http://www.w3.org/1999/xlink">
    <!-- Generator: Sketch 63.1 (92452) - https://sketch.com -->
    <title>connection</title>
    <desc>Created with Sketch.</desc>
    <g id="connection" stroke="none" stroke-width="1" fill="none" fill-rule="evenodd">
        <g id="Vector" transform="translate(4.520833, 0.000000)" fill="#18AF7C" fill-rule="nonzero">
            <path d="M84.9910192,33.6013173 C77.4563317,33.6013173 71.328101,39.812399 71.328101,47.4491202 C71.328101,54.4748269 76.5521875,60.2786875 83.1826394,61.1950721 L83.1826394,91.2326106 L14.9688942,91.2326106 L14.9688942,73.2101058 L22.9054135,81.2540481 C23.2067644,81.5595096 23.7090769,81.7631202 24.1109087,81.7631202 C24.5127404,81.7631202 25.0150529,81.5595096 25.3164952,81.2540481 C26.0196779,80.541274 26.0196779,79.4211875 25.3164952,78.7085048 L14.4665817,67.7117067 C13.7633077,66.9989327 12.6582019,66.9989327 11.9550192,67.7117067 L1.004625,78.8102644 C0.301386587,79.5230385 0.301386587,80.643125 1.004625,81.3558077 C1.70785337,82.0685817 2.81294087,82.0685817 3.51617837,81.3558077 L11.4527067,73.3118654 L11.4527067,93.1675962 C11.4527067,94.1851923 12.2563702,95 13.2609952,95 L84.9910192,95 C85.9956442,95 86.7993077,94.1851923 86.7993077,93.1675962 L86.7993077,61.1950721 C93.5302404,60.2786875 98.6538462,54.4748269 98.6538462,47.4491202 C98.6538462,39.812399 92.5254327,33.6013173 84.9910192,33.6013173 Z M84.9910192,57.7331442 C79.365101,57.7331442 74.8442885,53.1511298 74.8442885,47.4491202 C74.8442885,41.7470192 79.365101,37.1650962 84.9910192,37.1650962 C90.6168462,37.1650962 95.1379327,41.8488702 95.1379327,47.4491202 C95.1379327,53.0492788 90.6168462,57.7331442 84.9910192,57.7331442 Z M62.98975,47.4491202 C62.98975,39.812399 56.8616106,33.6013173 49.3269231,33.6013173 C41.7922356,33.6013173 35.6640962,39.812399 35.6640962,47.4491202 C35.6640962,55.08575 41.7922356,61.2969231 49.3269231,61.2969231 C56.8616106,61.2969231 62.98975,55.08575 62.98975,47.4491202 Z M39.1802837,47.4491202 C39.1802837,41.7470192 43.7010048,37.1650962 49.3269231,37.1650962 C54.9528413,37.1650962 59.4735625,41.8488702 59.4735625,47.4491202 C59.4735625,53.0492788 54.9528413,57.7331442 49.3269231,57.7331442 C43.7010048,57.7331442 39.1802837,53.1511298 39.1802837,47.4491202 Z M11.9550192,1.83279663 L11.9550192,33.7030769 C5.22403173,34.6194615 0,40.4233221 0,47.4491202 C0,55.08575 6.12819423,61.2969231 13.6628269,61.2969231 C21.1975144,61.2969231 27.3257452,55.08575 27.3257452,47.4491202 C27.3257452,40.4233221 22.1016587,34.6194615 15.4712067,33.7030769 L15.4712067,3.66559327 L83.6849519,3.66559327 L83.6849519,21.6881346 L75.7484327,13.6441923 C75.04525,12.9314183 73.9401442,12.9314183 73.2369615,13.6441923 C72.5336875,14.356875 72.5336875,15.4769615 73.2369615,16.1897356 L84.1872644,27.2882933 C84.4887067,27.5937548 84.9910192,27.7974567 85.392851,27.7974567 C85.7946827,27.7974567 86.2969952,27.5937548 86.5983462,27.2882933 L97.5485577,16.1897356 C98.2519231,15.4769615 98.2519231,14.356875 97.5485577,13.6441923 C96.8451923,12.9314183 95.7408173,12.9314183 95.0374519,13.6441923 L87.1006587,21.6881346 L87.1006587,1.83279663 C87.1006587,0.814576587 86.2969952,0 85.2923702,0 L13.6628269,0 C12.6582019,0.101821731 11.9550192,0.916402885 11.9550192,1.83279663 Z M23.8095577,47.4491202 C23.8095577,53.1511298 19.2887452,57.7331442 13.6628269,57.7331442 C8.0369726,57.7331442 3.51617837,53.1511298 3.51617837,47.4491202 C3.51617837,41.7470192 8.0369726,37.1650962 13.6628269,37.1650962 C19.2887452,37.1650962 23.8095577,41.8488702 23.8095577,47.4491202 Z" id="Shape"></path>
        </g>
    </g>
</svg>