<?xml version="1.0" encoding="UTF-8"?>
<svg width="51px" height="51px" viewBox="0 0 51 51" version="1.1" xmlns="http://www.w3.org/2000/svg" xmlns:xlink="http://www.w3.org/1999/xlink">
    <!-- Generator: Sketch 63.1 (92452) - https://sketch.com -->
    <title>facebook-white</title>
    <desc>Created with Sketch.</desc>
    <g id="facebook-white" stroke="none" stroke-width="1" fill="none" fill-rule="evenodd">
        <g id="facebook" transform="translate(-0.500000, 0.000000)" fill="#F8F8F8">
            <path d="M22.0156,50.84495 C9.83151,48.92985 0.5,38.37355 0.5,25.65505 C0.5,11.58125 11.9262,0.15505 26,0.15505 C40.0738,0.15505 51.5,11.58125 51.5,25.65505 C51.5,38.37355 42.1685,48.92985 29.9844,50.84495 L29.9844,33.02615 L35.9261,33.02615 L37.0566,25.65505 L29.9844,25.65505 L29.9844,20.87175 C29.9844,18.85515 30.9723,16.88945 34.14,16.88945 L37.3555,16.88945 L37.3555,10.61405 C37.3555,10.61405 34.4373,10.11599 31.6474,10.11599 C25.8226,10.11599 22.0156,13.64615 22.0156,20.03705 L22.0156,25.65505 L15.541,25.65505 L15.541,33.02615 L22.0156,33.02615 L22.0156,50.84495 Z" id="Shape"></path>
        </g>
    </g>
</svg>