<?xml version="1.0" encoding="UTF-8"?>
<svg width="51px" height="51px" viewBox="0 0 51 51" version="1.1" xmlns="http://www.w3.org/2000/svg" xmlns:xlink="http://www.w3.org/1999/xlink">
    <!-- Generator: Sketch 63.1 (92452) - https://sketch.com -->
    <title>facebook</title>
    <desc>Created with Sketch.</desc>
    <g id="facebook" stroke="none" stroke-width="1" fill="none" fill-rule="evenodd">
        <g transform="translate(-0.500000, 0.000000)" fill="#0096D7" id="Shape">
            <path d="M21.5156,50.6899 C9.33151,48.7748 0,38.2185 0,25.5 C0,11.4262 11.4262,0 25.5,0 C39.5738,0 51,11.4262 51,25.5 C51,38.2185 41.6685,48.7748 29.4844,50.6899 L29.4844,32.8711 L35.4261,32.8711 L36.5566,25.5 L29.4844,25.5 L29.4844,20.7167 C29.4844,18.7001 30.4723,16.7344 33.64,16.7344 L36.8555,16.7344 L36.8555,10.459 C36.8555,10.459 33.9373,9.96094 31.1474,9.96094 C25.3226,9.96094 21.5156,13.4911 21.5156,19.882 L21.5156,25.5 L15.041,25.5 L15.041,32.8711 L21.5156,32.8711 L21.5156,50.6899 Z"></path>
        </g>
    </g>
</svg>