<?xml version="1.0" encoding="UTF-8"?>
<svg width="188px" height="188px" viewBox="0 0 188 188" version="1.1" xmlns="http://www.w3.org/2000/svg" xmlns:xlink="http://www.w3.org/1999/xlink">
    <!-- Generator: Sketch 63.1 (92452) - https://sketch.com -->
    <title>fistpump</title>
    <desc>Created with Sketch.</desc>
    <g id="fistpump" stroke="none" stroke-width="1" fill="none" fill-rule="evenodd">
        <g id="Group-47" transform="translate(25.000000, 0.000000)" fill-rule="nonzero">
            <g id="Group" transform="translate(32.000000, 27.000000)" fill="#3B403D">
                <path d="M60.1666,161 L58.4218,161 L58.4218,74.165 L58.7359,73.899 C66.5526,67.3137 70.548,58.8515 70.601,48.7252 L70.601,47.84 L70.601,18.6295 L72.345,18.6295 L72.328,49.6104 C72.066,59.7544 67.9659,68.2874 60.1666,74.979 L60.1666,161 Z" id="Path"></path>
                <polygon id="Path" points="16.529 76.626 14.7842 76.626 14.7842 160.257 16.529 160.257"></polygon>
                <path d="M2.553,29.358 L0.8082,29.358 L0.8082,9.7781 C0.8082,4.414 5.1178,0.0413 10.4046,0.0413 C15.6914,0.0413 20.0011,4.414 20.0011,9.7781 L20.0011,20.2408 L18.2563,20.2408 L18.2563,9.7781 C18.2563,5.3877 14.7318,1.8116 10.4046,1.8116 C6.0775,1.8116 2.553,5.3877 2.553,9.7781 L2.553,29.358 Z" id="Path"></path>
                <path d="M20.0012,20.4884 L18.2563,20.4884 L18.2563,11.5482 C18.2563,6.1841 22.566,1.8114 27.8528,1.8114 C33.1396,1.8114 37.4493,6.1841 37.4493,11.5482 L37.4493,20.3291 L35.7045,20.3291 L35.7045,11.5482 C35.7045,7.1578 32.1799,3.5817 27.8528,3.5817 C23.5257,3.5817 20.0012,7.1578 20.0012,11.5482 L20.0012,20.4884 Z" id="Path"></path>
                <path d="M45.3007,37.2186 C44.2015,37.2186 43.1372,37.0416 42.1252,36.6698 L42.701,35.0057 C43.521,35.3067 44.4109,35.4483 45.3007,35.4483 C49.6279,35.4483 53.1524,31.8722 53.1524,27.4818 L53.1524,13.3191 C53.1524,8.9287 49.6279,5.3526 45.3007,5.3526 C40.9736,5.3526 37.4491,8.9287 37.4491,13.3191 L35.7043,13.3191 C35.7043,7.955 40.014,3.5823 45.3007,3.5823 C50.5875,3.5823 54.8972,7.955 54.8972,13.3191 L54.8972,27.4818 C54.8972,32.8459 50.5875,37.2186 45.3007,37.2186 Z" id="Path"></path>
                <path d="M36.5768,84.84 C17.2443,84.84 1.384,69.1198 0.8256,49.6107 L0.8082,49.6107 L0.8082,41.6442 L0.8082,29.2519 C0.8082,23.8877 5.1178,19.515 10.4046,19.515 L36.5768,19.515 C41.8636,19.515 46.1732,23.8877 46.1732,29.2519 C46.1732,34.616 41.8636,38.9887 36.5768,38.9887 L28.2017,38.9887 C37.2049,42.6533 43.5909,51.6112 43.5909,62.0384 L41.8461,62.0384 C41.8461,49.3274 31.6564,38.9887 19.1287,38.9887 L19.1287,37.2184 L36.5768,37.2184 C40.9039,37.2184 44.4284,33.6423 44.4284,29.2519 C44.4284,24.8614 40.9039,21.2853 36.5768,21.2853 L10.4046,21.2853 C6.0775,21.2853 2.553,24.8614 2.553,29.2519 L2.553,48.7255 C2.6402,67.6681 17.9073,83.07 36.5768,83.07 C39.5081,83.07 42.4219,82.698 45.231,81.955 L45.6673,83.672 C42.7185,84.451 39.6477,84.84 36.5768,84.84 Z" id="Path"></path>
                <path d="M62.749,37.2184 C57.4623,37.2184 53.1526,32.8457 53.1526,27.4816 L53.1526,15.0893 C53.1526,9.7251 57.4623,5.3524 62.749,5.3524 C68.036,5.3524 72.346,9.7251 72.346,15.0893 L72.346,27.4816 C72.346,32.8457 68.036,37.2184 62.749,37.2184 Z M62.749,7.1228 C58.4219,7.1228 54.8974,10.6988 54.8974,15.0893 L54.8974,27.4816 C54.8974,31.872 58.4219,35.4481 62.749,35.4481 C67.0762,35.4481 70.601,31.872 70.601,27.4816 L70.601,15.0893 C70.601,10.6988 67.0762,7.1228 62.749,7.1228 Z" id="Shape"></path>
                <polygon id="Path" points="60.1666 74.573 58.4218 74.573 58.4218 79.636 60.1666 79.636"></polygon>
            </g>
            <path d="M70.0767,2.003052 C70.0767,1.17462 69.4051,0.503052 68.5767,0.503052 C67.7483,0.503052 67.0767,1.17462 67.0767,2.003052 L70.0767,2.003052 Z M67.0767,11.8394 C67.0767,12.6678 67.7483,13.3394 68.5767,13.3394 C69.4051,13.3394 70.0767,12.6678 70.0767,11.8394 L67.0767,11.8394 Z M67.0767,2.00305 L67.0767,11.8394 L70.0767,11.8394 L70.0767,2.00305 L67.0767,2.00305 Z" id="Shape" fill="#18AF7C"></path>
            <path d="M135.643,69.6749 C136.471,69.6749 137.143,69.0034 137.143,68.1749 C137.143,67.3465 136.471,66.6749 135.643,66.6749 L135.643,69.6749 Z M125.807,66.6749 C124.978,66.6749 124.307,67.3465 124.307,68.1749 C124.307,69.0034 124.978,69.6749 125.807,69.6749 L125.807,66.6749 Z M135.643,66.6749 L125.807,66.6749 L125.807,69.6749 L135.643,69.6749 L135.643,66.6749 Z" id="Shape" fill="#18AF7C"></path>
            <path d="M129.291,20.2695 C129.877,19.6837 129.877,18.734 129.291,18.1482 C128.705,17.5624 127.755,17.5624 127.169,18.1482 L129.291,20.2695 Z M120.035,25.2826 C119.449,25.8684 119.449,26.8182 120.035,27.4039 C120.621,27.9897 121.571,27.9897 122.156,27.4039 L120.035,25.2826 Z M127.169,18.1482 L120.035,25.2826 L122.156,27.4039 L129.291,20.2695 L127.169,18.1482 Z" id="Shape" fill="#18AF7C"></path>
            <path d="M129.291,107.199 C129.877,107.784 129.877,108.734 129.291,109.32 C128.705,109.906 127.755,109.906 127.169,109.32 L129.291,107.199 Z M120.035,102.186 C119.449,101.6 119.449,100.65 120.035,100.064 C120.621,99.4784 121.571,99.4784 122.156,100.064 L120.035,102.186 Z M127.169,109.32 L120.035,102.186 L122.156,100.064 L129.291,107.199 L127.169,109.32 Z" id="Shape" fill="#18AF7C"></path>
            <path d="M9.35261,20.2755 C8.76682,19.6897 8.76682,18.74 9.35261,18.1542 C9.9384,17.5684 10.8881,17.5684 11.4739,18.1542 L9.35261,20.2755 Z M18.6084,25.2886 C19.1941,25.8744 19.1941,26.8241 18.6084,27.4099 C18.0226,27.9957 17.0728,27.9957 16.487,27.4099 L18.6084,25.2886 Z M11.4739,18.1542 L18.6084,25.2886 L16.487,27.4099 L9.35261,20.2755 L11.4739,18.1542 Z" id="Shape" fill="#18AF7C"></path>
            <path d="M9.35261,107.193 C8.76682,107.778 8.76682,108.728 9.35261,109.314 C9.9384,109.9 10.8881,109.9 11.4739,109.314 L9.35261,107.193 Z M18.6084,102.179 C19.1941,101.594 19.1941,100.644 18.6084,100.058 C18.0226,99.4723 17.0728,99.4723 16.487,100.058 L18.6084,102.179 Z M11.4739,109.314 L18.6084,102.179 L16.487,100.058 L9.35261,107.193 L11.4739,109.314 Z" id="Shape" fill="#18AF7C"></path>
            <path d="M11.3469,69.6749 C12.1753,69.6749 12.8469,69.0034 12.8469,68.1749 C12.8469,67.3465 12.1753,66.6749 11.3469,66.6749 L11.3469,69.6749 Z M1.5104923,66.6749 C0.682065,66.6749 0.0104923,67.3465 0.0104923,68.1749 C0.0104923,69.0034 0.682065,69.6749 1.5104923,69.6749 L1.5104923,66.6749 Z M11.3469,66.6749 L1.51049,66.6749 L1.51049,69.6749 L11.3469,69.6749 L11.3469,66.6749 Z" id="Shape" fill="#18AF7C"></path>
        </g>
    </g>
</svg>