<?xml version="1.0" encoding="UTF-8"?>
<svg width="188px" height="188px" viewBox="0 0 188 188" version="1.1" xmlns="http://www.w3.org/2000/svg" xmlns:xlink="http://www.w3.org/1999/xlink">
    <!-- Generator: Sketch 63.1 (92452) - https://sketch.com -->
    <title>fistpump</title>
    <desc>Created with Sketch.</desc>
    <g id="fistpump" stroke="none" stroke-width="1" fill="none" fill-rule="evenodd">
        <g id="fist" transform="translate(0.000000, 8.000000)">
            <polygon id="Path" fill="#3B403D" fill-rule="nonzero" points="70.0948276 143.172414 70.0948276 159.577586 70.0948276 171.508621 58.1637931 171.508621 58.1637931 135.715517"></polygon>
            <polygon id="Path" fill="#3B403D" fill-rule="nonzero" points="117.818966 159.577586 117.818966 143.172414 129.75 135.715517 129.75 171.508621 117.818966 171.508621"></polygon>
            <path d="M93.9565983,0 C96.4278138,0 98.4307362,2.00314016 98.4307362,4.47413793 L98.4307362,17.5982759 C98.4307362,20.0692528 96.4278138,22.0724138 93.9565983,22.0724138 C91.485681,22.0724138 89.4824603,20.0692528 89.4824603,17.5982759 L89.4824603,4.47413793 C89.4824603,2.00314016 91.485681,0 93.9565983,0 Z" id="Path" fill="#18AF7C"></path>
            <path d="M187.913793,92.7637931 C187.913793,95.2347103 185.910572,97.237931 183.439655,97.237931 L170.315517,97.237931 C167.8446,97.237931 165.841379,95.2347103 165.841379,92.7637931 C165.841379,90.2925776 167.8446,88.2896552 170.315517,88.2896552 L183.439655,88.2896552 C185.910572,88.2896552 187.913793,90.2925776 187.913793,92.7637931 Z" id="Path" fill="#18AF7C"></path>
            <path d="M176.71264,24.2673066 C178.45994,26.0145469 178.45994,28.8474219 176.71264,30.5947517 L167.193762,40.1136293 C165.446462,41.8609293 162.613438,41.8609293 160.866436,40.1136293 C159.119136,38.3666276 159.119136,35.5336034 160.866436,33.7863034 L170.385314,24.2673066 C172.132614,22.5200364 174.965638,22.5200364 176.71264,24.2673066 Z" id="Path" fill="#18AF7C"></path>
            <path d="M176.71264,149.40966 C178.45994,147.66236 178.45994,144.829336 176.71264,143.082334 L167.193762,133.563159 C165.446462,131.815859 162.613438,131.815859 160.866436,133.563159 C159.119136,135.310459 159.119136,138.143184 160.866436,139.890484 L170.385314,149.40966 C172.132614,151.15696 174.965638,151.15696 176.71264,149.40966 Z" id="Path" fill="#18AF7C"></path>
            <path d="M13.1888638,24.2753003 C11.4415936,26.0225705 11.4415936,28.8554157 13.1888638,30.6028052 L22.7079502,40.1216828 C24.4551905,41.8689828 27.2880655,41.8689828 29.0353357,40.1216828 C30.7826655,38.3743828 30.7826655,35.5416569 29.0353357,33.7943569 L19.5162493,24.2753003 C17.7689791,22.5280302 14.936134,22.5280302 13.1888638,24.2753003 Z" id="Path" fill="#18AF7C"></path>
            <path d="M13.1888638,149.401607 C11.4415936,147.654307 11.4415936,144.821581 13.1888638,143.074281 L22.7079502,133.555105 C24.4551905,131.807805 27.2880655,131.807805 29.0353357,133.555105 C30.7826655,135.302405 30.7826655,138.135131 29.0353357,139.882431 L19.5162493,149.401607 C17.7689791,151.148907 14.936134,151.148907 13.1888638,149.401607 Z" id="Path" fill="#18AF7C"></path>
            <path d="M22.0724734,92.7637931 C22.0724734,95.2347103 20.0693422,97.237931 17.5983355,97.237931 L4.47422741,97.237931 C2.00322069,97.237931 8.08751138e-05,95.2347103 8.08751138e-05,92.7637931 C8.08751138e-05,90.2925776 2.00322069,88.2896552 4.47422741,88.2896552 L17.5983355,88.2896552 C20.0693422,88.2896552 22.0724734,90.2925776 22.0724734,92.7637931 Z" id="Path" fill="#18AF7C"></path>
            <path d="M64.1293103,49.2155172 C64.1293103,45.9207621 61.4585483,43.25 58.1637931,43.25 C54.8690379,43.25 52.1982759,45.9207621 52.1982759,49.2155172 L52.1982759,82.0258621 L40.2672414,82.0258621 L40.2672414,49.2155172 C40.2672414,39.33155 48.2798259,31.3189655 58.1637931,31.3189655 C68.0477603,31.3189655 76.0603448,39.33155 76.0603448,49.2155172 L76.0603448,76.0603448 L64.1293103,76.0603448 L64.1293103,49.2155172 Z" id="Path" fill="#3B403D" fill-rule="nonzero"></path>
            <path d="M87.9913793,49.2155172 C87.9913793,45.9207621 85.3206172,43.25 82.0258621,43.25 C78.7311069,43.25 76.0603448,45.9207621 76.0603448,49.2155172 L76.0603448,70.0948276 L64.1293103,70.0948276 L64.1293103,49.2155172 C64.1293103,39.33155 72.1418948,31.3189655 82.0258621,31.3189655 C91.9098293,31.3189655 99.9224138,39.33155 99.9224138,49.2155172 L99.9224138,70.0948276 L87.9913793,70.0948276 L87.9913793,49.2155172 Z" id="Path" fill="#3B403D" fill-rule="nonzero"></path>
            <path d="M111.853448,80.5344828 L111.853448,52.1982759 C111.853448,48.9035207 109.182686,46.2327586 105.887931,46.2327586 C102.593176,46.2327586 99.9224138,48.9035207 99.9224138,52.1982759 L99.9224138,76.0603448 L87.9913793,76.0603448 L87.9913793,52.1982759 C87.9913793,42.3143086 96.0039638,34.3017241 105.887931,34.3017241 C115.771898,34.3017241 123.784483,42.3143086 123.784483,52.1982759 L123.784483,80.5344828 C123.784483,90.41845 115.771898,98.4310345 105.887931,98.4310345 C102.228981,98.4310345 98.82625,97.3327828 95.9917345,95.4482759 L105.887931,86.5 C109.182686,86.5 111.853448,83.8292379 111.853448,80.5344828 Z" id="Path" fill="#3B403D" fill-rule="nonzero"></path>
            <path d="M135.715517,80.5344828 L135.715517,55.1810345 C135.715517,51.8862793 133.044755,49.2155172 129.75,49.2155172 C126.455245,49.2155172 123.784483,51.8862793 123.784483,55.1810345 L123.784483,80.5344828 C123.784483,83.8292379 126.455245,86.5 129.75,86.5 C133.044755,86.5 135.715517,83.8292379 135.715517,80.5344828 Z M147.646552,80.5344828 L147.646552,55.1810345 C147.646552,45.2970672 139.633967,37.2844828 129.75,37.2844828 C119.866033,37.2844828 111.853448,45.2970672 111.853448,55.1810345 L111.853448,80.5344828 C111.853448,90.41845 119.866033,98.4310345 129.75,98.4310345 C139.633967,98.4310345 147.646552,90.41845 147.646552,80.5344828 Z" id="Shape" fill="#3B403D"></path>
            <path d="M58.1637931,82.0258621 L89.4827586,82.0258621 C92.7775138,82.0258621 95.4482759,84.6966241 95.4482759,87.9913793 C95.4482759,91.2861345 92.7775138,93.9568966 89.4827586,93.9568966 L73.8232759,93.9568966 L73.8232759,105.887931 L89.4827586,105.887931 C99.3667259,105.887931 107.37931,97.8753466 107.37931,87.9913793 C107.37931,78.1074121 99.3667259,70.0948276 89.4827586,70.0948276 L58.1637931,70.0948276 C50.3716345,70.0948276 43.7424534,75.0748414 41.2855552,82.0258621 L40.2672414,82.0258621 L40.2672414,87.9913793 L40.2672414,99.9224138 L40.3486707,99.9224138 C41.8964241,128.187034 65.3057103,150.62931 93.9568966,150.62931 C122.608083,150.62931 146.017369,128.187034 147.565122,99.9224138 L147.646552,99.9224138 L147.646552,76.0603448 L135.715517,76.0603448 L135.715517,98.1083 L135.651984,99.2700845 C134.44874,121.243172 116.237209,138.698276 93.9568966,138.698276 C71.6765845,138.698276 53.4650534,121.243172 52.2618086,99.2700845 L52.1982759,98.1085983 L52.1982759,87.9863086 C52.2009603,84.6939397 54.8708276,82.0258621 58.1637931,82.0258621 Z" id="Path" fill="#3B403D"></path>
        </g>
    </g>
</svg>