<?xml version="1.0" encoding="UTF-8"?>
<svg width="51px" height="51px" viewBox="0 0 51 51" version="1.1" xmlns="http://www.w3.org/2000/svg" xmlns:xlink="http://www.w3.org/1999/xlink">
    <!-- Generator: Sketch 63.1 (92452) - https://sketch.com -->
    <title>instagram-white</title>
    <desc>Created with Sketch.</desc>
    <g id="instagram-white" stroke="none" stroke-width="1" fill="none" fill-rule="evenodd">
        <g id="instagram" fill="#F8F8F8">
            <path d="M25.5,0 C39.5738,0 51,11.4262 51,25.5 C51,39.5738 39.5738,51 25.5,51 C11.4262,51 0,39.5738 0,25.5 C0,11.4262 11.4262,0 25.5,0 Z M25.5,9.5625 C21.1717,9.5625 20.6289,9.58083 18.929,9.65842 C17.2326,9.73582 16.0741,10.0053 15.0602,10.3992 C14.0122,10.8065 13.1234,11.3515 12.2374,12.2375 C11.3514,13.1235 10.8064,14.0123 10.3991,15.0603 C10.0052,16.0741 9.73582,17.2326 9.65832,18.929 C9.58083,20.6289 9.5625,21.1717 9.5625,25.5 C9.5625,29.8283 9.58083,30.3711 9.65832,32.071 C9.73582,33.7674 10.0052,34.9259 10.3991,35.9397 C10.8064,36.9876 11.3514,37.8765 12.2374,38.7626 C13.1234,39.6486 14.0122,40.1936 15.0602,40.6009 C16.0741,40.9947 17.2326,41.2642 18.929,41.3416 C20.6289,41.4192 21.1717,41.4375 25.5,41.4375 C29.8283,41.4375 30.3711,41.4192 32.071,41.3416 C33.7674,41.2642 34.9259,40.9947 35.9397,40.6009 C36.9876,40.1936 37.8765,39.6486 38.7626,38.7626 C39.6486,37.8765 40.1936,36.9876 40.6009,35.9397 C40.9947,34.9259 41.2642,33.7674 41.3416,32.071 C41.4192,30.3711 41.4375,29.8283 41.4375,25.5 C41.4375,21.1717 41.4192,20.6289 41.3416,18.929 C41.2642,17.2326 40.9947,16.0741 40.6009,15.0603 C40.1936,14.0123 39.6486,13.1235 38.7626,12.2375 C37.8765,11.3515 36.9876,10.8065 35.9397,10.3992 C34.9259,10.0053 33.7674,9.73582 32.071,9.65842 C30.3711,9.58083 29.8283,9.5625 25.5,9.5625 Z M25.5,12.4341 C29.7555,12.4341 30.2595,12.4504 31.9401,12.5271 C33.494,12.598 34.3378,12.8576 34.8994,13.0758 C35.6434,13.3649 36.1743,13.7103 36.732,14.268 C37.2898,14.8257 37.6351,15.3567 37.9242,16.1006 C38.1424,16.6622 38.4021,17.5059 38.4729,19.0599 C38.5496,20.7405 38.5659,21.2445 38.5659,25.5 C38.5659,29.7555 38.5496,30.2595 38.4729,31.9401 C38.4021,33.494 38.1424,34.3378 37.9242,34.8994 C37.6351,35.6434 37.2898,36.1743 36.732,36.732 C36.1743,37.2898 35.6434,37.6351 34.8994,37.9242 C34.3378,38.1424 33.494,38.4021 31.9401,38.4729 C30.2598,38.5496 29.7558,38.5659 25.5,38.5659 C21.2442,38.5659 20.7403,38.5496 19.0599,38.4729 C17.5059,38.4021 16.6622,38.1424 16.1006,37.9242 C15.3566,37.6351 14.8257,37.2898 14.2679,36.732 C13.7102,36.1743 13.3649,35.6434 13.0758,34.8994 C12.8576,34.3378 12.5979,33.494 12.527,31.9401 C12.4503,30.2595 12.4341,29.7555 12.4341,25.5 C12.4341,21.2445 12.4503,20.7405 12.527,19.0599 C12.5979,17.5059 12.8576,16.6622 13.0758,16.1006 C13.3649,15.3567 13.7102,14.8257 14.2679,14.268 C14.8257,13.7103 15.3566,13.3649 16.1006,13.0758 C16.6622,12.8576 17.5059,12.598 19.0599,12.5271 C20.7405,12.4504 21.2445,12.4341 25.5,12.4341 Z M25.5,17.3159 C20.98,17.3159 17.3159,20.98 17.3159,25.5 C17.3159,30.02 20.98,33.6841 25.5,33.6841 C30.02,33.6841 33.6841,30.02 33.6841,25.5 C33.6841,20.98 30.02,17.3159 25.5,17.3159 Z M25.5,30.8125 C22.566,30.8125 20.1875,28.434 20.1875,25.5 C20.1875,22.566 22.566,20.1875 25.5,20.1875 C28.434,20.1875 30.8125,22.566 30.8125,25.5 C30.8125,28.434 28.434,30.8125 25.5,30.8125 Z M35.92,16.9926 C35.92,18.0488 35.0637,18.905 34.0074,18.905 C32.9513,18.905 32.095,18.0488 32.095,16.9926 C32.095,15.9363 32.9513,15.0801 34.0074,15.0801 C35.0637,15.0801 35.92,15.9363 35.92,16.9926 Z" id="Shape"></path>
        </g>
    </g>
</svg>