<?xml version="1.0" encoding="UTF-8"?>
<svg width="660px" height="220px" viewBox="0 0 660 220" version="1.1" xmlns="http://www.w3.org/2000/svg" xmlns:xlink="http://www.w3.org/1999/xlink">
    <!-- Generator: Sketch 63.1 (92452) - https://sketch.com -->
    <title>justfix</title>
    <desc>Created with Sketch.</desc>
    <g id="justfix" stroke="none" stroke-width="1" fill="none" fill-rule="evenodd">
        <g id="Group" transform="translate(-1.000000, 46.500000)" fill="#0096D7" fill-rule="nonzero">
            <path d="M493.240541,38.5576577 L509.372973,38.5576577 L509.372973,46.5666667 L509.601802,46.5666667 C510.173874,45.4225225 510.86036,44.2783784 511.89009,43.1342342 C512.91982,41.9900901 514.063964,40.9603604 515.322523,40.1594595 C516.695495,39.2441441 518.182883,38.5576577 519.899099,37.9855856 C521.615315,37.4135135 523.445946,37.1846847 525.505405,37.1846847 C529.738739,37.1846847 533.171171,37.8711712 535.802703,39.3585586 C538.434234,40.7315315 540.493694,42.6765766 541.981081,45.1936937 C543.468468,47.7108108 544.383784,50.6855856 544.955856,54.0036036 C545.527928,57.436036 545.756757,61.0972973 545.756757,64.9873874 L545.756757,97.4810811 L528.937838,97.4810811 L528.937838,68.6486486 C528.937838,66.9324324 528.937838,65.2162162 528.823423,63.3855856 C528.709009,61.554955 528.365766,59.8387387 527.793694,58.3513514 C527.221622,56.863964 526.420721,55.6054054 525.162162,54.5756757 C524.018018,53.6603604 522.301802,53.0882883 520.127928,53.0882883 C517.954054,53.0882883 516.237838,53.5459459 514.864865,54.3468468 C513.491892,55.1477477 512.462162,56.2918919 511.775676,57.7792793 C511.089189,59.1522523 510.631532,60.7540541 510.402703,62.5846847 C510.173874,64.4153153 510.059459,66.2459459 510.059459,68.190991 L510.059459,97.4810811 L493.240541,97.4810811 L493.240541,38.5576577 Z" id="Path"></path>
            <path d="M586.145045,106.977477 C585.000901,110.181081 583.971171,112.927027 582.941441,115.32973 C581.911712,117.732432 580.538739,119.791892 578.936937,121.393694 C577.335135,122.995495 575.275676,124.254054 572.758559,125.169369 C570.241441,125.97027 567.037838,126.427928 563.033333,126.427928 C558.685586,126.427928 554.452252,125.741441 550.447748,124.254054 L552.736036,109.38018 C555.253153,110.638739 557.884685,111.210811 560.630631,111.210811 C562.461261,111.210811 564.063063,110.981982 565.207207,110.524324 C566.351351,110.066667 567.381081,109.38018 568.181982,108.579279 C568.982883,107.778378 569.669369,106.748649 570.127027,105.49009 C570.699099,104.231532 571.156757,102.858559 571.843243,101.256757 L573.101802,97.8243243 L549.189189,38.4432432 L567.381081,38.4432432 L581.454054,77.3441441 L581.682883,77.3441441 L593.696396,38.4432432 L610.972973,38.4432432 L586.145045,106.977477 Z" id="Path"></path>
            <path d="M649.988288,57.5504505 C649.187387,56.2918919 648.043243,55.1477477 646.555856,54.3468468 C645.068468,53.5459459 643.466667,53.0882883 641.75045,53.0882883 C637.517117,53.0882883 634.199099,54.4612613 631.796396,57.2072072 C629.393694,59.9531532 628.24955,63.5 628.24955,67.9621622 C628.24955,72.4243243 629.393694,75.9711712 631.796396,78.7171171 C634.199099,81.4630631 637.517117,82.836036 641.75045,82.836036 C643.581081,82.836036 645.182883,82.3783784 646.555856,81.4630631 C647.928829,80.5477477 649.072973,79.518018 649.988288,78.2594595 L661.086486,90.845045 C658.454955,93.7054054 655.365766,95.7648649 651.818919,96.909009 C648.272072,98.0531532 644.83964,98.6252252 641.636036,98.6252252 C637.402703,98.6252252 633.512613,97.9387387 629.736937,96.4513514 C626.075676,94.963964 622.757658,92.9045045 620.126126,90.1585586 C617.38018,87.4126126 615.206306,84.209009 613.718919,80.4333333 C612.117117,76.6576577 611.316216,72.4243243 611.316216,67.7333333 C611.316216,63.0423423 612.117117,58.809009 613.718919,55.0333333 C615.320721,51.2576577 617.494595,47.9396396 620.126126,45.3081081 C622.872072,42.5621622 626.075676,40.5027027 629.736937,39.0153153 C633.398198,37.5279279 637.402703,36.8414414 641.636036,36.8414414 C644.83964,36.8414414 648.272072,37.4135135 651.818919,38.5576577 C655.365766,39.7018018 658.454955,41.7612613 661.086486,44.6216216 L649.988288,57.5504505 Z" id="Path"></path>
            <path d="M140.500901,68.7630631 C140.500901,72.7675676 140.157658,76.5432432 139.585586,80.3189189 C138.899099,83.9801802 137.754955,87.2981982 135.924324,90.1585586 C134.093694,93.0189189 131.576577,95.3072072 128.258559,97.0234234 C124.940541,98.7396396 120.592793,99.654955 115.215315,99.654955 C108.922523,99.654955 103.659459,98.0531532 99.3117117,94.8495495 C94.963964,91.6459459 92.1036036,86.6117117 90.845045,79.7468468 L106.863063,75.5135135 C107.091892,77.572973 108.007207,79.4036036 109.494595,80.890991 C110.981982,82.3783784 112.812613,83.0648649 114.757658,83.0648649 C116.817117,83.0648649 118.304505,82.4927928 119.448649,81.4630631 C120.592793,80.3189189 121.393694,79.0603604 121.965766,77.4585586 C122.537838,75.8567568 122.766667,74.1405405 122.881081,72.1954955 C122.995495,70.2504505 122.995495,68.5342342 122.995495,66.9324324 L122.995495,11.8990991 L140.500901,11.8990991 L140.500901,68.7630631 Z" id="Path"></path>
            <path d="M203.2,97.4810811 L187.067568,97.4810811 L187.067568,89.4720721 L186.838739,89.4720721 C186.266667,90.6162162 185.465766,91.7603604 184.55045,92.9045045 C183.635135,94.0486486 182.490991,95.0783784 181.118018,95.8792793 C179.745045,96.7945946 178.257658,97.4810811 176.541441,98.0531532 C174.825225,98.6252252 172.994595,98.8540541 170.935135,98.8540541 C166.701802,98.8540541 163.154955,98.1675676 160.523423,96.6801802 C157.891892,95.3072072 155.832432,93.3621622 154.345045,90.845045 C152.857658,88.3279279 151.942342,85.3531532 151.37027,82.0351351 C150.912613,78.6027027 150.683784,74.9414414 150.683784,71.0513514 L150.683784,38.5576577 L167.502703,38.5576577 L167.502703,67.3900901 C167.502703,69.1063063 167.502703,70.8225225 167.617117,72.6531532 C167.731532,74.4837838 168.074775,76.2 168.646847,77.6873874 C169.218919,79.1747748 170.01982,80.4333333 171.278378,81.4630631 C172.422523,82.3783784 174.138739,82.9504505 176.312613,82.9504505 C178.486486,82.9504505 180.202703,82.4927928 181.575676,81.6918919 C182.948649,80.890991 183.978378,79.7468468 184.664865,78.2594595 C185.351351,76.8864865 185.809009,75.2846847 186.037838,73.4540541 C186.266667,71.6234234 186.381081,69.7927928 186.381081,67.8477477 L186.381081,38.5576577 L203.2,38.5576577 L203.2,97.4810811 Z" id="Path"></path>
            <path d="M243.245045,55.9486486 C240.727928,52.6306306 237.524324,51.0288288 233.51982,51.0288288 C232.146847,51.0288288 230.659459,51.3720721 229.400901,52.172973 C228.027928,52.8594595 227.341441,54.118018 227.341441,55.9486486 C227.341441,57.436036 228.027928,58.4657658 229.400901,59.1522523 C230.773874,59.8387387 232.49009,60.4108108 234.663964,60.9828829 C236.837838,61.554955 239.126126,62.127027 241.528829,62.6990991 C243.931532,63.2711712 246.21982,64.3009009 248.393694,65.5594595 C250.567568,66.818018 252.283784,68.6486486 253.656757,70.8225225 C255.02973,72.9963964 255.716216,75.9711712 255.716216,79.7468468 C255.716216,83.5225225 254.915315,86.7261261 253.427928,89.1288288 C251.940541,91.6459459 249.881081,93.590991 247.478378,95.0783784 C245.075676,96.5657658 242.32973,97.5954955 239.354955,98.281982 C236.38018,98.8540541 233.405405,99.1972973 230.430631,99.1972973 C226.654955,99.1972973 222.764865,98.6252252 218.874775,97.4810811 C214.984685,96.3369369 211.666667,94.2774775 209.035135,91.1882883 L219.218018,78.9459459 C220.81982,81.0054054 222.536036,82.6072072 224.481081,83.7513514 C226.426126,84.8954955 228.6,85.3531532 231.117117,85.3531532 C233.062162,85.3531532 234.778378,85.0099099 236.38018,84.4378378 C237.981982,83.8657658 238.782883,82.7216216 238.782883,81.1198198 C238.782883,79.6324324 238.096396,78.4882883 236.723423,77.6873874 C235.35045,76.8864865 233.634234,76.3144144 231.46036,75.7423423 C229.286486,75.1702703 226.998198,74.5981982 224.595495,74.0261261 C222.192793,73.4540541 219.904505,72.5387387 217.730631,71.2801802 C215.556757,70.0216216 213.840541,68.3054054 212.467568,66.1315315 C211.094595,63.9576577 210.408108,60.9828829 210.408108,57.2072072 C210.408108,53.7747748 211.094595,50.8 212.353153,48.2828829 C213.611712,45.7657658 215.442342,43.7063063 217.501802,42.1045045 C219.675676,40.5027027 222.078378,39.2441441 224.824324,38.5576577 C227.57027,37.7567568 230.430631,37.4135135 233.290991,37.4135135 C236.837838,37.4135135 240.499099,37.9855856 244.16036,39.1297297 C247.821622,40.2738739 250.910811,42.3333333 253.542342,45.1936937 L243.245045,55.9486486 Z" id="Path"></path>
            <path d="M301.481982,53.0882883 L286.608108,53.0882883 L286.608108,72.7675676 C286.608108,74.3693694 286.722523,75.8567568 286.836937,77.2297297 C286.951351,78.6027027 287.294595,79.7468468 287.866667,80.6621622 C288.438739,81.5774775 289.23964,82.3783784 290.269369,82.9504505 C291.299099,83.5225225 292.786486,83.7513514 294.617117,83.7513514 C295.532432,83.7513514 296.676577,83.6369369 298.163964,83.4081081 C299.651351,83.1792793 300.681081,82.7216216 301.481982,82.0351351 L301.481982,97.1378378 C299.651351,97.8243243 297.706306,98.3963964 295.646847,98.6252252 C293.587387,98.8540541 291.642342,98.9684685 289.697297,98.9684685 C286.836937,98.9684685 284.205405,98.6252252 281.802703,98.0531532 C279.4,97.3666667 277.340541,96.3369369 275.50991,94.963964 C273.679279,93.590991 272.306306,91.7603604 271.276577,89.4720721 C270.246847,87.1837838 269.789189,84.4378378 269.789189,81.2342342 L269.789189,53.2027027 L259.034234,53.2027027 L259.034234,38.6720721 L269.789189,38.6720721 L269.789189,21.2810811 L286.608108,21.2810811 L286.608108,38.6720721 L301.481982,38.6720721 L301.481982,53.0882883 Z" id="Path"></path>
            <polygon id="Path" points="312.351351 11.6702703 365.668468 11.6702703 365.668468 29.0612613 329.856757 29.0612613 329.856757 46.4522523 363.036937 46.4522523 363.036937 63.8432432 329.856757 63.8432432 329.856757 97.2522523 312.351351 97.2522523"></polygon>
            <path d="M373.563063,20.0225225 C373.563063,17.1621622 374.478378,14.645045 376.423423,12.5855856 C378.368468,10.5261261 380.656757,9.4963964 383.288288,9.4963964 C386.034234,9.4963964 388.322523,10.5261261 390.153153,12.5855856 C392.098198,14.645045 393.013514,17.1621622 393.013514,20.0225225 C393.013514,22.8828829 392.098198,25.4 390.153153,27.4594595 C388.208108,29.5189189 385.91982,30.5486486 383.288288,30.5486486 C380.542342,30.5486486 378.254054,29.5189189 376.423423,27.4594595 C374.478378,25.4 373.563063,22.8828829 373.563063,20.0225225 Z M374.821622,38.5576577 L391.640541,38.5576577 L391.640541,97.4810811 L374.821622,97.4810811 L374.821622,38.5576577 Z" id="Shape"></path>
            <polygon id="Path" points="417.040541 65.9027027 398.848649 38.5576577 418.756757 38.5576577 428.367568 54.5756757 437.74955 38.5576577 456.513514 38.5576577 438.779279 65.9027027 459.831532 97.3666667 439.923423 97.3666667 427.90991 77.8018018 415.095495 97.4810811 395.416216 97.4810811"></polygon>
            <path d="M55.9486486,22.6540541 L55.9486486,0.686486486 L0.915315315,0.686486486 L0.915315315,99.7693694 L33.8666667,99.7693694 L33.8666667,77.8018018 L44.8504505,77.8018018 L44.8504505,99.7693694 L77.9162162,99.7693694 L77.9162162,22.7684685 L55.9486486,22.7684685 L55.9486486,22.6540541 Z M22.8828829,88.6711712 L11.8990991,88.6711712 L11.8990991,77.6873874 L22.8828829,77.6873874 L22.8828829,88.6711712 Z M22.8828829,66.7036036 L11.8990991,66.7036036 L11.8990991,55.7198198 L22.8828829,55.7198198 L22.8828829,66.7036036 Z M22.8828829,44.6216216 L11.8990991,44.6216216 L11.8990991,33.6378378 L22.8828829,33.6378378 L22.8828829,44.6216216 Z M22.8828829,22.6540541 L11.8990991,22.6540541 L11.8990991,11.6702703 L22.8828829,11.6702703 L22.8828829,22.6540541 Z M44.9648649,66.7036036 L33.9810811,66.7036036 L33.9810811,55.7198198 L44.9648649,55.7198198 L44.9648649,66.7036036 Z M44.9648649,44.736036 L33.9810811,44.736036 L33.9810811,33.7522523 L44.9648649,33.7522523 L44.9648649,44.736036 Z M44.9648649,22.6540541 L33.9810811,22.6540541 L33.9810811,11.6702703 L44.9648649,11.6702703 L44.9648649,22.6540541 Z M66.9324324,88.6711712 L55.9486486,88.6711712 L55.9486486,77.6873874 L66.9324324,77.6873874 L66.9324324,88.6711712 Z M66.9324324,66.7036036 L55.9486486,66.7036036 L55.9486486,55.7198198 L66.9324324,55.7198198 L66.9324324,66.7036036 Z M66.9324324,44.736036 L55.9486486,44.736036 L55.9486486,33.7522523 L66.9324324,33.7522523 L66.9324324,44.736036 Z" id="Shape"></path>
            <polygon id="Path" points="59.6099099 1.02972973 59.6099099 19.336036 77.9162162 19.336036"></polygon>
            <path d="M464.636937,89.1288288 C464.636937,86.2684685 465.552252,83.7513514 467.497297,81.6918919 C469.442342,79.6324324 471.730631,78.6027027 474.362162,78.6027027 C476.993694,78.6027027 479.396396,79.6324324 481.227027,81.6918919 C483.172072,83.7513514 484.087387,86.2684685 484.087387,89.1288288 C484.087387,91.9891892 483.172072,94.5063063 481.227027,96.5657658 C479.281982,98.6252252 476.993694,99.654955 474.362162,99.654955 C471.730631,99.654955 469.327928,98.6252252 467.497297,96.5657658 C465.552252,94.5063063 464.636937,91.9891892 464.636937,89.1288288 Z" id="Path"></path>
        </g>
    </g>
</svg>