<?xml version="1.0" encoding="UTF-8"?>
<svg width="108px" height="108px" viewBox="0 0 108 108" version="1.1" xmlns="http://www.w3.org/2000/svg" xmlns:xlink="http://www.w3.org/1999/xlink">
    <!-- Generator: Sketch 63.1 (92452) - https://sketch.com -->
    <title>legal</title>
    <desc>Created with Sketch.</desc>
    <g id="legal" stroke="none" stroke-width="1" fill="none" fill-rule="evenodd">
        <g id="legal-protections" transform="translate(3.500000, 0.000000)">
            <polygon id="Path" fill="#3B403D" fill-rule="nonzero" points="70.06824 20.8636457 22.1268343 20.8636457 22.1268343 84.6818743 60.0389486 84.6818743 60.0389486 89.5909371 17.2097486 89.5909371 17.2097486 15.9545829 74.9853257 15.9545829 74.9853257 59.5227086 70.06824 59.5227086"></polygon>
            <path d="M78.6731657,96.9545829 C88.1777829,96.9545829 95.8829143,89.262 95.8829143,79.7727086 L95.8829143,62.5909371 L61.4634171,62.5909371 L61.4634171,79.7727086 C61.4634171,89.262 69.1684457,96.9545829 78.6731657,96.9545829 Z M100.8,79.7727086 C100.8,91.9732114 90.8934171,101.863646 78.6731657,101.863646 C66.4528114,101.863646 56.5463314,91.9732114 56.5463314,79.7727086 L56.5463314,57.6817714 L100.8,57.6817714 L100.8,79.7727086 Z" id="Shape" fill="#3B403D"></path>
            <path d="M88.5073371,67.5 L59.0048229,67.5 L59.0048229,72.4090629 L88.5073371,72.4090629 C89.8651543,72.4090629 90.9658286,71.3101371 90.9658286,69.9545829 C90.9658286,68.5989257 89.8651543,67.5 88.5073371,67.5 Z" id="Path" fill="#3B403D"></path>
            <path d="M31.5139886,30.6817714 C31.5139886,32.0374286 30.5133943,33.1363543 29.2790057,33.1363543 C28.0446171,33.1363543 27.04392,32.0374286 27.04392,30.6817714 C27.04392,29.3262171 28.0446171,28.2272914 29.2790057,28.2272914 C30.5133943,28.2272914 31.5139886,29.3262171 31.5139886,30.6817714 Z" id="Path" fill="#3B403D" fill-rule="nonzero"></path>
            <path d="M64.70424,30.6817714 C64.70424,32.0374286 63.7036457,33.1363543 62.4692571,33.1363543 C61.2348686,33.1363543 60.2341714,32.0374286 60.2341714,30.6817714 C60.2341714,29.3262171 61.2348686,28.2272914 62.4692571,28.2272914 C63.7036457,28.2272914 64.70424,29.3262171 64.70424,30.6817714 Z" id="Path" fill="#3B403D" fill-rule="nonzero"></path>
            <polygon id="Path" fill="#3B403D" fill-rule="nonzero" points="29.5025143 28.2272914 62.6927657 28.2272914 62.6927657 33.1363543 29.5025143 33.1363543"></polygon>
            <path d="M31.5139886,41.7272914 C31.5139886,43.0828457 30.5133943,44.1817714 29.2790057,44.1817714 C28.0446171,44.1817714 27.04392,43.0828457 27.04392,41.7272914 C27.04392,40.3716343 28.0446171,39.2727086 29.2790057,39.2727086 C30.5133943,39.2727086 31.5139886,40.3716343 31.5139886,41.7272914 Z" id="Path" fill="#3B403D" fill-rule="nonzero"></path>
            <path d="M64.70424,41.7272914 C64.70424,43.0828457 63.7036457,44.1817714 62.4692571,44.1817714 C61.2348686,44.1817714 60.2341714,43.0828457 60.2341714,41.7272914 C60.2341714,40.3716343 61.2348686,39.2727086 62.4692571,39.2727086 C63.7036457,39.2727086 64.70424,40.3716343 64.70424,41.7272914 Z" id="Path" fill="#3B403D" fill-rule="nonzero"></path>
            <polygon id="Path" fill="#3B403D" fill-rule="nonzero" points="29.5025143 39.2727086 62.6927657 39.2727086 62.6927657 44.1817714 29.5025143 44.1817714"></polygon>
            <path d="M31.5139886,52.7727086 C31.5139886,54.1283657 30.5133943,55.2272914 29.2790057,55.2272914 C28.0446171,55.2272914 27.04392,54.1283657 27.04392,52.7727086 C27.04392,51.4171543 28.0446171,50.3182286 29.2790057,50.3182286 C30.5133943,50.3182286 31.5139886,51.4171543 31.5139886,52.7727086 Z" id="Path" fill="#3B403D" fill-rule="nonzero"></path>
            <path d="M64.70424,52.7727086 C64.70424,54.1283657 63.7036457,55.2272914 62.4692571,55.2272914 C61.2348686,55.2272914 60.2341714,54.1283657 60.2341714,52.7727086 C60.2341714,51.4171543 61.2348686,50.3182286 62.4692571,50.3182286 C63.7036457,50.3182286 64.70424,51.4171543 64.70424,52.7727086 Z" id="Path" fill="#3B403D" fill-rule="nonzero"></path>
            <polygon id="Path" fill="#3B403D" fill-rule="nonzero" points="29.5025143 50.3182286 62.6927657 50.3182286 62.6927657 55.2272914 29.5025143 55.2272914"></polygon>
            <path d="M31.7374971,63.8182286 C31.7374971,65.1737829 30.6868114,66.2727086 29.3907086,66.2727086 C28.0946057,66.2727086 27.04392,65.1737829 27.04392,63.8182286 C27.04392,62.4625714 28.0946057,61.3636457 29.3907086,61.3636457 C30.6868114,61.3636457 31.7374971,62.4625714 31.7374971,63.8182286 Z" id="Path" fill="#3B403D" fill-rule="nonzero"></path>
            <path d="M52.8584914,63.8182286 C52.8584914,65.1737829 51.8078057,66.2727086 50.5117029,66.2727086 C49.2156,66.2727086 48.1649143,65.1737829 48.1649143,63.8182286 C48.1649143,62.4625714 49.2156,61.3636457 50.5117029,61.3636457 C51.8078057,61.3636457 52.8584914,62.4625714 52.8584914,63.8182286 Z" id="Path" fill="#3B403D" fill-rule="nonzero"></path>
            <polygon id="Path" fill="#3B403D" fill-rule="nonzero" points="29.3906057 61.3636457 50.5117029 61.3636457 50.5117029 66.2727086 29.3906057 66.2727086"></polygon>
            <path d="M31.7374971,74.8636457 C31.7374971,76.2193029 30.6868114,77.3182286 29.3907086,77.3182286 C28.0946057,77.3182286 27.04392,76.2193029 27.04392,74.8636457 C27.04392,73.5079886 28.0946057,72.4090629 29.3907086,72.4090629 C30.6868114,72.4090629 31.7374971,73.5079886 31.7374971,74.8636457 Z" id="Path" fill="#3B403D" fill-rule="nonzero"></path>
            <path d="M52.8584914,74.8636457 C52.8584914,76.2193029 51.8078057,77.3182286 50.5117029,77.3182286 C49.2156,77.3182286 48.1649143,76.2193029 48.1649143,74.8636457 C48.1649143,73.5079886 49.2156,72.4090629 50.5117029,72.4090629 C51.8078057,72.4090629 52.8584914,73.5079886 52.8584914,74.8636457 Z" id="Path" fill="#3B403D" fill-rule="nonzero"></path>
            <polygon id="Path" fill="#3B403D" fill-rule="nonzero" points="29.3906057 72.4090629 50.5117029 72.4090629 50.5117029 77.3182286 29.3906057 77.3182286"></polygon>
            <path d="M23.3561829,105.545829 C23.3561829,106.901486 22.2554057,108 20.8975886,108 C19.5397714,108 18.4390971,106.901486 18.4390971,105.545829 L18.4390971,100.636354 C18.4390971,99.2808 19.5397714,98.1818743 20.8975886,98.1818743 C22.2554057,98.1818743 23.3561829,99.2808 23.3561829,100.636354 L23.3561829,105.545829 Z" id="Path" fill="#18AF7C"></path>
            <path d="M68.8389943,2.45454171 C68.8389943,1.098936 69.9396686,0 71.2974857,0 C72.6553029,0 73.75608,1.098936 73.75608,2.45454171 L73.75608,7.36363543 C73.75608,8.71924114 72.6553029,9.81817714 71.2974857,9.81817714 C69.9396686,9.81817714 68.8389943,8.71924114 68.8389943,7.36363543 L68.8389943,2.45454171 Z" id="Path" fill="#18AF7C"></path>
            <path d="M10.1324469,101.355326 C9.17232686,102.313851 7.61566629,102.313851 6.65555657,101.355326 C5.69543657,100.396697 5.69543657,98.8426286 6.65555657,97.884 L10.1324469,94.4127771 C11.0925257,93.4542514 12.6492686,93.4542514 13.6093371,94.4127771 C14.5695086,95.3713029 14.5695086,96.9254743 13.6093371,97.884 L10.1324469,101.355326 Z" id="Path" fill="#18AF7C"></path>
            <path d="M82.06272,6.64471543 C83.0227886,5.68615886 84.5794286,5.68615886 85.5396,6.64471543 C86.4996686,7.603272 86.4996686,9.15740229 85.5396,10.1159691 L82.06272,13.5872229 C81.1025486,14.5457486 79.5459086,14.5457486 78.58584,13.5872229 C77.6256686,12.6286971 77.6256686,11.0745257 78.58584,10.1159691 L82.06272,6.64471543 Z" id="Path" fill="#18AF7C"></path>
            <path d="M2.45853257,88.3636457 C1.10072571,88.3636457 -1.07466171e-07,87.26472 -1.07466171e-07,85.9090629 C-1.07466171e-07,84.5535086 1.10072571,83.4545829 2.45853257,83.4545829 L7.375608,83.4545829 C8.73342514,83.4545829 9.83415086,84.5535086 9.83415086,85.9090629 C9.83415086,87.26472 8.73342514,88.3636457 7.375608,88.3636457 L2.45853257,88.3636457 Z" id="Path" fill="#18AF7C"></path>
            <path d="M89.7365829,19.6363543 C91.0944,19.6363543 92.1951771,20.73528 92.1951771,22.0909371 C92.1951771,23.4464914 91.0944,24.5454171 89.7365829,24.5454171 L84.8194971,24.5454171 C83.46168,24.5454171 82.3610057,23.4464914 82.3610057,22.0909371 C82.3610057,20.73528 83.46168,19.6363543 84.8194971,19.6363543 L89.7365829,19.6363543 Z" id="Path" fill="#18AF7C"></path>
            <polyline id="Path" stroke="#3B403D" stroke-width="4" points="73.75608 82.8409371 77.8536 87.1363543 86.0487429 78.5454171"></polyline>
        </g>
    </g>
</svg>