<?xml version="1.0" encoding="UTF-8"?>
<svg width="108px" height="108px" viewBox="0 0 108 108" version="1.1" xmlns="http://www.w3.org/2000/svg" xmlns:xlink="http://www.w3.org/1999/xlink">
    <!-- Generator: Sketch 63.1 (92452) - https://sketch.com -->
    <title>letters</title>
    <desc>Created with Sketch.</desc>
    <g id="letters" stroke="none" stroke-width="1" fill="none" fill-rule="evenodd">
        <g id="Group" fill-rule="nonzero">
            <path d="M41.4989231,43.7479567 L96.1838462,43.7479567 C98.0071154,43.7479567 99.465,42.4720337 99.8294712,40.8314567 L107.120721,0 L45.1446394,0 L38.0355337,39.3732067 C37.8532981,40.4668942 38.2178606,41.5605817 38.76475,42.2897067 C39.3115481,43.2011587 40.4052356,43.7479567 41.4989231,43.7479567 Z M98.9178365,3.64566154 L72.304774,21.3271346 L51.5245288,3.64566154 L98.9178365,3.64566154 Z M47.8789038,5.28621106 L72.1225385,26.0665385 L102.381683,5.65078269 L96.1838462,40.1023317 L41.4989231,40.1023317 L47.8789038,5.28621106 Z" id="Shape" fill="#3B403D"></path>
            <path d="M62.6437308,51.0392067 L0.667478221,51.0392067 L8.14108894,91.8704808 C8.50566058,93.69375 9.96394712,94.7871635 11.7867596,94.7871635 L66.4716827,94.7871635 C67.5654615,94.7871635 68.659149,94.24 69.2059471,93.5110577 C69.9350721,92.5994231 70.117399,91.5060096 69.9350721,90.5947404 L62.6437308,51.0392067 Z M56.2638413,54.6849231 L35.4835962,72.3663413 L8.87022308,54.6849231 L56.2638413,54.6849231 Z M11.6044327,91.1415385 L9.78162019,91.5060096 L11.6044327,91.1415385 Z M11.6044327,91.1415385 L5.40684279,56.6900625 L35.8481587,76.9234183 L60.0917933,56.1431731 L66.2894471,91.1415385 L11.6044327,91.1415385 Z" id="Shape" fill="#3B403D"></path>
            <polygon id="Path" fill="#18AF7C" points="103.110625 60.1534519 73.9454423 60.1534519 73.9454423 63.7990769 103.110625 63.7990769"></polygon>
            <polygon id="Path" fill="#18AF7C" points="97.6426442 71.0904183 77.5910673 71.0904183 77.5910673 74.7361346 97.6426442 74.7361346"></polygon>
            <polygon id="Path" fill="#18AF7C" points="30.1973942 20.0511202 10.1461827 20.0511202 10.1461827 23.6968365 30.1973942 23.6968365"></polygon>
            <polygon id="Path" fill="#18AF7C" points="33.8431106 9.11418125 4.67780913 9.11418125 4.67780913 12.7598702 33.8431106 12.7598702"></polygon>
            <polygon id="Path" fill="#18AF7C" points="26.5516779 30.9881779 15.6147115 30.9881779 15.6147115 34.6338029 26.5516779 34.6338029"></polygon>
            <polygon id="Path" fill="#18AF7C" points="92.17375 82.027476 81.236875 82.027476 81.236875 85.673101 92.17375 85.673101"></polygon>
        </g>
    </g>
</svg>