<?xml version="1.0" encoding="UTF-8"?>
<svg width="108px" height="108px" viewBox="0 0 108 108" version="1.1" xmlns="http://www.w3.org/2000/svg" xmlns:xlink="http://www.w3.org/1999/xlink">
    <!-- Generator: Sketch 63.1 (92452) - https://sketch.com -->
    <title>letters</title>
    <desc>Created with Sketch.</desc>
    <g id="letters" stroke="none" stroke-width="1" fill="none" fill-rule="evenodd">
        <g id="certified-mail" transform="translate(0.500000, 0.000000)">
            <path d="M92.9785765,26.2702588 L33.0069176,26.2702588 L62.9928,43.3408235 L92.9785765,26.2702588 Z M24.9041647,28.3812353 L24.9041647,67.1351294 L101.081435,67.1351294 L101.081435,28.3812353 L62.9928,50.0645647 L24.9041647,28.3812353 Z M19.0443176,72.9729529 L19.0443176,20.4324353 L106.941176,20.4324353 L106.941176,72.9729529 L19.0443176,72.9729529 Z" id="Shape" fill="#3B403D"></path>
            <path d="M80.5721294,102.891918 L93.7566,108 L93.7566,78.8107765 L67.3875529,78.8107765 L67.3875529,108 L80.5721294,102.891918 Z M73.2472941,99.4659882 L80.5721294,96.6281294 L87.8968588,99.4659882 L87.8968588,84.6486 L73.2472941,84.6486 L73.2472941,99.4659882 Z" id="Shape" fill="#3B403D"></path>
            <path d="M99.6164471,67.8648706 C99.6164471,78.7464 90.7621412,87.5675647 79.8397412,87.5675647 C68.9172353,87.5675647 60.0629294,78.7464 60.0629294,67.8648706 C60.0629294,56.9833412 68.9172353,48.1621765 79.8397412,48.1621765 C90.7621412,48.1621765 99.6164471,56.9833412 99.6164471,67.8648706 Z" id="Path" fill="#F8F8F8" fill-rule="nonzero"></path>
            <path d="M79.8397412,81.7297412 C87.5258471,81.7297412 93.7567059,75.5221765 93.7567059,67.8648706 C93.7567059,60.2074588 87.5258471,54 79.8397412,54 C72.1535294,54 65.9226706,60.2074588 65.9226706,67.8648706 C65.9226706,75.5221765 72.1535294,81.7297412 79.8397412,81.7297412 Z M79.8397412,87.5675647 C90.7621412,87.5675647 99.6164471,78.7464 99.6164471,67.8648706 C99.6164471,56.9833412 90.7621412,48.1621765 79.8397412,48.1621765 C68.9172353,48.1621765 60.0629294,56.9833412 60.0629294,67.8648706 C60.0629294,78.7464 68.9172353,87.5675647 79.8397412,87.5675647 Z" id="Shape" fill="#3B403D"></path>
            <polyline id="Path" stroke="#3B403D" stroke-width="4" points="73.2474 67.8648706 78.1305882 72.9729529 87.8968588 62.7567882"></polyline>
            <path d="M27.8340353,2.91892235 C27.8340353,1.30684235 26.5222588,0 24.9040588,0 C23.2859647,0 21.9741882,1.30684235 21.9741882,2.91892235 L21.9741882,8.75675647 C21.9741882,10.3688259 23.2859647,11.6756471 24.9040588,11.6756471 C26.5222588,11.6756471 27.8340353,10.3688259 27.8340353,8.75675647 L27.8340353,2.91892235 Z" id="Path" fill="#18AF7C"></path>
            <path d="M12.0751412,7.90182 C10.9308706,6.76191176 9.07579059,6.76191176 7.93159412,7.90182 C6.78739765,9.04172824 6.78739765,10.8898941 7.93159412,12.0298235 L12.0751412,16.1577529 C13.2193059,17.2976824 15.0743647,17.2976824 16.2186353,16.1577529 C17.3628,15.0178235 17.3628,13.1697529 16.2186353,12.0298235 L12.0751412,7.90182 Z" id="Path" fill="#18AF7C"></path>
            <path d="M2.92989176,23.3514 C1.31175529,23.3514 -1.2807e-07,24.6582 -1.2807e-07,26.2702588 C-1.2807e-07,27.8823176 1.31175529,29.1892235 2.92989176,29.1892235 L8.78968588,29.1892235 C10.4078224,29.1892235 11.7195882,27.8823176 11.7195882,26.2702588 C11.7195882,24.6582 10.4078224,23.3514 8.78968588,23.3514 L2.92989176,23.3514 Z" id="Path" fill="#18AF7C"></path>
        </g>
    </g>
</svg>