<?xml version="1.0" encoding="UTF-8"?>
<svg width="148px" height="23px" viewBox="0 0 148 23" version="1.1" xmlns="http://www.w3.org/2000/svg" xmlns:xlink="http://www.w3.org/1999/xlink">
    <!-- Generator: Sketch 63.1 (92452) - https://sketch.com -->
    <title>logo</title>
    <desc>Created with Sketch.</desc>
    <g id="logo" stroke="none" stroke-width="1" fill="none" fill-rule="evenodd">
        <g id="wordmark-NoRent" fill="#FFFFFF">
            <path d="M44.532,2.39252 C44.0606,2.0549 43.5557,1.74764 43.0172,1.47075 C41.1208,0.490249 38.9873,0 36.6168,0 C34.2462,0 32.1075,0.490249 30.2005,1.47075 C28.3041,2.45125 26.8239,3.80726 25.7597,5.53878 C24.6956,7.27029 24.1636,9.23651 24.1636,11.4374 C24.1636,13.6383 24.6956,15.6202 25.7597,17.383 C26.2107,18.1301 26.7365,18.8079 27.337,19.4164 L32.5558,14.2495 C32.545,14.2302 32.5343,14.2107 32.5237,14.1912 C32.0812,13.3776 31.8599,12.4701 31.8599,11.4687 C31.8599,10.4673 32.0812,9.56508 32.5237,8.7619 C32.9662,7.95873 33.5562,7.32766 34.2937,6.86871 C35.0417,6.40975 35.8477,6.18027 36.7116,6.18027 C37.5755,6.18027 38.3604,6.40975 39.0663,6.86871 C39.2566,6.99058 39.436,7.12459 39.6047,7.27073 L44.532,2.39252 Z M34.8275,16.4062 C35.4215,16.6819 36.0495,16.8197 36.7116,16.8197 C37.5755,16.8197 38.3604,16.585 39.0663,16.1156 C39.7827,15.6463 40.3464,15.0048 40.7573,14.1912 C41.1682,13.3776 41.3736,12.4701 41.3736,11.4687 C41.3736,10.9791 41.3245,10.5132 41.2263,10.071 L46.7904,4.56228 C47.0348,4.878 47.2626,5.20871 47.4738,5.55442 C48.5484,7.29637 49.0858,9.25737 49.0858,11.4374 C49.0858,13.6383 48.5484,15.615 47.4738,17.3673 C46.4097,19.1197 44.9242,20.4966 43.0172,21.498 C41.1208,22.4993 38.9873,23 36.6168,23 C34.2462,23 32.1075,22.5045 30.2005,21.5136 C30.0844,21.4529 29.9699,21.3908 29.8569,21.3273 L34.8275,16.4062 Z M6.84293,11.2184 L15.7719,22.6871 L22.0459,22.6871 L22.0459,0.219048 L15.2504,0.219048 L15.2504,11.766 L6.2898,0.219048 L0,0.219048 L0,22.6871 L6.84293,22.6871 L6.84293,11.2184 Z M68.2712,16.851 L65.4582,16.851 L65.4582,22.6871 L57.9357,22.6871 L57.9357,0.219048 L68.9192,0.219048 C72.0061,0.219048 74.3872,0.923129 76.0624,2.33129 C77.7481,3.72902 78.5909,5.70567 78.5909,8.26122 C78.5909,9.88844 78.2801,11.307 77.6585,12.517 C77.0475,13.7166 76.1625,14.671 75.0035,15.3803 L79.4601,22.6871 L70.9894,22.6871 L68.2712,16.851 Z M68.9192,11.2184 C69.741,11.2184 70.3678,10.9785 70.7998,10.4986 C71.2423,10.0188 71.4635,9.35125 71.4635,8.49592 C71.4635,7.66145 71.2423,7.01474 70.7998,6.55578 C70.3573,6.09683 69.7304,5.86735 68.9192,5.86735 L65.4582,5.86735 L65.4582,11.2184 L68.9192,11.2184 Z M88.9106,8.62109 L88.9106,5.86735 L100.589,5.86735 L100.589,0.219048 L81.3882,0.219048 L81.3882,22.6871 L100.874,22.6871 L100.874,17.0544 L88.9106,17.0544 L88.9106,14.2537 L99.5148,14.2537 L99.5148,8.62109 L88.9106,8.62109 Z M119.506,22.6871 L110.577,11.2184 L110.577,22.6871 L103.734,22.6871 L103.734,0.219048 L110.024,0.219048 L118.985,11.766 L118.985,0.219048 L125.78,0.219048 L125.78,22.6871 L119.506,22.6871 Z M141.521,22.6871 L141.521,6.08639 L148,6.08639 L148,0.219048 L127.566,0.219048 L127.566,6.08639 L134.014,6.08639 L134.014,22.6871 L141.521,22.6871 Z" id="Shape"></path>
        </g>
    </g>
</svg>