<?xml version="1.0" encoding="UTF-8"?>
<svg width="194px" height="194px" viewBox="0 0 194 194" version="1.1" xmlns="http://www.w3.org/2000/svg" xmlns:xlink="http://www.w3.org/1999/xlink">
    <!-- Generator: Sketch 63.1 (92452) - https://sketch.com -->
    <title>paperairplane1</title>
    <desc>Created with Sketch.</desc>
    <g id="paperairplane1" stroke="none" stroke-width="1" fill="none" fill-rule="evenodd">
        <g id="Group-43" fill-rule="nonzero">
            <path d="M181.656,96.7467 C180.839,95.5221 179.614,94.9098 177.982,95.1139 L53.6804,118.994 C52.2516,119.199 51.2311,120.219 51.027,121.648 C50.8229,122.872 51.2311,124.301 52.4557,125.118 L80.6225,145.12 L80.6225,171.858 C80.6225,173.083 81.2348,174.103 82.2554,174.716 C82.8677,174.92 83.2759,175.124 83.8882,175.124 C84.5005,175.124 85.1129,174.92 85.5211,174.716 L105.728,162.877 L115.525,169.817 C116.137,170.225 116.749,170.429 117.566,170.429 C118.586,170.429 119.403,170.021 120.015,169.205 L181.043,100.421 C182.064,99.6042 182.268,97.9714 181.656,96.7467 Z M153.081,106.748 L84.0923,139.405 L62.457,124.097 L153.081,106.748 Z M87.358,165.939 L87.358,149.815 L99.8086,158.591 L87.358,165.939 Z M117.158,162.673 L90.6238,143.895 L165.123,108.585 L117.158,162.673 Z" id="Shape" fill="#3B403D"></path>
            <path d="M6.73553,138.589 C6.73553,136.752 5.30678,135.119 3.46982,135.119 C1.42875,135.119 0,136.548 0,138.385 L0,139.813 C0,142.875 0.204107,146.141 0.816428,149.202 C1.22464,150.835 2.65339,152.06 4.28625,152.06 C4.49036,152.06 4.69446,152.06 4.89857,152.06 C6.73553,151.652 7.96018,150.019 7.55196,148.182 C6.93964,145.528 6.73553,142.671 6.73553,140.017 L6.73553,138.589 Z" id="Path" fill="#18AF7C"></path>
            <path d="M14.6958,165.531 C13.6752,163.898 11.6342,163.49 10.0013,164.51 C8.36844,165.531 7.96023,167.572 8.98077,169.205 C11.0218,172.266 13.267,174.92 15.7163,177.573 C16.3286,178.185 17.3492,178.594 18.1656,178.594 C18.982,178.594 19.7984,178.185 20.4108,177.573 C21.8395,176.348 21.8395,174.103 20.6149,172.879 C18.5738,170.633 16.5327,168.184 14.6958,165.531 Z" id="Path" fill="#18AF7C"></path>
            <path d="M11.2263,120.423 C12.4509,117.566 14.0838,114.912 16.1248,112.259 C17.1454,110.83 16.9413,108.585 15.3084,107.564 C13.8797,106.544 11.6345,106.952 10.614,108.381 C8.57289,111.442 6.73592,114.504 5.10306,117.566 C4.28664,119.199 5.10306,121.24 6.73592,122.056 C7.14413,122.26 7.75646,122.464 8.16467,122.464 C9.59342,122.464 10.8181,121.648 11.2263,120.423 Z" id="Path" fill="#18AF7C"></path>
            <path d="M66.5393,9.79714 C69.6009,10.8177 72.4584,12.2464 74.9077,14.0834 C75.5201,14.4916 76.1324,14.6957 76.7447,14.6957 C77.7652,14.6957 78.9899,14.0834 79.6022,13.267 C80.6227,11.6341 80.2145,9.59303 78.5817,8.5725 C75.5201,6.53143 72.2543,4.89857 68.7845,3.67393 C66.9476,3.06161 65.1106,3.87804 64.4983,5.715 C63.886,7.14375 64.7024,9.18482 66.5393,9.79714 Z" id="Path" fill="#18AF7C"></path>
            <path d="M88.1745,36.1269 C88.1745,37.9638 89.6033,39.5967 91.6444,39.5967 C93.4813,39.5967 95.1142,38.168 95.1142,36.1269 C95.1142,32.2488 94.2978,28.5749 92.869,24.901 C92.2567,23.064 90.2156,22.2476 88.3787,23.064 C86.5417,23.6764 85.7253,25.7174 86.5417,27.5544 C87.7663,30.4119 88.1745,33.2694 88.1745,36.1269 Z" id="Path" fill="#18AF7C"></path>
            <path d="M75.9281,64.9061 C76.5404,65.5184 77.5609,65.9267 78.3774,65.9267 C79.1938,65.9267 80.0102,65.5184 80.6225,64.9061 C83.48,62.2527 85.7252,59.5993 87.7663,56.7418 C88.7868,55.3131 88.5827,53.0679 86.9499,52.0474 C85.5211,51.0268 83.2759,51.2309 82.2554,52.8638 C80.6225,55.3131 78.3774,57.5583 75.9281,60.0075 C74.7034,61.4363 74.4993,63.6815 75.9281,64.9061 Z" id="Path" fill="#18AF7C"></path>
            <path d="M70.8254,181.86 C68.3762,183.696 65.7228,185.329 62.8653,186.35 C61.0283,186.962 60.2119,189.003 60.8242,190.636 C61.2324,192.065 62.6612,192.881 64.0899,192.881 C64.4981,192.881 64.9063,192.881 65.3146,192.677 C68.7844,191.453 72.0501,189.616 75.1117,187.166 C76.5404,185.942 76.7445,183.901 75.724,182.472 C74.4994,181.043 72.2542,180.635 70.8254,181.86 Z" id="Path" fill="#18AF7C"></path>
            <path d="M52.8641,82.6633 C53.2723,82.6633 53.8847,82.4592 54.2929,82.2551 L55.7216,81.6428 C58.5791,80.214 61.0284,78.9894 63.4777,77.5606 C65.1106,76.5401 65.7229,74.499 64.7023,72.8662 C63.6818,71.2333 61.6407,70.621 60.0079,71.6415 C57.7627,72.8661 55.3134,74.2949 52.66,75.5195 L51.2313,76.1319 C49.5984,76.9483 48.782,78.9894 49.8025,80.6222 C50.4148,81.8469 51.6395,82.6633 52.8641,82.6633 Z" id="Path" fill="#18AF7C"></path>
            <path d="M16.9411,8.57252 C13.8795,10.2054 10.8179,12.2464 7.96036,14.2875 C6.53161,15.3081 6.3275,17.5532 7.34804,18.982 C7.96036,19.7984 8.9809,20.4107 10.0014,20.4107 C10.6138,20.4107 11.4302,20.2066 12.0425,19.7984 C14.6959,17.7573 17.3493,16.1245 20.2068,14.4916 C21.8396,13.6752 22.452,11.6341 21.6355,9.79716 C20.8191,8.16430593 18.778,7.75609 16.9411,8.57252 Z" id="Path" fill="#18AF7C"></path>
            <path d="M51.0268,3.26571 C51.0268,1.42875 49.3939,0 47.557,0 C44.0872,0 40.4132,0.408214 36.9434,1.22464 C35.1065,1.63286 33.8818,3.26571 34.29,5.10268 C34.6982,6.73553 35.9229,7.75607 37.5557,7.75607 C37.7598,7.75607 37.964,7.75607 38.1681,7.75607 C41.2297,7.14375 44.4954,6.73553 47.7611,6.73553 C49.5981,6.73553 51.2309,5.10268 51.0268,3.26571 Z" id="Path" fill="#18AF7C"></path>
            <path d="M44.904,187.166 C42.0465,186.554 38.9849,185.533 36.1274,184.104 C34.4945,183.288 32.4534,184.104 31.637,185.737 C30.8206,187.37 31.637,189.411 33.2699,190.228 C36.7397,191.861 40.0054,193.085 43.4752,193.902 C43.6793,193.902 43.8834,193.902 44.2916,193.902 C45.9245,193.902 47.1491,192.881 47.5574,191.248 C47.7615,189.411 46.7409,187.574 44.904,187.166 Z" id="Path" fill="#18AF7C"></path>
            <path d="M38.168,87.3578 C37.1475,85.725 35.1064,85.5209 33.4735,86.5414 C30.4119,88.5825 27.7586,90.6235 25.1052,92.8687 C23.6764,94.0934 23.4723,96.1344 24.6969,97.5632 C25.3093,98.3796 26.3298,98.7878 27.3503,98.7878 C28.1668,98.7878 28.9832,98.5837 29.5955,97.9714 C32.0448,95.9303 34.6982,93.8892 37.3516,92.0523 C38.7803,91.0317 39.1885,88.9907 38.168,87.3578 Z" id="Path" fill="#18AF7C"></path>
        </g>
    </g>
</svg>