<?xml version="1.0" encoding="UTF-8"?>
<svg width="194px" height="194px" viewBox="0 0 194 194" version="1.1" xmlns="http://www.w3.org/2000/svg" xmlns:xlink="http://www.w3.org/1999/xlink">
    <!-- Generator: Sketch 63.1 (92452) - https://sketch.com -->
    <title>paperairplane2</title>
    <desc>Created with Sketch.</desc>
    <g id="paperairplane2" stroke="none" stroke-width="1" fill="none" fill-rule="evenodd">
        <g id="Group-44" transform="translate(55.000000, 0.000000)" fill-rule="nonzero">
            <path d="M0.21389,60.068 C0.720787,59.3076 1.48115,58.9274 2.49496,59.0542 L79.6709,73.8811 C80.558,74.0078 81.1916,74.6414 81.3184,75.5285 C81.4451,76.2889 81.1916,77.1759 80.4313,77.6828 L62.9431,90.102 L62.9431,106.703 C62.9431,107.463 62.563,108.097 61.9293,108.477 C61.5492,108.604 61.2957,108.731 60.9155,108.731 C60.5353,108.731 60.1552,108.604 59.9017,108.477 L47.3559,101.127 L41.273,105.436 C40.8929,105.689 40.5127,105.816 40.0058,105.816 C39.3721,105.816 38.8652,105.563 38.4851,105.056 L0.59407,62.349 C-0.0395584,61.8421 -0.16629,60.8283 0.21389,60.068 Z M17.9555,66.2775 L60.7888,86.5537 L74.2217,77.0492 L17.9555,66.2775 Z M58.7612,103.028 L58.7612,93.0167 L51.0309,98.4659 L58.7612,103.028 Z M40.2592,101 L56.7336,89.3416 L10.4787,67.4181 L40.2592,101 Z" id="Shape" fill="#3B403D"></path>
            <path d="M108.818,86.0467 C108.818,84.9061 109.705,83.8923 110.846,83.8923 C112.113,83.8923 113,84.7794 113,85.92 L113,86.807 C113,88.7079 112.873,90.7355 112.493,92.6364 C112.24,93.6502 111.353,94.4106 110.339,94.4106 C110.212,94.4106 110.085,94.4106 109.959,94.4106 C108.818,94.1571 108.058,93.1433 108.311,92.0028 C108.691,90.3553 108.818,88.5812 108.818,86.9338 L108.818,86.0467 Z" id="Path" fill="#18AF7C"></path>
            <path d="M103.876,102.775 C104.509,101.761 105.777,101.507 106.79,102.141 C107.804,102.775 108.058,104.042 107.424,105.056 C106.157,106.957 104.763,108.604 103.242,110.251 C102.862,110.632 102.228,110.885 101.721,110.885 C101.214,110.885 100.707,110.632 100.327,110.251 C99.4402,109.491 99.4402,108.097 100.201,107.337 C101.468,105.943 102.735,104.422 103.876,102.775 Z" id="Path" fill="#18AF7C"></path>
            <path d="M106.03,74.7682 C105.27,72.994 104.256,71.3466 102.988,69.6992 C102.355,68.8121 102.482,67.4181 103.495,66.7845 C104.382,66.1508 105.776,66.4043 106.41,67.2914 C107.677,69.1923 108.818,71.0931 109.832,72.994 C110.339,74.0078 109.832,75.2751 108.818,75.782 C108.564,75.9087 108.184,76.0354 107.931,76.0354 C107.044,76.0354 106.283,75.5285 106.03,74.7682 Z" id="Path" fill="#18AF7C"></path>
            <path d="M71.6872,6.08284 C69.7863,6.71647 68.0121,7.60355 66.4914,8.74408 C66.1112,8.99753 65.731,9.12426 65.3509,9.12426 C64.7172,9.12426 63.9569,8.74408 63.5767,8.23718 C62.9431,7.22337 63.1965,5.95611 64.2103,5.32248 C66.1112,4.05523 68.1388,3.04142 70.2932,2.28107 C71.4337,1.90089 72.5742,2.40779 72.9544,3.54832 C73.3346,4.4354 72.8277,5.70266 71.6872,6.08284 Z" id="Path" fill="#18AF7C"></path>
            <path d="M58.2543,22.4306 C58.2543,23.5711 57.3672,24.5849 56.1,24.5849 C54.9594,24.5849 53.9456,23.6979 53.9456,22.4306 C53.9456,20.0228 54.4525,17.7417 55.3396,15.4607 C55.7198,14.3201 56.987,13.8132 58.1276,14.3201 C59.2681,14.7003 59.775,15.9676 59.2681,17.1081 C58.5078,18.8823 58.2543,20.6564 58.2543,22.4306 Z" id="Path" fill="#18AF7C"></path>
            <path d="M65.8579,40.2988 C65.4777,40.6789 64.8441,40.9324 64.3372,40.9324 C63.8303,40.9324 63.3233,40.6789 62.9432,40.2988 C61.169,38.6513 59.775,37.0039 58.5078,35.2297 C57.8741,34.3426 58.0009,32.9487 59.0147,32.315 C59.9018,31.6814 61.2957,31.8081 61.9294,32.8219 C62.9432,34.3426 64.3372,35.7366 65.8579,37.2573 C66.6182,38.1444 66.7449,39.5384 65.8579,40.2988 Z" id="Path" fill="#18AF7C"></path>
            <path d="M69.026,112.913 C70.5467,114.053 72.1941,115.067 73.9683,115.701 C75.1088,116.081 75.6157,117.348 75.2355,118.362 C74.9821,119.249 74.095,119.756 73.2079,119.756 C72.9545,119.756 72.701,119.756 72.4476,119.629 C70.2932,118.869 68.2656,117.728 66.3647,116.207 C65.4777,115.447 65.3509,114.18 65.9846,113.293 C66.7449,112.406 68.1389,112.152 69.026,112.913 Z" id="Path" fill="#18AF7C"></path>
            <path d="M80.1778,51.3239 C79.9244,51.3239 79.5442,51.1971 79.2907,51.0704 L78.4036,50.6902 C76.6295,49.8032 75.1088,49.0428 73.5881,48.1557 C72.5743,47.5221 72.1941,46.2548 72.8277,45.241 C73.4613,44.2272 74.7286,43.847 75.7424,44.4807 C77.1364,45.241 78.6571,46.1281 80.3045,46.8885 L81.1916,47.2686 C82.2054,47.7755 82.7123,49.0428 82.0787,50.0566 C81.6985,50.817 80.9382,51.3239 80.1778,51.3239 Z" id="Path" fill="#18AF7C"></path>
            <path d="M102.482,5.32242 C104.382,6.33623 106.283,7.60348 108.058,8.87074 C108.945,9.50437 109.071,10.8984 108.438,11.7854 C108.058,12.2923 107.424,12.6725 106.79,12.6725 C106.41,12.6725 105.903,12.5458 105.523,12.2923 C103.876,11.0251 102.228,10.0113 100.454,8.99747 C99.4402,8.49057 99.06,7.22331 99.5669,6.08278 C100.074,5.06897037 101.341,4.81552 102.482,5.32242 Z" id="Path" fill="#18AF7C"></path>
            <path d="M81.3186,2.02761 C81.3186,0.88708 82.3324,0 83.4729,0 C85.6272,0 87.9083,0.253451 90.0626,0.760354 C91.2032,1.01381 91.9635,2.02761 91.7101,3.16814 C91.4566,4.18195 90.6963,4.81558 89.6825,4.81558 C89.5557,4.81558 89.429,4.81558 89.3023,4.81558 C87.4014,4.4354 85.3738,4.18195 83.3462,4.18195 C82.2056,4.18195 81.1918,3.16814 81.3186,2.02761 Z" id="Path" fill="#18AF7C"></path>
            <path d="M85.1201,116.208 C86.8943,115.827 88.7952,115.194 90.5693,114.307 C91.5831,113.8 92.8504,114.307 93.3573,115.32 C93.8642,116.334 93.3573,117.602 92.3435,118.108 C90.1891,119.122 88.1615,119.883 86.0072,120.389 C85.8805,120.389 85.7537,120.389 85.5003,120.389 C84.4865,120.389 83.7261,119.756 83.4727,118.742 C83.346,117.602 83.9796,116.461 85.1201,116.208 Z" id="Path" fill="#18AF7C"></path>
            <path d="M89.3022,54.2386 C89.9359,53.2248 91.2031,53.098 92.2169,53.7317 C94.1178,54.9989 95.7653,56.2662 97.4127,57.6602 C98.2998,58.4205 98.4265,59.6878 97.6661,60.5748 C97.286,61.0817 96.6523,61.3352 96.0187,61.3352 C95.5118,61.3352 95.0049,61.2085 94.6247,60.8283 C93.104,59.561 91.4566,58.2938 89.8091,57.1533 C88.9221,56.5196 88.6686,55.2524 89.3022,54.2386 Z" id="Path" fill="#18AF7C"></path>
        </g>
    </g>
</svg>