<?xml version="1.0" encoding="UTF-8"?>
<svg width="128px" height="128px" viewBox="0 0 128 128" version="1.1" xmlns="http://www.w3.org/2000/svg" xmlns:xlink="http://www.w3.org/1999/xlink">
    <!-- Generator: Sketch 63.1 (92452) - https://sketch.com -->
    <title>question</title>
    <desc>Created with Sketch.</desc>
    <g id="question" stroke="none" stroke-width="1" fill="none" fill-rule="evenodd">
        <g transform="translate(31.500000, 4.500000)" fill="#3B403D" fill-rule="nonzero" id="Shape">
            <path d="M22.6017,85.3087 C22.7086,78.9599 23.4299,73.9449 24.7657,70.2636 C26.1015,66.5824 28.8266,62.501 32.9408,58.0195 L43.4402,47.2159 C47.9285,42.1475 50.1726,36.7057 50.1726,30.8904 C50.1726,25.2885 48.7032,20.9137 45.7645,17.766 C42.8257,14.5649 38.5512,12.9644 32.9408,12.9644 C27.4908,12.9644 23.1093,14.4048 19.7965,17.2858 C16.4838,20.1668 14.8274,24.0347 14.8274,28.8897 L0,28.8897 C0.106864,20.2468 3.1792,13.2845 9.21702,8.00269 C15.3083,2.66756 23.2162,0 32.9408,0 C43.0395,0 50.894,2.72091 56.5043,8.16274 C62.1681,13.5512 65,20.967 65,30.4102 C65,39.7467 60.672,48.9498 52.016,58.0195 L43.2799,66.6624 C39.3794,70.9839 37.4291,77.1993 37.4291,85.3087 L22.6017,85.3087 Z M21.9605,110.677 C21.9605,108.276 22.6819,106.276 24.1245,104.675 C25.6206,103.021 27.8113,102.194 30.6967,102.194 C33.582,102.194 35.7727,103.021 37.2688,104.675 C38.7649,106.276 39.5129,108.276 39.5129,110.677 C39.5129,113.078 38.7649,115.079 37.2688,116.679 C35.7727,118.226 33.582,119 30.6967,119 C27.8113,119 25.6206,118.226 24.1245,116.679 C22.6819,115.079 21.9605,113.078 21.9605,110.677 Z"></path>
        </g>
    </g>
</svg>