<?xml version="1.0" encoding="UTF-8"?>
<svg width="128px" height="128px" viewBox="0 0 128 128" version="1.1" xmlns="http://www.w3.org/2000/svg" xmlns:xlink="http://www.w3.org/1999/xlink">
    <!-- Generator: Sketch 63.1 (92452) - https://sketch.com -->
    <title>question</title>
    <desc>Created with Sketch.</desc>
    <g id="question" stroke="none" stroke-width="1" fill="none" fill-rule="evenodd">
        <g id="why" transform="translate(0.000000, 15.500000)">
            <path d="M43.5298887,90.5330522 C47.0914757,90.5330522 49.9787861,87.6382348 49.9787861,84.0666104 C49.9787861,80.4951548 47.0914757,77.5999157 43.5298887,77.5999157 C39.9683017,77.5999157 37.0809913,80.4951548 37.0809913,84.0666104 C37.0809913,87.6382348 39.9683017,90.5330522 43.5298887,90.5330522 Z M43.5298887,97 C50.653147,97 56.4275991,91.2095217 56.4275991,84.0666104 C56.4275991,76.9236991 50.653147,71.1333052 43.5298887,71.1333052 C36.4066304,71.1333052 30.6321783,76.9236991 30.6321783,84.0666104 C30.6321783,91.2095217 36.4066304,97 43.5298887,97 Z" id="Shape" fill="#3B403D"></path>
            <path d="M62.5332009,56.4730626 L65.2032313,59.6246348 C69.5011748,64.6979035 75.8890043,67.9 83.0292165,67.9 C93.3890696,67.9 102.190765,61.1382565 105.252591,51.7585252 L106.262235,48.6639722 L109.343461,47.6349287 C116.076104,45.386047 120.915983,39.0139061 120.915983,31.525 C120.915983,22.1499922 113.33733,14.55 103.988217,14.55 C101.348974,14.55 98.8683043,15.1509783 96.6583913,16.2178096 L91.3065217,18.8009617 L88.2995217,13.6652757 C85.7699304,9.34413652 81.1035557,6.46666948 75.774207,6.46666948 C68.5201252,6.46666948 62.4989557,11.810973 61.4327991,18.7862009 L60.5559191,24.5229496 L54.7737913,24.2668696 C54.5208322,24.2556513 54.265933,24.25 54.0092626,24.25 C44.6600652,24.25 37.0809913,31.8499922 37.0809913,41.225 C37.0809913,50.6000078 44.6600652,58.2 54.0092626,58.2 C55.594833,58.2 57.11942,57.9831417 58.5600809,57.5813087 L62.5332009,56.4730626 Z M55.0583809,17.8065009 C54.7106148,17.7911496 54.3608243,17.7833052 54.0092626,17.7833052 C41.0984783,17.7833052 30.6321783,28.2785365 30.6321783,41.225 C30.6321783,54.1714635 41.0984783,64.6666948 54.0092626,64.6666948 C56.1845087,64.6666948 58.2903365,64.3687783 60.2883678,63.8114078 C65.7593365,70.2691617 73.9171209,74.3666948 83.0292165,74.3666948 C96.2594261,74.3666948 107.477687,65.7287183 111.381304,53.7702209 C120.668843,50.6679078 127.365217,41.8806357 127.365217,31.525 C127.365217,18.5785365 116.898496,8.08333052 103.988217,8.08333052 C100.360417,8.08333052 96.9249304,8.91210696 93.8614174,10.3911461 C90.2209652,4.17391 83.4835983,0 75.774207,0 C65.2874948,0 56.5995843,7.72304722 55.0583809,17.8065009 Z" id="Shape" fill="#3B403D"></path>
            <path d="M78.9986557,25.8666948 C75.4370687,25.8666948 72.5498426,28.7619339 72.5498426,32.3333052 L66.1009452,32.3333052 C66.1009452,25.1904783 71.8754817,19.4 78.9986557,19.4 C86.1216609,19.4 91.896113,25.1904783 91.896113,32.3333052 C91.896113,38.3597887 87.7858435,43.4234417 82.2231043,44.8592104 L82.2231043,51.7333052 L75.774207,51.7333052 L75.774207,38.8 L78.9986557,38.8 C82.560327,38.8 85.4477217,35.9047609 85.4477217,32.3333052 C85.4477217,28.7619339 82.560327,25.8666948 78.9986557,25.8666948 Z" id="Path" fill="#3B403D"></path>
            <path d="M82.2231043,58.2000843 C82.2231043,59.9858122 80.7794913,61.4333896 78.9986557,61.4333896 C77.2179043,61.4333896 75.774207,59.9858122 75.774207,58.2000843 C75.774207,56.4143565 77.2179043,54.9666948 78.9986557,54.9666948 C80.7794913,54.9666948 82.2231043,56.4143565 82.2231043,58.2000843 Z" id="Path" fill="#3B403D" fill-rule="nonzero"></path>
            <path d="M24.1832809,37.1833896 C25.9641165,37.1833896 27.4077296,35.7358122 27.4077296,33.9500843 C27.4077296,32.1643565 25.9641165,30.7166948 24.1832809,30.7166948 L11.2854861,30.7166948 C9.50473478,30.7166948 8.061088,32.1643565 8.061088,33.9500843 C8.061088,35.7358122 9.50473478,37.1833896 11.2854861,37.1833896 L24.1832809,37.1833896 Z" id="Path" fill="#18AF7C"></path>
            <path d="M40.30544,11.3166948 C42.0862757,11.3166948 43.5298887,9.86903304 43.5298887,8.08333052 C43.5298887,6.29761113 42.0862757,4.85 40.30544,4.85 L20.9588322,4.85 C19.1779965,4.85 17.7343835,6.29761113 17.7343835,8.08333052 C17.7343835,9.86903304 19.1779965,11.3166948 20.9588322,11.3166948 L40.30544,11.3166948 Z" id="Path" fill="#18AF7C"></path>
            <path d="M22.5710565,59.8166948 C24.3518922,59.8166948 25.7955052,58.369033 25.7955052,56.5833052 C25.7955052,54.7975774 24.3518922,53.35 22.5710565,53.35 L3.22443183,53.35 C1.44362991,53.35 -1.40944374e-07,54.7975774 -1.40944374e-07,56.5833052 C-1.40944374e-07,58.369033 1.44362991,59.8166948 3.22443183,59.8166948 L22.5710565,59.8166948 Z" id="Path" fill="#18AF7C"></path>
        </g>
    </g>
</svg>