<?xml version="1.0" encoding="UTF-8"?>
<svg width="51px" height="51px" viewBox="0 0 51 51" version="1.1" xmlns="http://www.w3.org/2000/svg" xmlns:xlink="http://www.w3.org/1999/xlink">
    <!-- Generator: Sketch 63.1 (92452) - https://sketch.com -->
    <title>twitter</title>
    <desc>Created with Sketch.</desc>
    <g id="twitter" stroke="none" stroke-width="1" fill="none" fill-rule="evenodd">
        <g fill="#970048" id="Shape">
            <path d="M25.5,0 C39.5738,0 51,11.4262 51,25.5 C51,39.5738 39.5738,51 25.5,51 C11.4262,51 0,39.5738 0,25.5 C0,11.4262 11.4262,0 25.5,0 Z M21.0085,39.0626 C32.2926,39.0626 38.4625,29.7123 38.4625,21.6088 C38.4625,21.3416 38.4625,21.0745 38.4497,20.82 C39.6455,19.9549 40.6887,18.8736 41.5156,17.6396 C40.4216,18.123 39.2384,18.4538 37.9917,18.6064 C39.2639,17.8431 40.2307,16.6473 40.6887,15.2099 C39.5056,15.9095 38.1953,16.4183 36.7959,16.6982 C35.6764,15.5024 34.0862,14.7646 32.318,14.7646 C28.934,14.7646 26.1862,17.5124 26.1862,20.8964 C26.1862,21.3798 26.2371,21.8504 26.3516,22.2957 C21.2503,22.0413 16.7341,19.5987 13.7064,15.884 C13.1848,16.7873 12.8795,17.8431 12.8795,18.9626 C12.8795,21.0871 13.9609,22.9699 15.6147,24.0639 C14.6096,24.0385 13.6682,23.7586 12.8413,23.3007 L12.8413,23.377 C12.8413,26.3539 14.9531,28.8218 17.7645,29.3943 C17.2557,29.5342 16.7087,29.6106 16.149,29.6106 C15.7545,29.6106 15.3729,29.5724 14.9913,29.496 C15.7673,31.9386 18.0317,33.7069 20.716,33.7577 C18.6169,35.3989 15.9709,36.3784 13.0957,36.3784 C12.5996,36.3784 12.1162,36.3529 11.6328,36.2894 C14.3171,38.0449 17.5483,39.0626 21.0085,39.0626 Z"></path>
        </g>
    </g>
</svg>