<?xml version="1.0" encoding="UTF-8"?>
<svg width="39px" height="35px" viewBox="0 0 39 35" version="1.1" xmlns="http://www.w3.org/2000/svg" xmlns:xlink="http://www.w3.org/1999/xlink">
    <!-- Generator: Sketch 63.1 (92452) - https://sketch.com -->
    <title>chat</title>
    <desc>Created with Sketch.</desc>
    <g id="Page-1" stroke="none" stroke-width="1" fill="none" fill-rule="evenodd">
        <g id="chat" fill="#434A54" fill-rule="nonzero">
            <g id="Group" transform="translate(0.950000, 0.330000)">
                <g id="Chat">
                    <path d="M18.63,15.18 L10.6053,15.18 L6.5895,17.8227 C6.47838045,17.9005265 6.34565439,17.9415509 6.21,17.9400424 C5.90739601,17.9376641 5.64162596,17.7384289 5.55452548,17.4486219 C5.46742499,17.1588148 5.57932219,16.846073 5.8305,16.6773 L10.0188,13.9173 C10.1310677,13.8418468 10.2630369,13.8010563 10.3983,13.8 L18.63,13.8 C19.7732294,13.8 20.7,12.8732294 20.7,11.73 L20.7,3.45 C20.7,2.30677057 19.7732294,1.38 18.63,1.38 L3.45,1.38 C2.30677057,1.38 1.38,2.30677057 1.38,3.45 L1.38,11.73 C1.38,12.8732294 2.30677057,13.8 3.45,13.8 L6.21,13.8 C6.59107648,13.8 6.9,14.1089235 6.9,14.49 C6.9,14.8710765 6.59107648,15.18 6.21,15.18 L3.45,15.18 C1.54461761,15.18 0,13.6353824 0,11.73 L0,3.45 C0,1.54461761 1.54461761,1.22568622e-15 3.45,1.22568622e-15 L18.63,1.22568622e-15 C20.5353824,1.22568622e-15 22.08,1.54461761 22.08,3.45 L22.08,11.73 C22.08,13.6353824 20.5353824,15.18 18.63,15.18 Z M11.04,8.97 C11.802153,8.97 12.42,8.35215295 12.42,7.59 C12.42,6.82784705 11.802153,6.21 11.04,6.21 C10.277847,6.21 9.66,6.82784705 9.66,7.59 C9.66,8.35215295 10.277847,8.97 11.04,8.97 Z M4.14,7.59 C4.14,8.35215295 4.75784705,8.97 5.52,8.97 C6.28215295,8.97 6.9,8.35215295 6.9,7.59 C6.9,6.82784705 6.28215295,6.21 5.52,6.21 C4.75784705,6.21 4.14,6.82784705 4.14,7.59 Z M17.94,7.59 C17.94,6.82784705 17.322153,6.21 16.56,6.21 C15.797847,6.21 15.18,6.82784705 15.18,7.59 C15.18,8.35215295 15.797847,8.97 16.56,8.97 C17.322153,8.97 17.94,8.35215295 17.94,7.59 Z M33.81,16.56 L18.63,16.56 C16.7246176,16.56 15.18,18.1046176 15.18,20.01 L15.18,28.29 C15.18,30.1953824 16.7246176,31.74 18.63,31.74 L26.6547,31.74 L30.6705,34.3827 C30.7816195,34.4605265 30.9143456,34.5015509 31.05,34.5000424 C31.352604,34.4976641 31.618374,34.2984289 31.7054745,34.0086219 C31.792575,33.7188148 31.6806778,33.406073 31.4295,33.2373 L27.2412,30.4773 C27.1289323,30.4018468 26.9969631,30.3610563 26.8617,30.36 L18.63,30.36 C17.4867706,30.36 16.56,29.4332294 16.56,28.29 L16.56,20.01 C16.56,18.8667706 17.4867706,17.94 18.63,17.94 L33.81,17.94 C34.9532294,17.94 35.88,18.8667706 35.88,20.01 L35.88,28.29 C35.88,29.4332294 34.9532294,30.36 33.81,30.36 L31.05,30.36 C30.6689235,30.36 30.36,30.6689235 30.36,31.05 C30.36,31.4310765 30.6689235,31.74 31.05,31.74 L33.81,31.74 C35.7153824,31.74 37.26,30.1953824 37.26,28.29 L37.26,20.01 C37.26,18.1046176 35.7153824,16.56 33.81,16.56 Z M24.84,24.15 C24.84,24.912153 25.457847,25.53 26.22,25.53 C26.982153,25.53 27.6,24.912153 27.6,24.15 C27.6,23.387847 26.982153,22.77 26.22,22.77 C25.457847,22.77 24.84,23.387847 24.84,24.15 Z M19.32,24.15 C19.32,24.912153 19.937847,25.53 20.7,25.53 C21.462153,25.53 22.08,24.912153 22.08,24.15 C22.08,23.387847 21.462153,22.77 20.7,22.77 C19.937847,22.77 19.32,23.387847 19.32,24.15 Z M31.74,25.53 C32.502153,25.53 33.12,24.912153 33.12,24.15 C33.12,23.387847 32.502153,22.77 31.74,22.77 C30.977847,22.77 30.36,23.387847 30.36,24.15 C30.36,24.912153 30.977847,25.53 31.74,25.53 Z" id="Shape"></path>
                </g>
            </g>
        </g>
    </g>
</svg>