<?xml version="1.0" encoding="UTF-8"?>
<svg width="57px" height="54px" viewBox="0 0 57 54" version="1.1" xmlns="http://www.w3.org/2000/svg" xmlns:xlink="http://www.w3.org/1999/xlink">
    <!-- Generator: Sketch 63.1 (92452) - https://sketch.com -->
    <title>hands</title>
    <desc>Created with Sketch.</desc>
    <g id="Page-1" stroke="none" stroke-width="1" fill="none" fill-rule="evenodd">
        <g id="hands" fill="#434A54" fill-rule="nonzero">
            <g id="Group" transform="translate(0.330000, 0.090000)">
                <g id="Shape">
                    <g>
                        <path d="M55.3932,41.2482 L50.9496,38.3709 C50.7426,37.2393 50.0595,34.3275 48.2172,31.3812 C47.6859,30.5256 47.1408,29.4354 46.6164,28.3866 C45.7056,26.5512 44.8431,24.8193 43.8771,23.9775 C42.5937,22.8459 41.1171,22.6596 39.9234,23.4807 C38.7987,24.2604 38.2536,25.7646 38.6883,26.9238 C38.7366,27.0549 38.916,27.4827 39.1299,28.014 L35.2797,25.668 C35.1624,25.1988 34.9347,24.7365 34.4862,24.3156 C34.2033,24.0465 33.9066,23.8464 33.6168,23.7084 L33.7548,23.5635 C34.5276,22.6596 35.5281,20.5068 33.8031,18.8715 C33.4857,18.5748 33.1614,18.3609 32.8371,18.2229 C33.1269,17.7261 33.3684,17.1258 33.3891,16.4634 C33.4098,15.6078 33.0648,14.8143 32.3817,14.1657 C31.7193,13.5309 30.9051,13.2273 30.084,13.2549 C29.463,13.2825 28.8972,13.4964 28.4142,13.7655 C28.2624,13.2963 27.9864,12.8616 27.5931,12.4821 C26.9859,11.9025 26.2614,11.6334 25.4541,11.6541 C23.8119,11.7369 22.5078,13.179 22.4112,13.3032 L12.7719,23.1702 C12.8547,22.5975 12.9168,22.1352 12.9306,21.9972 C13.0617,20.7759 12.1647,19.4442 10.8813,18.975 C9.5289,18.4713 8.142,19.0233 7.176,20.4309 C6.4515,21.4935 6.0444,23.3841 5.6097,25.3851 C5.3613,26.5305 5.106,27.7173 4.8024,28.6833 C3.7467,31.9953 3.8088,34.983 3.8847,36.1284 L0.2898,40.0131 C-0.0897,40.4202 -0.0759,41.055 0.3174,41.4414 L8.8113,49.8801 C9.0045,50.0733 9.2667,50.1768 9.5358,50.1768 C9.8118,50.1906 10.074,50.0664 10.2672,49.8732 L14.4486,45.6573 C15.6009,45.6366 18.4437,45.3054 21.0174,42.6765 C21.6039,42.0762 22.2387,41.4207 22.8873,40.7445 L27.1308,43.4079 C27.186,43.4424 32.3817,46.7958 35.949,48.9555 C39.0885,50.8668 41.9244,50.4873 43.0491,50.2182 L48.1413,53.268 C48.3,53.3646 48.4863,53.4129 48.6726,53.4129 C48.7554,53.4129 48.8382,53.406 48.921,53.3784 C49.1832,53.3094 49.4109,53.1438 49.5558,52.9092 L55.7037,42.6351 C56.0004,42.1659 55.8555,41.5449 55.3932,41.2482 Z M19.5615,41.2413 C17.0223,43.8288 14.2623,43.6011 14.1519,43.5942 C13.8414,43.5597 13.5309,43.6701 13.3101,43.8909 L9.5427,47.6859 L2.484,40.6824 L5.7132,37.191 C5.9202,36.9702 6.0168,36.6666 5.9823,36.3699 C5.9823,36.3354 5.5959,33.0096 6.7758,29.3112 C7.1139,28.2555 7.3761,27.0204 7.6383,25.8198 C7.9902,24.1776 8.3904,22.3215 8.8872,21.597 C9.3081,20.9829 9.7359,20.7483 10.1775,20.907 C10.6191,21.0726 10.9158,21.5487 10.8951,21.7695 C10.8606,22.0662 10.5156,24.4605 10.2879,26.0061 C10.2258,26.4477 10.4466,26.8824 10.8537,27.0825 C11.2539,27.2757 11.7369,27.1998 12.0474,26.8824 L23.9361,14.7177 C24.1569,14.4693 24.9228,13.7586 25.5714,13.731 C25.7163,13.7172 25.9302,13.7448 26.1924,13.9932 C26.4684,14.2554 26.5029,14.4693 26.5098,14.628 C26.5167,15.2421 25.9164,15.9735 25.6611,16.2219 L18.0711,24.5709 C17.6916,24.9918 17.7192,25.6404 18.1401,26.0268 C18.561,26.4063 19.2096,26.3856 19.596,25.9647 L28.497,16.3392 L28.497,16.3392 C28.5039,16.3323 28.5108,16.3254 28.5177,16.3116 C28.8351,15.9528 29.5389,15.3456 30.1737,15.318 C30.3462,15.318 30.6222,15.3387 30.9672,15.663 C31.3053,15.9873 31.3398,16.2426 31.3329,16.4082 C31.3191,17.0568 30.6291,17.802 30.3876,18.009 C30.36,18.0297 30.3324,18.0573 30.3117,18.0849 L29.4009,19.044 C29.394,19.0509 29.3802,19.0647 29.3733,19.0716 L21.2727,27.6 C20.8794,28.014 20.9001,28.6626 21.3141,29.0559 C21.7281,29.4492 22.3767,29.4285 22.77,29.0145 L30.8706,20.4792 C31.188,20.1756 31.7814,19.7754 32.3955,20.3619 C33.1269,21.0519 32.292,22.1076 32.2368,22.1766 L24.15,30.6981 C23.7567,31.1121 23.7774,31.7607 24.1845,32.154 C24.5985,32.5473 25.2471,32.5335 25.6404,32.1195 L31.8573,25.6059 C32.0436,25.5024 32.5542,25.3092 33.0786,25.806 C33.5616,26.2683 33.2097,26.841 33.0924,26.9928 L26.6892,33.7203 C26.6478,33.7686 22.4595,38.2812 19.5615,41.2413 Z M48.3276,50.9772 L43.7391,48.231 C43.5804,48.1344 43.3941,48.0861 43.2078,48.0861 C43.0836,48.0861 42.9663,48.1068 42.849,48.1482 C42.8214,48.1551 40.158,49.1073 37.0254,47.2029 C33.4857,45.057 28.3107,41.7174 28.2417,41.676 L24.3432,39.2334 C24.7986,38.7573 25.2333,38.2881 25.6473,37.8534 L28.8765,39.8751 C29.3595,40.1787 29.9943,40.0338 30.2979,39.5508 C30.6015,39.0678 30.4566,38.433 29.9736,38.1294 L27.0963,36.3216 C27.7587,35.6178 28.1865,35.1555 28.1934,35.1486 L28.6005,34.7208 L30.8982,36.1629 C31.3812,36.4665 32.016,36.3216 32.3196,35.8386 C32.6232,35.3556 32.4783,34.7208 31.9953,34.4172 L30.0495,33.1959 L31.7124,31.4433 L33.2166,32.4162 C33.6927,32.7198 34.3275,32.5887 34.638,32.1126 C34.9485,31.6365 34.8174,31.0017 34.3413,30.6912 L33.1683,29.9115 L34.6311,28.3728 C34.7415,28.2348 34.8519,28.0692 34.9485,27.8898 L40.7583,31.4295 C41.1378,31.6641 41.6277,31.6227 41.9658,31.3329 C42.3039,31.0431 42.4212,30.567 42.2487,30.153 C41.6484,28.7178 40.7169,26.4753 40.6134,26.2062 C40.5306,25.9923 40.7031,25.4541 41.0895,25.185 C41.469,24.9228 41.9451,25.0401 42.5109,25.53 C43.1733,26.1096 44.0151,27.8139 44.7672,29.3112 C45.3123,30.4083 45.8781,31.5399 46.4646,32.4783 C48.5208,35.7696 48.9693,39.0954 48.9762,39.1299 C49.0176,39.4266 49.1832,39.6957 49.4385,39.8613 L53.4267,42.4419 L48.3276,50.9772 Z"></path>
                        <path d="M18.3333,8.5974 C16.4772,8.5974 14.904,7.1622 14.766,5.2785 C14.6211,3.312 16.1046,1.5939 18.0711,1.449 C20.0376,1.3317 21.7626,2.7876 21.9006,4.7541 C22.0455,6.7206 20.562,8.4387 18.5955,8.5836 C18.5127,8.5974 18.423,8.5974 18.3333,8.5974 Z M18.3402,2.9877 C18.2919,2.9877 18.2367,2.9877 18.1884,2.9946 C17.0706,3.0774 16.2288,4.0503 16.3116,5.175 C16.3944,6.2997 17.3604,7.1484 18.492,7.0518 C19.0302,7.0104 19.527,6.762 19.8789,6.3549 C20.2377,5.9409 20.4102,5.4165 20.3688,4.8783 C20.286,3.8019 19.389,2.9877 18.3402,2.9877 Z"></path>
                        <path d="M39.1989,18.1677 C38.4468,18.1677 37.7361,17.8986 37.1634,17.4087 C36.5355,16.8636 36.1491,16.1046 36.087,15.2697 C36.0249,14.4348 36.294,13.6275 36.8391,12.9996 C37.3842,12.3648 38.1432,11.9853 38.9781,11.9232 C40.7031,11.7921 42.2004,13.0962 42.3246,14.8143 C42.3246,14.8143 42.3246,14.8143 42.3246,14.8143 C42.3867,15.6492 42.1176,16.4565 41.5725,17.0844 C41.0274,17.7192 40.2684,18.0987 39.4335,18.1608 C39.3507,18.1677 39.2748,18.1677 39.1989,18.1677 Z M39.2058,13.4619 C39.1644,13.4619 39.1299,13.4619 39.0885,13.4688 C38.6676,13.5033 38.2812,13.6965 38.0121,14.0139 C37.7361,14.3313 37.5981,14.7384 37.6326,15.1593 C37.6671,15.5802 37.8603,15.9666 38.1777,16.2426 C38.4951,16.5186 38.8953,16.6497 39.3231,16.6221 C39.744,16.5876 40.1304,16.3944 40.4064,16.077 C40.6824,15.7596 40.8204,15.3525 40.7859,14.9316 L40.7859,14.9316 C40.7169,14.0967 40.02,13.4619 39.2058,13.4619 Z"></path>
                        <path d="M33.8169,5.4165 C32.4852,5.4165 31.3536,4.3815 31.2501,3.036 C31.2018,2.3529 31.4226,1.6836 31.8711,1.1661 C32.3196,0.6486 32.9406,0.3312 33.6306,0.2829 C34.3068,0.2277 34.9761,0.4485 35.4936,0.897 C36.0111,1.3455 36.3285,1.9734 36.3768,2.6565 L36.3768,2.6565 C36.4803,4.071 35.4177,5.3061 34.0032,5.4096 C33.948,5.4165 33.879,5.4165 33.8169,5.4165 Z M33.8238,1.8216 C33.7962,1.8216 33.7755,1.8216 33.7479,1.8216 C33.4719,1.8423 33.2235,1.9665 33.0441,2.1735 C32.8647,2.3805 32.775,2.6427 32.7957,2.9187 C32.8371,3.4776 33.3477,3.8985 33.8928,3.864 C34.1619,3.8433 34.4103,3.7191 34.5897,3.5121 C34.7691,3.3051 34.8588,3.0429 34.8381,2.7669 L34.8381,2.7669 C34.8174,2.4909 34.6932,2.2425 34.4862,2.0631 C34.2999,1.9113 34.0653,1.8216 33.8238,1.8216 Z"></path>
                        <path d="M43.5528,8.5629 C42.9387,8.5629 42.3453,8.3421 41.8692,7.935 C41.3448,7.4865 41.0343,6.8586 40.986,6.1755 C40.9377,5.4924 41.1585,4.8231 41.607,4.3056 C42.0555,3.7812 42.6834,3.4707 43.3665,3.4224 C44.0565,3.3672 44.7189,3.5949 45.2364,4.0434 C45.7608,4.4919 46.0713,5.1198 46.1196,5.8029 C46.1679,6.486 45.9471,7.1553 45.4986,7.6728 C45.0501,8.1903 44.4222,8.5077 43.7391,8.556 C43.677,8.556 43.6149,8.5629 43.5528,8.5629 Z M43.5528,4.9542 C43.5252,4.9542 43.4976,4.9542 43.4769,4.9542 C43.2009,4.9749 42.9525,5.0991 42.7731,5.3061 C42.5937,5.5131 42.504,5.7822 42.5247,6.0513 C42.5454,6.3273 42.6696,6.5757 42.8766,6.7551 C43.0836,6.9345 43.3527,7.0242 43.6218,7.0035 C43.8978,6.9828 44.1462,6.8586 44.3256,6.6516 C44.505,6.4446 44.5947,6.1755 44.574,5.9064 C44.574,5.9064 44.574,5.9064 44.574,5.9064 C44.5533,5.6304 44.4291,5.382 44.2221,5.2026 C44.0358,5.0439 43.8012,4.9542 43.5528,4.9542 Z"></path>
                    </g>
                </g>
            </g>
        </g>
    </g>
</svg>