<?xml version="1.0" encoding="UTF-8"?>
<svg width="43px" height="43px" viewBox="0 0 43 43" version="1.1" xmlns="http://www.w3.org/2000/svg" xmlns:xlink="http://www.w3.org/1999/xlink">
    <!-- Generator: Sketch 63.1 (92452) - https://sketch.com -->
    <title>wipe</title>
    <desc>Created with Sketch.</desc>
    <g id="Page-1" stroke="none" stroke-width="1" fill="none" fill-rule="evenodd">
        <g id="wipe" fill="#434A54" fill-rule="nonzero">
            <g id="Group" transform="translate(0.880000, 0.880000)">
                <g id="clean-wiping-wipe-wet-towel">
                    <g id="Group">
                        <path d="M41.18265,16.98159 L23.805,0.207 C23.675659,0.0848034139 23.5047624,0.0162475037 23.32683,0.01518 L23.322,0.01518 L23.31441,0.01518 L23.3082,0.01518 L2.76,0.01518 L2.76,1.39518 L21.70257,1.39518 L10.3707,13.13484 C10.1066877,13.4091283 10.1147157,13.8454201 10.38864,14.10981 L12.696,16.33575 L10.8537,20.6517 C10.8149296,20.7408586 10.796091,20.8374064 10.7985,20.9346 L10.8744,25.5231 L1.38,35.3625 L0,36.7977 L0,38.778 L1.38,37.3497 L12.0681,26.2752 C12.1932851,26.1429367 12.2625076,25.9674083 12.2613,25.7853 L12.1785,21.0588 L15.3318,13.662 C15.504604,13.2432263 15.9698292,13.0271216 16.4013,13.1652 C16.4151,13.1652 16.4289,13.1721 16.4427,13.1721 C16.897538,13.3424295 17.1311611,13.8465636 16.9671,14.3037 L15.2007,19.1475 C15.092764,19.4531295 15.2121077,19.7926863 15.4875263,19.9635786 C15.7629449,20.1344708 16.1201832,20.0906245 16.3461,19.8582 L18.2643,17.8779 L17.94,17.56119 L18.26361,17.87445 L24.73788,11.17248 C25.028786,10.8675848 25.4762994,10.7710898 25.8670006,10.9290134 C26.2577019,11.0869371 26.5124677,11.4672973 26.5098,11.8887 C26.512106,12.1580734 26.407954,12.4174616 26.22,12.61044 L19.7547,19.31034 L20.74761,20.26875 L28.65363,12.07914 C29.0509469,11.6692633 29.7051035,11.6584584 30.11574,12.05499 C30.3158,12.2433068 30.4312232,12.5045097 30.4357714,12.7792214 C30.4403196,13.0539331 30.3336064,13.3188137 30.13989,13.51365 L22.23249,21.70464 L22.7286,22.1835 L23.22471,22.6665 L23.22471,22.6665 L23.55798,22.3215 L30.18198,15.46911 C30.3706007,15.2721396 30.6303397,15.1590475 30.90303,15.15516 C31.1780917,15.151842 31.4434603,15.2566515 31.64202,15.44703 C31.8436553,15.642002 31.9566165,15.911064 31.95459,16.19154 C31.9551784,16.4601186 31.8518227,16.7185078 31.66617,16.91259 L30.29652,18.32916 C30.291,18.33537 30.28341,18.33882 30.27789,18.34434 L30.2496,18.37677 L30.23028,18.39678 L24.71649,24.10998 L24.71649,24.10998 L24.71649,24.10998 L25.22985,24.60195 L25.71285,25.06494 L31.257,19.32 C31.6602142,18.9435215 32.2871656,18.9471543 32.68599,19.32828 C32.8898516,19.5224034 33.0046716,19.7919808 33.00339,20.07348 C32.9982025,20.3422052 32.8951613,20.5998083 32.71359,20.79798 L27.23499,26.46288 L19.57599,32.42448 C19.549333,32.4434636 19.5239763,32.4642099 19.50009,32.48658 L12.2268,40.02 L10.8951,41.4 L12.8133,41.4 L14.145,40.02 L20.4585,33.4857 L25.99437,29.17665 L27.76215,30.88371 C27.8916679,31.0089109 28.065013,31.0784966 28.24515,31.0776 L28.25688,31.0776 C28.4394784,31.073916 28.6131681,30.9979888 28.73988,30.86646 L41.1999,17.95656 C41.4640981,17.6824602 41.4563789,17.2461724 41.18265,16.98159 Z M28.22445,29.41194 L27.09423,28.32036 L28.1175,27.5241 C28.1459506,27.504824 28.1715077,27.4815902 28.1934,27.4551 L33.7134,21.7419 C34.6332391,20.7806641 34.6023861,19.2565232 33.6444,18.3333 C33.3814419,18.0840632 33.0649322,17.8983115 32.71911,17.79027 C33.5828673,16.8254774 33.5301624,15.350655 32.59974,14.44998 C32.3064952,14.1687896 31.9461453,13.9673547 31.55301,13.86486 C32.076975,12.8175824 31.7700794,11.5451296 30.8263182,10.8518444 C29.8825569,10.1585593 28.576554,10.2461801 27.73386,11.05932 C27.4566201,10.273993 26.7903798,9.68974904 25.9755747,9.51743248 C25.1607696,9.34511592 24.3150376,9.60960509 23.74359,10.21545 L17.61156,16.56345 L18.2643,14.7729 C18.4756537,14.1942478 18.4411368,13.5543281 18.1687663,13.0017677 C17.8963957,12.4492073 17.409874,12.0320918 16.8222,11.8473 C16.8015,11.8404 16.7877,11.8335 16.767,11.8266 C15.6617197,11.515996 14.4983526,12.0784381 14.0553,13.1376 L13.27146,14.97714 L11.84316,13.59714 L23.34615,1.67946 L39.72744,17.49495 L28.22445,29.41194 Z" id="Shape"></path>
                        <rect id="Rectangle" x="0" y="15.18" width="1.38" height="1.38"></rect>
                        <rect id="Rectangle" x="5.52" y="15.18" width="1.38" height="1.38"></rect>
                        <rect id="Rectangle" x="2.76" y="15.18" width="1.38" height="1.38"></rect>
                        <rect id="Rectangle" x="5.52" y="7.59" width="1.38" height="1.38"></rect>
                        <rect id="Rectangle" x="0" y="7.59" width="1.38" height="1.38"></rect>
                        <rect id="Rectangle" x="2.76" y="7.59" width="1.38" height="1.38"></rect>
                        <rect id="Rectangle" x="8.28" y="7.59" width="1.38" height="1.38"></rect>
                        <rect id="Rectangle" x="11.04" y="7.59" width="1.38" height="1.38"></rect>
                        <rect id="Rectangle" x="5.52" y="22.77" width="1.38" height="1.38"></rect>
                        <rect id="Rectangle" x="2.76" y="22.77" width="1.38" height="1.38"></rect>
                        <rect id="Rectangle" x="0.04278" y="22.77" width="1.33722" height="1.38"></rect>
                        <rect id="Rectangle" x="0" y="0" width="1.38" height="1.38"></rect>
                    </g>
                </g>
            </g>
        </g>
    </g>
</svg>