<svg id="Layer_1" data-name="Layer 1" xmlns="http://www.w3.org/2000/svg" viewBox="0 0 261.85 296.88"><defs><style>.cls-1{fill:#434a54;}</style></defs><title>IC icons</title><path class="cls-1" d="M255.64,0.33L249.28,0H9.26C0.07,0.5.24-.76,0,9.26V277.2c0,12.66,8.34,11.66,16,11.66s18.66,1,19-11.66V31.72H233L110.44,59.48c-11.7,4.17-8.83.66-9.08,12.57V227.39c0.19,11.23-.74,9,8.38,12.57L242.3,295.82c5.93,2.33,9.84.1,9.84,0.1,1.4-.7,9.71-5.94,9.71-6.64V7.86C261.85-.42,258.52.82,255.64,0.33ZM142.25,161.08a10.39,10.39,0,0,1-20.78,0v-1a10.39,10.39,0,0,1,20.78,0v1Z"/></svg>