<svg id="Layer_1" data-name="Layer 1" xmlns="http://www.w3.org/2000/svg" viewBox="0 0 181.94 282.32"><defs><style>.cls-1{fill:#434a54;}</style></defs><title>IC icons</title><path class="cls-1" d="M68.13,0c-3,0-8.71.85-8.71,3.88V86.2h-12V3.88c0-3-5.68-3.88-8.7-3.88S30,0.85,30,3.88V86.2H17.41V3.88c0-3-5.68-3.88-8.71-3.88S0,0.85,0,10.82V122.1c0,5.18,8.22,15,20.34,15V272.29c0,9.09,9,10,18.07,10s18.07-.94,18.07-10V137.11c12.13,0,20.34-9.83,20.34-15V10.82C76.83,0.85,71.16,0,68.13,0Z"/><path class="cls-1" d="M180.38,4.3C177.16,3,168.77,0,162.57,0c-24.1,0-41.31,34.44-41.31,82.62,0,38,9.83,68.22,26.77,80.2V272.22c0,8,10.76,9.72,18.76,9.72,10.65,0,15.15.52,15.15-20.73V6.08A2.06,2.06,0,0,0,180.38,4.3Z"/></svg>