<svg id="Layer_1" data-name="Layer 1" xmlns="http://www.w3.org/2000/svg" viewBox="0 0 258.68 274.19"><defs><style>.cls-1{fill:#434a54;}</style></defs><title>IC icons</title><path class="cls-1" d="M235.49,228.66c-28.7-17.94-58.61-33.49-58.61-33.49-4.48-2.39-9.26-7.93-10.75-16-0.3-2.39-1.94-5.82-2.24-8.22,24.16-21.26,24.7-62.24,24-77.18C203,89.35,214,83,217.37,74.22c0,0,0-18.09-33.64-20.61,0,0,1.25-39.58-25.89-51.91,0,0-26.7-4.54-63.66,1.23,0,0-27.76,7.72-24.36,50.84a38.44,38.44,0,0,0,.93,4.77S36.32,63.22,38.68,84.45C39.3,90,51.16,94.62,68.57,97.7,68.24,115,70.42,151.34,92.71,171c-0.3,2.39-1.64,4.78-2.24,7.18-1.49,8.07-4.19,14.65-8.67,17,0,0-26.79,15.55-55.49,33.49C4.78,242.12.6,242.2,0,263.42v10.76H258.68V263.42C258.08,242.2,257.32,242.12,235.49,228.66Z"/></svg>