<svg width="16" height="16" viewBox="0 0 16 16" fill="none" xmlns="http://www.w3.org/2000/svg">
<path d="M11.9958 0.00698853C11.9933 0.00698853 11.9908 0.00698853 11.9878 0.00698853C11.6723 0.00698853 11.4168 0.262989 11.4168 0.577989C11.4168 0.892989 11.6723 1.14899 11.9878 1.14899C11.9908 1.14899 11.9933 1.14899 11.9963 1.14899H14.0433L4.74135 10.451C4.63785 10.5545 4.57385 10.697 4.57385 10.855C4.57385 11.1705 4.82985 11.426 5.14485 11.426C5.30235 11.426 5.44535 11.362 5.54835 11.259L14.8503 1.95699V4.00399C14.8503 4.00649 14.8503 4.00899 14.8503 4.01199C14.8503 4.32749 15.1058 4.58299 15.4213 4.58299C15.7368 4.58299 15.9923 4.32749 15.9923 4.01199C15.9923 4.00899 15.9923 4.00649 15.9923 4.00349V4.00399V0.670989C15.9973 0.643489 15.9998 0.610988 15.9998 0.578488C15.9998 0.262988 15.7443 0.00748853 15.4288 0.00748853C15.4263 0.00748853 15.4238 0.00748853 15.4208 0.00748853H11.9953L11.9958 0.00698853ZM0.577348 3.43249C0.262348 3.43249 0.00634766 3.68799 0.00634766 4.00349V15.422C0.00634766 15.7375 0.262348 15.993 0.577348 15.993H11.9958C12.3113 15.993 12.5668 15.7375 12.5668 15.422V6.80699C12.5668 6.80449 12.5668 6.80199 12.5668 6.79899C12.5668 6.48349 12.3113 6.22799 11.9958 6.22799C11.6803 6.22799 11.4248 6.48349 11.4248 6.79899C11.4248 6.80199 11.4248 6.80449 11.4248 6.80749V6.80699V14.851H1.14785V4.57399H9.22635C9.22885 4.57399 9.23135 4.57399 9.23435 4.57399C9.54985 4.57399 9.80535 4.31849 9.80535 4.00299C9.80535 3.68749 9.54985 3.43199 9.23435 3.43199C9.23135 3.43199 9.22885 3.43199 9.22585 3.43199L0.577348 3.43249Z" fill="black"/>
</svg>
