<?xml version="1.0" encoding="UTF-8"?>
<svg width="18px" height="18px" viewBox="0 0 18 18" version="1.1" xmlns="http://www.w3.org/2000/svg" xmlns:xlink="http://www.w3.org/1999/xlink">
    <!-- Generator: Sketch 63.1 (92452) - https://sketch.com -->
    <title>Artboard</title>
    <desc>Created with Sketch.</desc>
    <g id="Artboard" stroke="none" stroke-width="1" fill="none" fill-rule="evenodd">
        <g id="hp-action" transform="translate(0.500000, 0.000000)" fill="#363636" fill-rule="nonzero">
            <path d="M1.27073,15.73796 C1.4177,15.88424 1.61021,15.95669 1.80272,15.95669 C1.99868,15.95669 2.19464,15.88217 2.34437,15.73313 L9.50795,8.56886 L10.6706,9.73151 C10.39805,10.03097 10.40081,10.49258 10.68923,10.78169 L11.37716,11.46893 C11.52068,11.61314 11.71181,11.69249 11.91536,11.69249 C11.91536,11.69249 11.91536,11.69249 11.91605,11.69249 C12.1196,11.69249 12.31073,11.61314 12.45494,11.46962 L15.89528,8.02997 C16.19267,7.73189 16.19267,7.24889 15.89528,6.9515 L15.20735,6.26357 C14.91824,5.97584 14.45663,5.97239 14.15648,6.24494 L10.40978,2.49755 C10.68233,2.19878 10.67957,1.73579 10.39115,1.44668 L9.70322,0.75875 C9.40445,0.46136 8.92145,0.46274 8.62475,0.75875 L5.18441,4.19978 C4.8884,4.49648 4.8884,4.98017 5.1851,5.27825 L5.87303,5.96549 C6.01655,6.1097 6.20768,6.18905 6.41123,6.18905 L6.41192,6.18905 C6.60443,6.18905 6.78245,6.11315 6.92321,5.98481 L8.08517,7.14608 L0.92228,14.31035 C0.62558,14.60774 0.62282,15.08936 0.91745,15.38537 L1.27073,15.73796 Z M7.31927,5.5991 L7.64012,5.27825 C7.64357,5.27411 7.64702,5.27066 7.65047,5.26652 L10.02476,2.89292 L13.76249,6.63065 L11.057,9.33545 L7.31927,5.5991 Z M14.8175,6.65411 L15.50543,7.34204 C15.58754,7.42346 15.58754,7.55801 15.50543,7.63943 L12.06509,11.07908 C12.02507,11.1191 11.97263,11.14118 11.91674,11.14118 L11.91605,11.14118 C11.86016,11.14118 11.80841,11.11979 11.76839,11.07908 L11.08046,10.39115 C10.99835,10.30973 10.99835,10.17518 11.08046,10.09376 L11.7677,9.40652 C11.77115,9.40238 11.7746,9.39893 11.77805,9.39479 L14.5208,6.65342 C14.60222,6.572 14.7347,6.57062 14.8175,6.65411 Z M6.41261,5.63774 C6.35672,5.63774 6.30428,5.61635 6.26357,5.57564 L5.57564,4.8884 C5.49353,4.80629 5.49353,4.67243 5.57564,4.59032 L9.01598,1.14998 C9.05738,1.10858 9.1112,1.08788 9.16433,1.08788 C9.21815,1.08788 9.27197,1.10858 9.31337,1.14998 L10.0013,1.83791 C10.08341,1.91933 10.08341,2.05388 10.00199,2.1353 L9.83156,2.30573 C9.83087,2.30642 9.83018,2.30642 9.82949,2.30711 C9.8288,2.3078 9.8288,2.30849 9.82811,2.30918 L6.80936,5.32724 C6.80591,5.33069 6.80177,5.33483 6.79832,5.33897 L6.73484,5.40314 C6.73415,5.40314 6.73346,5.40314 6.73277,5.40383 C6.73208,5.40452 6.73277,5.40452 6.73208,5.40521 L6.56096,5.57564 C6.52163,5.61566 6.46919,5.63774 6.41261,5.63774 Z M1.31282,14.70158 L8.4764,7.538 L9.11741,8.17901 L1.95452,15.34259 C1.8731,15.42539 1.73924,15.42746 1.66127,15.34742 L1.30799,14.99483 C1.22864,14.91479 1.23071,14.783 1.31282,14.70158 Z" id="Shape"></path>
            <path d="M15.86423,13.78457 L9.67562,13.78457 C9.52313,13.78457 9.39962,13.90877 9.39962,14.06057 L9.39962,14.92238 L8.8904,14.92238 C8.73791,14.92238 8.6144,15.04658 8.6144,15.19838 L8.6144,16.74605 C8.6144,16.89854 8.7386,17.02205 8.8904,17.02205 L16.58528,17.02205 C16.73777,17.02205 16.86128,16.89785 16.86128,16.74605 L16.86128,15.19838 C16.86128,15.04589 16.73708,14.92238 16.58528,14.92238 L16.13954,14.92238 L16.13954,14.06057 C16.14023,13.90877 16.01603,13.78457 15.86423,13.78457 Z M9.95162,14.33726 L15.58754,14.33726 L15.58754,14.92307 L9.95162,14.92307 L9.95162,14.33726 Z M16.30928,15.47576 L16.30928,16.47074 L9.16709,16.47074 L9.16709,15.47576 L16.30928,15.47576 Z" id="Shape"></path>
        </g>
    </g>
</svg>