<?xml version="1.0"?>
<svg xmlns="http://www.w3.org/2000/svg" viewBox="0 0 1493.76 567">
<style>
  /* <![CDATA[ */
    .cls-1,.cls-2,.cls-3{
      fill:none;stroke:#0a4c5e;stroke-linejoin:round;
    }

    .cls-1 {
      fill:#ffffff;
    }

    .cls-1,.cls-3{stroke-width:12px;}

    .cls-2{stroke-width:10px;}

    .cls-3{stroke-linecap:round;}

    .cls-4{fill:#0a4c5e;}
  /* ]]> */
</style>
<rect class="cls-1" x="478.26" y="6" width="1009.5" height="555" rx="26.38" ry="26.38"/>
<rect class="cls-2" x="1130.27" y="49.78" width="303.48" height="162" rx="17.31" ry="17.31"/>
<line class="cls-3" x1="232.5" y1="79" x2="418.5" y2="79"/>
<line class="cls-3" x1="129" y1="162" x2="418.5" y2="162"/>
<line class="cls-3" x1="6" y1="244" x2="418.5" y2="244"/>
<line class="cls-3" x1="6" y1="328" x2="418.5" y2="328"/>
<line class="cls-3" x1="129" y1="410" x2="418.5" y2="410"/>
<line class="cls-3" x1="232.5" y1="494" x2="418.5" y2="494"/>
<path class="cls-4" d="M550.23,98.35l8.93-17.63H569l-14.21,26.16v16.67h-9V107.17l-14.2-26.45h9.84Z"/>
<path class="cls-4" d="M613.21,102.07q0,10.64-5.27,16.35t-15.12,5.71q-9.84,0-15.11-5.71T572.43,102q0-10.69,5.29-16.34T592.88,80q9.87,0,15.11,5.69T613.21,102.07Zm-31.25,0q0,7.19,2.72,10.81t8.14,3.64q10.88,0,10.87-14.45T592.88,87.6c-3.61,0-6.34,1.22-8.17,3.65S582,97.29,582,102.07Z"/>
<path class="cls-4" d="M657,80.72v27.71a15.92,15.92,0,0,1-2.13,8.32,13.74,13.74,0,0,1-6.14,5.48,21.92,21.92,0,0,1-9.49,1.9q-8.26,0-12.83-4.23t-4.57-11.59V80.72h9.05v26.22c0,3.3.67,5.72,2,7.26s3.53,2.32,6.6,2.32,5.12-.78,6.46-2.33,2-4,2-7.31V80.72Z"/>
<path class="cls-4" d="M898.86,287.35l8.94-17.63h9.78l-14.2,26.16v16.67h-9V296.17l-14.21-26.45H890Z"/>
<path class="cls-4" d="M961.85,291.07q0,10.64-5.27,16.35t-15.12,5.71q-9.84,0-15.12-5.71T921.07,291q0-10.69,5.29-16.34T941.52,269q9.87,0,15.1,5.69T961.85,291.07Zm-31.26,0q0,7.19,2.73,10.81c1.81,2.43,4.53,3.64,8.14,3.64q10.88,0,10.87-14.45T941.52,276.6c-3.61,0-6.34,1.22-8.17,3.65S930.59,286.29,930.59,291.07Z"/>
<path class="cls-4" d="M1005.59,269.72v27.71a16,16,0,0,1-2.12,8.32,13.79,13.79,0,0,1-6.14,5.48,21.92,21.92,0,0,1-9.49,1.9q-8.26,0-12.83-4.23t-4.57-11.59V269.72h9v26.22q0,4.95,2,7.26t6.59,2.32c3,0,5.13-.78,6.46-2.33s2-4,2-7.31V269.72Z"/>
<path class="cls-4" d="M1025.16,296.11v16.44h-9.08V269.72h12.48q8.73,0,12.92,3.18t4.19,9.65a11.32,11.32,0,0,1-2.08,6.72,13.79,13.79,0,0,1-5.89,4.62q9.67,14.44,12.6,18.66h-10.08L1030,296.11Zm0-7.38h2.93q4.31,0,6.36-1.44a5.11,5.11,0,0,0,2-4.51,4.69,4.69,0,0,0-2.09-4.33q-2.1-1.29-6.49-1.29h-2.76Z"/>
<path class="cls-4" d="M811.33,377.55V334.72h9.08v35.33h17.37v7.5Z"/>
<path class="cls-4" d="M871.44,377.55l-3.1-10.2H852.72l-3.1,10.2h-9.79l15.12-43h11.1l15.18,43Zm-5.27-17.81q-4.3-13.86-4.85-15.68c-.36-1.21-.62-2.17-.78-2.87q-1,3.75-5.53,18.55Z"/>
<path class="cls-4" d="M924.62,377.55H913.07l-18.63-32.4h-.26q.55,8.58.55,12.24v20.16h-8.11V334.72h11.45l18.61,32.08h.2q-.43-8.35-.44-11.81V334.72h8.18Z"/>
<path class="cls-4" d="M970.93,355.72q0,10.57-6,16.2t-17.38,5.63H935.4V334.72h13.44q10.5,0,16.29,5.53T970.93,355.72Zm-9.43.24q0-13.8-12.19-13.8h-4.83v27.89h3.9Q961.51,370.05,961.5,356Z"/>
<path class="cls-4" d="M979.81,377.55V334.72h9.08v35.33h17.38v7.5Z"/>
<path class="cls-4" d="M1052.58,356.07q0,10.64-5.27,16.35t-15.12,5.71q-9.84,0-15.11-5.71T1011.8,356q0-10.69,5.29-16.34t15.16-5.64q9.87,0,15.11,5.69T1052.58,356.07Zm-31.25,0q0,7.19,2.72,10.81t8.14,3.64q10.88,0,10.87-14.45t-10.81-14.47q-5.41,0-8.17,3.65T1021.33,356.07Z"/>
<path class="cls-4" d="M1070.54,361.11v16.44h-9.08V334.72h12.48q8.73,0,12.92,3.18t4.19,9.65a11.32,11.32,0,0,1-2.08,6.72,13.79,13.79,0,0,1-5.89,4.62q9.68,14.44,12.6,18.66H1085.6l-10.22-16.44Zm0-7.38h2.93q4.3,0,6.36-1.44a5.11,5.11,0,0,0,2.05-4.51,4.69,4.69,0,0,0-2.09-4.33q-2.1-1.29-6.49-1.29h-2.76Z"/>
<path class="cls-4" d="M1136.61,355.72q0,10.57-6,16.2t-17.39,5.63h-12.13V334.72h13.45q10.49,0,16.29,5.53T1136.61,355.72Zm-9.44.24q0-13.8-12.18-13.8h-4.84v27.89h3.9Q1127.18,370.05,1127.17,356Z"/>
<path class="cls-4" d="M1197.79,101.45a6,6,0,0,0-5.16,2.5,11.65,11.65,0,0,0-1.83,7q0,9.31,7,9.31a22.22,22.22,0,0,0,7.1-1.46v5a19.71,19.71,0,0,1-7.65,1.42q-6.08,0-9.29-3.68t-3.22-10.58a17.22,17.22,0,0,1,1.58-7.61,11.43,11.43,0,0,1,4.54-5,13.35,13.35,0,0,1,6.94-1.75,18.82,18.82,0,0,1,8.15,2l-1.9,4.8a33.48,33.48,0,0,0-3.14-1.29A9.36,9.36,0,0,0,1197.79,101.45Z"/>
<path class="cls-4" d="M1226.85,124.77h-16V96.93h16v4.84h-10.13v6.11h9.43v4.84h-9.43v7.18h10.13Z"/>
<path class="cls-4" d="M1238.56,114.09v10.68h-5.9V96.93h8.11q5.67,0,8.4,2.07t2.72,6.27a7.38,7.38,0,0,1-1.35,4.37,8.89,8.89,0,0,1-3.83,3q6.29,9.39,8.19,12.13h-6.55l-6.65-10.68Zm0-4.8h1.91a7.31,7.31,0,0,0,4.13-.93,3.32,3.32,0,0,0,1.33-2.93,3,3,0,0,0-1.36-2.82,8.24,8.24,0,0,0-4.22-.84h-1.79Z"/>
<path class="cls-4" d="M1269.15,124.77h-5.91V101.85h-7.56V96.93h21v4.92h-7.56Z"/>
<path class="cls-4" d="M1281,124.77V96.93h5.9v27.84Z"/>
<path class="cls-4" d="M1299.71,124.77h-5.81V96.93h16v4.84h-10.15V109h9.45v4.82h-9.45Z"/>
<path class="cls-4" d="M1315.31,124.77V96.93h5.9v27.84Z"/>
<path class="cls-4" d="M1344.25,124.77h-16V96.93h16v4.84h-10.13v6.11h9.43v4.84h-9.43v7.18h10.13Z"/>
<path class="cls-4" d="M1373.16,110.59q0,6.87-3.91,10.53t-11.31,3.65h-7.88V96.93h8.74q6.81,0,10.59,3.6T1373.16,110.59Zm-6.13.15q0-9-7.93-9H1356V119.9h2.54Q1367,119.9,1367,110.74Z"/>
<path class="cls-4" d="M1250,166.77l-6.7-21.84h-.18q.38,6.67.37,8.89v13h-5.28V138.93h8l6.59,21.29h.11l7-21.29h8v27.84h-5.5V153.6c0-.63,0-1.34,0-2.16s.11-3,.26-6.47h-.17l-7.18,21.8Z"/>
<path class="cls-4" d="M1292,166.77l-2-6.62h-10.15l-2,6.62h-6.36l9.83-28h7.21l9.87,28Zm-3.43-11.57q-2.8-9-3.15-10.19c-.24-.79-.41-1.41-.51-1.87-.42,1.63-1.62,5.64-3.6,12.06Z"/>
<path class="cls-4" d="M1301.88,166.77V138.93h5.9v27.84Z"/>
<path class="cls-4" d="M1314.79,166.77V138.93h5.91v23H1332v4.87Z"/>
</svg>
