<svg id="Layer_1" data-name="Layer 1" xmlns="http://www.w3.org/2000/svg" viewBox="0 0 299 257.11"><defs><style>.cls-1{fill:#434a54;}</style></defs><title>IC icons</title><path class="cls-1" d="M295.34,146.95H55.58V39.76c0-.07.06-6.91,3.91-10.89,0.86-.88,3.46-3.58,11.1-3.58,2.44,0,7.11.59,9.66,4.53a25.87,25.87,0,0,0-1.12,5,33.79,33.79,0,0,0,4.31,20.28c1.36,2.46,3.86.65,6.31-.71L90,54.24l32.6-21.07c2.36-1.52,3.64-2,2.11-4.34l-0.2-.28a33.78,33.78,0,0,0-16.72-12.26,25.51,25.51,0,0,0-6.78-1.16C93.41,4.36,80.42,0,70.58,0,55.32,0,46.15,6.16,41.14,11.32,30.29,22.51,30,37.53,30.11,40.39V146.95H3.66C-0.4,146.95,0,159.17,0,163.22s-0.41,7.34,3.65,7.34h9.62c1.18,4.95,8.11,25.57,12.57,39.34,10.55,28.24,21.07,47.2,47.22,47.2H224.27c26.15,0,39.79-18.2,48.22-47.2,3.54-13.69,9.37-34.38,10.33-39.34h12.52c4.06,0,3.65-3.29,3.65-7.34S299.4,146.95,295.34,146.95Z"/><circle class="cls-1" cx="100.49" cy="58.53" r="3.51" transform="translate(-13.41 81.98) rotate(-41.85)"/><circle class="cls-1" cx="110.84" cy="51.03" r="3.51" transform="translate(-7.83 79.45) rotate(-38.19)"/><circle class="cls-1" cx="122.52" cy="44.05" r="3.51" transform="translate(-1.01 85.18) rotate(-38.19)"/><circle class="cls-1" cx="113.98" cy="64.55" r="3.51" transform="translate(-15.51 84.29) rotate(-38.19)"/><circle class="cls-1" cx="124.22" cy="57.22" r="3.51" transform="translate(-8.79 89.05) rotate(-38.19)"/><circle class="cls-1" cx="126.03" cy="70.28" r="3.51" transform="translate(-16.48 92.97) rotate(-38.19)"/></svg>