<svg id="Layer_1" data-name="Layer 1" xmlns="http://www.w3.org/2000/svg" viewBox="0 0 294.15 189.28"><defs><style>.cls-1{fill:#434a54;}</style></defs><title>IC icons</title><path class="cls-1" d="M269.55,74.24C256,74.24,245,77.93,245,91.49v23.16H49.16V91.49c0-13.56-11-15.16-24.58-15.16S0,77.93,0,91.49v55.08c0,13.55,11,26.68,24.58,26.68h9.67v9.26c0,5.48,7.58,6.78,13.06,6.78S62.47,188,62.47,182.5v-9.26H233.78v9.26c0,5.48,7.58,6.78,13.06,6.78S259.9,188,259.9,182.5v-9.26h9.67c13.55,0,24.58-13.13,24.58-26.68V91.49C294.13,77.93,283.1,74.24,269.55,74.24Z"/><path class="cls-1" d="M63.43,102H230.7c0-14.28-5.5-41.65,20.72-43.63-2.26-19.24-13.32-43.59-39.53-52-26.75-8.64-106.83-8.45-129.65,1-19.9,8.28-37.27,31.76-39.52,51C66.77,63.71,63.43,87.68,63.43,102Z"/></svg>