<svg id="Layer_1" data-name="Layer 1" xmlns="http://www.w3.org/2000/svg" viewBox="0 0 295.14 291.59"><defs><style>.cls-1{fill:#434a54;}</style></defs><title>IC icons</title><path class="cls-1" d="M290.47,252.49c-6.86-1.28-34.09-1.52-34.09-1.52V6.88c0-9.48-218.49-8.85-218.49,0V251s-33.35-.61-35.2,2.9c-3.61,6.84-4,37.14,1.45,37.25,31.59,0.62,254.19.62,286,0C297.19,291,296.3,253.59,290.47,252.49ZM129.65,233.22H76.23V179.8h53.42v53.42ZM130,161.1H76.59V107.68H130V161.1Zm0-74H76.59V33.64H130V87.06Zm88.68,146.16H165.27V179.8h53.42v53.42ZM219,161.1H165.62V107.68H219V161.1Zm0-74H165.62V33.64H219V87.06Z"/></svg>