<svg width="25" height="25" viewBox="0 0 25 25" fill="none" xmlns="http://www.w3.org/2000/svg">
<path d="M12.5 1.5C18.5692 1.5 23.5 6.43083 23.5 12.5C23.5 18.5692 18.5692 23.5 12.5 23.5C6.43083 23.5 1.5 18.5692 1.5 12.5C1.5 6.43083 6.43083 1.5 12.5 1.5ZM13 2.5625V7.25H16.5392C16.3281 6.53419 16.0757 5.87458 15.7892 5.29688C15.0163 3.73852 14.0347 2.79521 13 2.5625ZM12 2.5625C10.9654 2.79517 9.98381 3.73852 9.21083 5.29688C8.92429 5.87458 8.67185 6.53419 8.46083 7.25H12V2.5625ZM15.3906 2.92969C15.8787 3.45906 16.311 4.10823 16.6797 4.85156C17.0343 5.56648 17.3362 6.37467 17.5781 7.2499H21.0156C19.7467 5.19456 17.7533 3.64031 15.3906 2.92948V2.92969ZM9.60938 2.92969C7.24667 3.64038 5.25333 5.19469 3.98438 7.2501H7.42188C7.66373 6.37477 7.96573 5.56658 8.32031 4.85177C8.68896 4.10844 9.12133 3.45927 9.60938 2.9299V2.92969ZM21.5548 8.2501H17.8204C18.0668 9.41246 18.2125 10.6772 18.2423 12.0001H22.4844C22.4188 10.6625 22.0942 9.39823 21.5547 8.2501H21.5548ZM16.7969 8.2501H13V12.0001H17.2421C17.2103 10.6646 17.0539 9.39635 16.7968 8.2501H16.7969ZM12 8.2501H8.20312C7.94604 9.39627 7.78954 10.6647 7.75781 12.0001H11.9999L12 8.2501ZM7.17958 8.2501H3.44521C2.90573 9.39829 2.5811 10.6624 2.51552 12.0001H6.7576C6.78739 10.6773 6.93306 9.4124 7.17948 8.2501H7.17958ZM22.4842 13.0001H18.2421C18.2127 14.3251 18.067 15.5874 17.8202 16.7501H21.5546C22.0923 15.6036 22.4188 14.3353 22.4843 13.0001H22.4842ZM17.2421 13.0001H13V16.7501H16.7969C17.054 15.6026 17.2109 14.337 17.2422 13.0001H17.2421ZM12 13.0001H7.75792C7.78925 14.337 7.94615 15.6026 8.20323 16.7501H12.0001L12 13.0001ZM6.75792 13.0001H2.51583C2.58134 14.3352 2.90783 15.6036 3.44552 16.7501H7.1799C6.93298 15.5874 6.7874 14.3251 6.75802 13.0001H6.75792ZM21.0158 17.7501H17.5783C17.3365 18.6241 17.0345 19.4258 16.6799 20.1407C16.3112 20.8841 15.8789 21.5475 15.3908 22.0782C17.7535 21.3675 19.7469 19.8055 21.0158 17.7501ZM16.5392 17.7501H13V22.4455C14.0346 22.2129 15.0162 21.2617 15.7892 19.7034C16.0767 19.1238 16.3277 18.4689 16.5392 17.7503V17.7501ZM12 17.7501H8.46083C8.67233 18.4687 8.92331 19.1236 9.21083 19.7032C9.98371 21.2616 10.9653 22.2128 12 22.4453V17.7501ZM7.42188 17.7501H3.98438C5.25325 19.8054 7.24667 21.3676 9.60938 22.0782C9.12133 21.5475 8.68896 20.8841 8.32031 20.1407C7.96573 19.4258 7.66381 18.6241 7.42188 17.7501Z" fill="white"/>
</svg>
