<svg width="193" height="51" viewBox="0 0 193 51" fill="none" xmlns="http://www.w3.org/2000/svg">
<path d="M23.1535 27.9888C23.1535 29.5152 22.4612 30.4656 20.825 30.4656C20.1957 30.4656 19.881 30.4368 19.2832 30.3216L19 32.712C19.7237 32.8272 20.353 32.8848 21.2341 32.8848C24.5694 32.8848 26.0483 30.8976 26.0483 28.0464V15.3744H23.1535V27.9888Z" fill="#010001"/>
<path d="M38.8035 32.6544H41.541V19.2048H38.8035V27.1824C38.8035 29.4288 37.2931 30.696 34.7759 30.696C32.1327 30.696 31.2517 29.0256 31.2517 27.1824V19.2048H28.5142V27.816C28.5142 30.696 29.8357 33 33.6431 33C36.2233 33 38.1427 31.7616 38.772 29.0256H38.8035V32.6544Z" fill="#010001"/>
<path d="M49.886 33C53.8507 33 55.7386 31.3872 55.7386 28.9392C55.7386 26.8656 54.2597 25.5408 50.2321 24.9072C47.2114 24.4464 46.4562 23.7552 46.4562 22.632C46.4562 21.5088 47.4317 20.8176 49.2882 20.8176C51.239 20.8176 52.2145 21.624 52.7494 23.64L55.361 23.064C54.7003 20.4432 53.064 18.8592 49.2882 18.8592C45.6067 18.8592 43.7187 20.4432 43.7187 22.776C43.7187 24.8784 45.1347 26.1456 49.005 26.808C52.1515 27.2976 53.0326 27.8736 53.0326 28.9968C53.0011 30.2352 51.9942 31.0128 49.9175 31.0128C47.1485 31.0128 46.1416 29.6592 45.6381 27.816L43.058 28.2768C43.6873 31.0704 45.3235 33 49.886 33Z" fill="#010001"/>
<path d="M58.4093 28.6512C58.4093 31.1568 59.7623 33 62.8459 33C64.1989 33 64.9856 32.8272 65.9925 32.5392L65.6464 30.2352C64.8597 30.4368 64.1989 30.5808 63.4123 30.5808C61.7761 30.5808 61.1468 29.8032 61.1468 28.3056V21.3648H65.8352V19.2048H61.1468V15.4896H58.4093V19.2048H56.2381V21.3648H58.4093V28.6512Z" fill="#010001"/>
<path d="M79.0298 25.5408V23.0352H70.3768V17.88H80.0682V15.3744H67.4819V32.6544H70.3768V25.5408H79.0298Z" fill="#010001"/>
<path d="M85.471 17.1312V15H82.3559V17.1312H85.471ZM85.2507 32.6544V19.2048H82.5447V32.6544H85.2507Z" fill="#010001"/>
<path d="M97.822 32.6544H101V32.5968L95.9655 26.0304L100.874 19.2624V19.2048H97.8849L93.9832 24.936L89.987 19.2048H86.809V19.2624L91.7491 25.7424L86.7146 32.5968V32.6544H89.7982L93.7 26.8368L97.822 32.6544Z" fill="#010001"/>
<rect x="0.5" y="0.5" width="121" height="50" stroke="#010001"/>
<rect x="121.5" y="0.5" width="71" height="50" stroke="#010001"/>
<path d="M143.096 33.208C142.125 33.208 141.293 33.078 140.6 32.818C139.907 32.558 139.378 32.0987 139.014 31.44C138.667 30.7813 138.494 29.8367 138.494 28.606V27.67C139.118 27.67 139.742 27.67 140.366 27.67C141.007 27.67 141.64 27.67 142.264 27.67V28.918C142.264 29.4727 142.299 29.8973 142.368 30.192C142.437 30.4693 142.533 30.66 142.654 30.764C142.793 30.868 142.957 30.92 143.148 30.92C143.443 30.92 143.659 30.8073 143.798 30.582C143.954 30.3393 144.032 29.8713 144.032 29.178C144.032 28.5713 143.937 28.1293 143.746 27.852C143.573 27.5573 143.278 27.3147 142.862 27.124C142.446 26.9333 141.891 26.6993 141.198 26.422C140.574 26.1273 140.071 25.7893 139.69 25.408C139.309 25.0267 139.031 24.55 138.858 23.978C138.702 23.406 138.624 22.73 138.624 21.95C138.624 20.8927 138.763 20.0433 139.04 19.402C139.317 18.7607 139.785 18.3013 140.444 18.024C141.103 17.7293 142.013 17.582 143.174 17.582C144.647 17.582 145.765 17.894 146.528 18.518C147.291 19.1247 147.672 20.0433 147.672 21.274V23.172C147.083 23.172 146.485 23.172 145.878 23.172C145.289 23.172 144.691 23.172 144.084 23.172V22.366C144.084 21.638 144.032 21.1353 143.928 20.858C143.824 20.5807 143.581 20.442 143.2 20.442C142.871 20.442 142.645 20.5547 142.524 20.78C142.403 20.988 142.342 21.3347 142.342 21.82C142.342 22.3747 142.446 22.7993 142.654 23.094C142.879 23.3713 143.165 23.588 143.512 23.744C143.859 23.8827 144.223 24.0213 144.604 24.16C145.367 24.4547 145.982 24.758 146.45 25.07C146.935 25.3647 147.291 25.7807 147.516 26.318C147.741 26.8553 147.854 27.6267 147.854 28.632C147.854 29.776 147.663 30.686 147.282 31.362C146.901 32.0207 146.346 32.4973 145.618 32.792C144.907 33.0693 144.067 33.208 143.096 33.208ZM149.295 33L151.739 17.634H157.017L159.409 33H155.379L155.041 30.478H153.481L153.195 33H149.295ZM153.507 28.71H155.041L154.287 20.624L153.507 28.71ZM161.837 33.026C161.681 33.026 161.456 33.026 161.161 33.026C160.866 33.026 160.641 33.0173 160.485 33V30.53H161.265C161.785 30.5473 162.123 30.4693 162.279 30.296C162.452 30.1053 162.539 29.75 162.539 29.23V17.634H166.127V29.022C166.127 30.062 165.98 30.8767 165.685 31.466C165.408 32.0553 164.957 32.4627 164.333 32.688C163.709 32.9133 162.877 33.026 161.837 33.026ZM168.594 33V17.634H175.874V20.156H172.364V23.692H175.432V26.526H172.364V30.53H175.874V33H168.594Z" fill="#010001"/>
</svg>
