<svg width="120" height="27" viewBox="0 0 120 27" fill="none" xmlns="http://www.w3.org/2000/svg">
<path d="M6.07824 19.4832C6.07824 21.7728 5.0652 23.1984 2.67074 23.1984C1.7498 23.1984 1.28932 23.1552 0.414426 22.9824L0 26.568C1.05909 26.7408 1.98003 26.8272 3.26936 26.8272C8.15037 26.8272 10.3146 23.8464 10.3146 19.5696V0.561601H6.07824V19.4832Z" fill="#242323"/>
<path d="M28.9807 26.4816H32.9868V6.3072H28.9807V18.2736C28.9807 21.6432 26.7704 23.544 23.0866 23.544C19.2186 23.544 17.9293 21.0384 17.9293 18.2736V6.3072H13.9232V19.224C13.9232 23.544 15.8572 27 21.4289 27C25.2048 27 28.0137 25.1424 28.9346 21.0384H28.9807V26.4816Z" fill="#242323"/>
<path d="M45.199 27C51.001 27 53.7638 24.5808 53.7638 20.9088C53.7638 17.7984 51.5996 15.8112 45.7056 14.8608C41.285 14.1696 40.1799 13.1328 40.1799 11.448C40.1799 9.7632 41.6073 8.7264 44.3241 8.7264C47.1791 8.7264 48.6065 9.936 49.3893 12.96L53.2113 12.096C52.2443 8.1648 49.8498 5.7888 44.3241 5.7888C38.9366 5.7888 36.1738 8.1648 36.1738 11.664C36.1738 14.8176 38.2459 16.7184 43.9097 17.712C48.5144 18.4464 49.8038 19.3104 49.8038 20.9952C49.7577 22.8528 48.2842 24.0192 45.2451 24.0192C41.1929 24.0192 39.7194 21.9888 38.9826 19.224L35.2068 19.9152C36.1277 24.1056 38.5222 27 45.199 27Z" fill="#242323"/>
<path d="M57.6721 20.4768C57.6721 24.2352 59.6521 27 64.1648 27C66.1448 27 67.296 26.7408 68.7695 26.3088L68.263 22.8528C67.1118 23.1552 66.1448 23.3712 64.9936 23.3712C62.5992 23.3712 61.6782 22.2048 61.6782 19.9584V9.5472H68.5393V6.3072H61.6782V0.734401H57.6721V6.3072H54.4948V9.5472H57.6721V20.4768Z" fill="#242323"/>
<path d="M87.8486 15.8112V12.0528H75.1855V4.32H89.3681V0.561601H70.9492V26.4816H75.1855V15.8112H87.8486Z" fill="#242323"/>
<path d="M97.2746 3.1968V0H92.7159V3.1968H97.2746ZM96.9523 26.4816V6.3072H92.9922V26.4816H96.9523Z" fill="#242323"/>
<path d="M115.349 26.4816H120V26.3952L112.632 16.5456L119.816 6.3936V6.3072H115.441L109.731 14.904L103.883 6.3072H99.2327V6.3936L106.462 16.1136L99.0945 26.3952V26.4816H103.607L109.317 17.7552L115.349 26.4816Z" fill="#242323"/>
</svg>
