<svg width="23" height="23" viewBox="0 0 23 23" fill="none" xmlns="http://www.w3.org/2000/svg">
<path d="M11.5 12.5515C13.9643 12.5515 15.9685 10.5472 15.9685 8.08296C15.9685 5.6187 13.9643 3.61444 11.5 3.61444C9.03575 3.61444 7.03149 5.6187 7.03149 8.08296C7.03149 10.5472 9.03575 12.5515 11.5 12.5515ZM11.5 4.92218C13.2414 4.92218 14.6543 6.33506 14.6543 8.07645C14.6543 9.81783 13.2414 11.2307 11.5 11.2307C9.75862 11.2307 8.34575 9.81783 8.34575 8.07645C8.34575 6.34155 9.75862 4.92218 11.5 4.92218Z" fill="white"/>
<path d="M11.5 0.985718C5.70398 0.985718 0.985718 5.70398 0.985718 11.5C0.985718 14.3782 2.18827 17.1645 4.27798 19.1492C6.24294 20.9958 8.80572 22.0142 11.5 22.0142C14.1942 22.0142 16.7572 20.9956 18.722 19.1425C20.8117 17.1645 22.0142 14.3782 22.0142 11.5C22.0142 5.70398 17.296 0.985718 11.5 0.985718ZM11.5 2.29998C16.5732 2.29998 20.7 6.42675 20.7 11.5C20.7 13.7277 19.8786 15.8832 18.4262 17.5522C16.9871 15.1405 14.365 13.6225 11.5 13.6225C8.63494 13.6225 6.01275 15.1405 4.57372 17.5522C3.1214 15.8832 2.29998 13.7277 2.29998 11.5C2.29998 6.42675 6.42675 2.29998 11.5 2.29998ZM10.6522 20.6605C8.78596 20.4765 6.96572 19.7339 5.54623 18.4985C6.70942 16.3235 8.99623 14.9368 11.5 14.9368C14.0037 14.9368 16.2905 16.3233 17.4537 18.4985C15.6005 20.102 13.0837 20.8905 10.6522 20.6605Z" fill="white"/>
</svg>
