<svg width="32" height="39" viewBox="0 0 32 39" fill="none" xmlns="http://www.w3.org/2000/svg">
<path d="M4.95023 0.00206549C4.89121 -0.00190669 4.83021 0.000363113 4.76666 0.00830754C2.06552 0.326085 0 2.61437 0 5.34726V9.35096C0 9.79585 0.0632715 10.2407 0.222161 10.6856C0.984826 12.7194 2.38305 14.3718 4.19441 15.3887V33.8198C4.19441 36.2031 6.13289 38.1416 8.51618 38.1416C10.8995 38.1416 12.8377 36.2031 12.8377 33.8198V15.4519C14.9032 14.3397 16.4606 12.4966 16.9372 10.3039C17.0008 10.0815 17.0011 9.82726 17.0011 9.54126V5.34689C17.0011 2.61401 14.9673 0.325722 12.2344 0.00794443C12.012 -0.0238333 11.7893 0.0397222 11.6304 0.198611C11.4715 0.357499 11.3761 0.579943 11.3761 0.802388V7.38012L8.51615 8.74682L5.65615 7.38012V0.802388C5.65615 0.579943 5.5611 0.357499 5.40221 0.198611C5.28305 0.0794461 5.12757 0.0136173 4.95023 0.00170515V0.00206549ZM24.85 0.00830754C24.4051 0.00830754 24.0555 0.357863 24.0555 0.802787V3.98056C24.0555 4.17123 24.1191 4.36161 24.2462 4.5205L25.4855 5.88719V18.2801H21.3544C20.9095 18.2801 20.5599 18.6297 20.5599 19.0746C20.5599 19.5195 20.9094 19.8691 21.3544 19.8691H22.4665V34.1694C22.4665 36.3621 24.2461 38.1417 26.4388 38.1417C28.6315 38.1417 30.411 36.3621 30.411 34.1694V19.8691H31.2055C31.6504 19.8691 32 19.5195 32 19.0746C32 18.6297 31.6504 18.2801 31.2055 18.2801H27.0744V5.88719L28.3137 4.5205C28.4408 4.36161 28.5044 4.17123 28.5044 3.98056V0.802787C28.5044 0.357899 28.1548 0.00830754 27.7099 0.00830754H24.85ZM25.6445 1.59719H26.9156V3.66278L26.28 4.36161L25.6445 3.66278V1.59719ZM4.06757 1.78786V7.85715C4.06757 8.17493 4.22646 8.42943 4.51246 8.58829L8.16686 10.3678C8.3893 10.4632 8.64324 10.4632 8.86569 10.3678L12.5201 8.58829C12.8061 8.46118 12.9653 8.1749 12.9653 7.85715V1.78786C14.427 2.32808 15.4439 3.72656 15.4439 5.34726V9.54163C15.4439 9.70051 15.4442 9.8594 15.4124 9.98651C14.8086 12.8148 11.853 14.9438 8.51641 14.9438C5.46575 14.9438 2.76489 13.0372 1.74801 10.1454C1.65267 9.89122 1.62061 9.637 1.62061 9.35096V5.34726C1.62061 3.72663 2.6375 2.32812 4.06753 1.78786H4.06757ZM5.78357 16.0882C6.64153 16.3742 7.56312 16.5331 8.51645 16.5331C9.46978 16.5331 10.3911 16.3739 11.249 16.1197V33.8201C11.249 35.3454 10.01 36.553 8.51645 36.553C6.99112 36.553 5.78357 35.3137 5.78357 33.8201V16.0882ZM8.17311 18.4905C7.88711 18.4758 7.6902 18.4871 7.6902 18.8208V30.6109C7.6902 31.0558 8.03975 31.4053 8.48468 31.4053C8.9296 31.4053 9.27916 31.0558 9.27916 30.6109V18.8208C9.27916 18.3759 8.9296 18.503 8.48468 18.503C8.37346 18.503 8.26847 18.4956 8.17314 18.4905H8.17311ZM24.0554 19.8697H28.8221V34.1701C28.8221 35.473 27.7416 36.5533 26.4388 36.5533C25.1359 36.5533 24.0555 35.4729 24.0555 34.1701L24.0554 19.8697ZM26.2799 21.4586C25.835 21.4586 25.4854 21.8082 25.4854 22.2531V33.7563C25.4854 34.2011 25.8349 34.5507 26.2799 34.5507C26.7248 34.5507 27.0743 34.2012 27.0743 33.7563V22.2531C27.0743 21.8082 26.7248 21.4586 26.2799 21.4586ZM8.5163 32.4853C7.81719 32.4853 7.2452 33.0573 7.2452 33.7564C7.2452 34.4555 7.81719 35.0275 8.5163 35.0275C9.21541 35.0275 9.78741 34.4555 9.78741 33.7564C9.78741 33.0573 9.21541 32.4853 8.5163 32.4853ZM8.5163 33.4386C8.70697 33.4386 8.83408 33.5657 8.83408 33.7564C8.83408 33.9471 8.70697 34.0742 8.5163 34.0742C8.32564 34.0742 8.19853 33.9471 8.19853 33.7564C8.19853 33.5657 8.32564 33.4386 8.5163 33.4386Z" fill="black"/>
</svg>
