<?xml version="1.0" encoding="UTF-8"?>
<svg width="200px" height="200px" viewBox="0 0 200 200" version="1.1" xmlns="http://www.w3.org/2000/svg" xmlns:xlink="http://www.w3.org/1999/xlink">
    <!-- Generator: Sketch 56.2 (81672) - https://sketch.com -->
    <title>Judge Gavel Icon</title>
    <desc>Created with Sketch.</desc>
    <g id="Judge-Gavel-Icon" stroke="none" stroke-width="1" fill="none" fill-rule="evenodd">
        <g id="noun_Gavel_2117417" fill="#363636">
            <g id="Group" transform="translate(0.575284, 0.355114)">
                <g id="Shape">
                    <g>
                        <path d="M120.06392,82.3295455 C116.143466,87.2301136 117.613636,94.0909091 121.044034,97.5213068 L126.434659,102.911932 C132.805398,108.792614 140.646307,104.872159 142.606534,102.911932 L167.109375,78.8991477 C170.049716,75.9588068 172.5,68.1178977 167.109375,62.2372159 L161.71875,57.3366477 C157.308239,52.9261364 150.447443,52.9261364 146.036932,56.8465909 L112.713068,24.0127841 C115.653409,20.5823864 117.613636,13.7215909 112.223011,8.33096591 L106.832386,3.43039773 C102.421875,-0.980113636 94.5809659,-0.980113636 90.6605114,3.43039773 L66.1576705,27.4431818 C61.2571023,32.34375 62.2372159,39.6946023 66.1576705,43.6150568 L72.0383523,48.515625 C77.4289773,54.3963068 83.7997159,51.9460227 86.7400568,49.4957386 L93.1107955,55.3764205 L1.47017045,146.526989 C1.16573418e-15,147.997159 1.16573418e-15,149.957386 1.47017045,151.427557 L17.1519886,167.109375 C18.6221591,168.579545 20.5823864,168.579545 22.0525568,167.109375 L113.693182,75.9588068 L120.06392,82.3295455 Z M151.427557,62.7272727 C152.40767,61.7471591 154.367898,61.7471591 155.838068,63.2173295 L161.71875,68.6079545 C162.698864,69.5880682 162.698864,71.0582386 161.71875,72.0383523 L137.215909,96.5411932 C136.235795,97.5213068 133.785511,97.5213068 132.805398,96.5411932 L126.924716,91.1505682 C126.434659,90.1704545 125.454545,88.7002841 126.924716,86.7400568 L151.427557,62.7272727 Z M140.15625,62.2372159 L125.944602,76.4488636 L93.1107955,44.1051136 L107.8125,29.4034091 L140.15625,62.2372159 Z M82.3295455,42.1448864 C81.3494318,43.6150568 78.8991477,43.6150568 77.9190341,42.1448864 L72.0383523,37.2443182 C71.5482955,36.2642045 70.5681818,34.3039773 72.0383523,32.8338068 L96.5411932,8.82102273 C97.5213068,7.84090909 99.4815341,7.84090909 101.441761,9.31107955 L106.832386,14.2116477 C107.8125,15.6818182 107.8125,17.1519886 106.832386,18.1321023 L82.3295455,42.1448864 Z M20.0923295,157.308239 L10.78125,148.977273 L98.9914773,61.2571023 L107.8125,70.078125 L20.0923295,157.308239 Z"></path>
                        <path d="M181.321023,134.765625 L181.321023,118.59375 C181.321023,115.163352 178.380682,112.223011 174.460227,112.223011 L111.242898,112.223011 C107.322443,112.223011 104.382102,115.163352 104.382102,118.59375 L104.382102,134.765625 L93.1107955,134.765625 C89.1903409,134.765625 86.25,137.705966 86.25,141.62642 L86.25,166.129261 L198.963068,166.129261 L198.963068,141.62642 C198.963068,137.705966 196.022727,134.765625 192.102273,134.765625 L181.321023,134.765625 Z M112.713068,120.06392 L172.990057,120.06392 L172.990057,134.765625 L112.713068,134.765625 L112.713068,120.06392 Z M191.122159,157.308239 L95.0710227,157.308239 L95.0710227,143.586648 L191.122159,143.586648 L191.122159,157.308239 Z"></path>
                    </g>
                </g>
            </g>
        </g>
    </g>
</svg>