<?xml version="1.0" encoding="UTF-8"?>
<svg width="200px" height="200px" viewBox="0 0 200 200" version="1.1" xmlns="http://www.w3.org/2000/svg" xmlns:xlink="http://www.w3.org/1999/xlink">
    <!-- Generator: Sketch 56.2 (81672) - https://sketch.com -->
    <title>Letter Icon</title>
    <desc>Created with Sketch.</desc>
    <g id="Letter-Icon" stroke="none" stroke-width="1" fill="none" fill-rule="evenodd">
        <g id="noun_Letter_2341413" fill="#363636" fill-rule="nonzero">
            <g id="Group">
                <g>
                    <g transform="translate(0.000000, 0.187994)">
                        <path d="M99.5822218,0.367428392 C98.7001474,0.401735157 97.8510165,0.711689132 97.1542652,1.25369418 L71.1681293,21.4646754 L36.4265134,21.4646754 C34.093753,21.4626303 32.2015254,23.3530112 32.2012933,25.6857737 L32.2012933,51.1030511 L2.13421233,75.1558902 C1.13299464,75.9575844 0.550560329,77.1709898 0.551300498,78.4536232 L0.551300498,193.76298 C-0.0498311635,196.705457 2.52707733,199.316869 5.47728919,198.754922 L194.029294,198.754922 C196.985201,199.311725 199.558524,196.68659 198.942916,193.742368 L198.942916,78.4536232 C198.942796,77.1517078 198.341971,75.9226759 197.314662,75.1229129 L167.280558,51.7625977 L167.280558,25.6857737 C167.280326,23.3546215 165.390612,21.4649076 163.05946,21.4646754 L128.326088,21.4646754 L102.339952,1.25369418 C101.554004,0.642273172 100.577221,0.328359807 99.5822218,0.367428392 Z M99.7471085,9.93085403 L114.574541,21.4646754 L84.9155539,21.4646754 L99.7471085,9.93085403 Z M40.6476116,29.9068719 L158.83424,29.9068719 L158.83424,78.4536232 C158.83424,84.0845007 167.280558,84.0845007 167.280558,78.4536232 L167.280558,62.4554964 L187.178254,77.9342297 L99.7429866,128.4184 L12.2417639,77.8847648 L32.2012933,61.9196153 L32.2012933,78.4536232 C32.2012933,84.0845007 40.6476116,84.0845007 40.6476116,78.4536232 L40.6476116,29.9068719 Z M8.99349692,85.7663466 L97.6406813,136.938919 C98.9467165,137.692857 100.555744,137.692857 101.86178,136.938919 L190.50072,85.7704685 L190.50072,185.526891 L134.109486,138.530074 C133.354275,137.883746 132.39521,137.524645 131.401223,137.516021 C127.415097,137.488373 125.615058,142.492138 128.705326,145.010119 L183.064331,190.312726 L16.4340077,190.312726 L70.7930129,145.010119 C73.9372985,142.453608 72.0231085,137.365898 67.9734502,137.516021 C67.0222257,137.552955 66.1114098,137.910316 65.3888528,138.530074 L8.99349692,185.531013 L8.99349692,85.7663466 Z" id="Shape"></path>
                        <path d="M89.1943642,42.5733584 C86.8625286,42.5733584 84.9722023,44.4636846 84.9722023,46.7955202 C84.9722023,49.1273558 86.8625286,51.0176821 89.1943642,51.0176821 L110.305046,51.0176821 C112.636881,51.0176821 114.527208,49.1273558 114.527208,46.7955202 C114.527208,44.4636846 112.636881,42.5733584 110.305046,42.5733584 L89.1943642,42.5733584 Z" id="Path"></path>
                        <path d="M57.5361272,63.6840879 C55.2043136,63.6840879 53.3140052,65.5743963 53.3140052,67.9062098 C53.3140052,70.2380234 55.2043136,72.1283318 57.5361272,72.1283318 L141.963283,72.1283318 C144.295096,72.1283318 146.185405,70.2380234 146.185405,67.9062098 C146.185405,65.5743963 144.295096,63.6840879 141.963283,63.6840879 L57.5361272,63.6840879 Z" id="Path"></path>
                        <path d="M57.5361272,84.7791827 C55.2043136,84.7791827 53.3140052,86.6694911 53.3140052,89.0013046 C53.3140052,91.3331182 55.2043136,93.2234266 57.5361272,93.2234266 L141.963283,93.2234266 C144.295096,93.2234266 146.185405,91.3331182 146.185405,89.0013046 C146.185405,86.6694911 144.295096,84.7791827 141.963283,84.7791827 L57.5361272,84.7791827 Z" id="Path"></path>
                    </g>
                </g>
            </g>
        </g>
    </g>
</svg>