<?xml version="1.0" encoding="UTF-8"?>
<svg width="200px" height="200px" viewBox="0 0 200 200" version="1.1" xmlns="http://www.w3.org/2000/svg" xmlns:xlink="http://www.w3.org/1999/xlink">
    <!-- Generator: Sketch 56.2 (81672) - https://sketch.com -->
    <title>Network Icon</title>
    <desc>Created with Sketch.</desc>
    <g id="Network-Icon" stroke="none" stroke-width="1" fill="none" fill-rule="evenodd">
        <g id="noun_Network_2331699" transform="translate(0.416000, 0.000000)" fill="#363636" fill-rule="nonzero">
            <g id="Group" transform="translate(0.996124, 0.000000)">
                <g id="Shape">
                    <path d="M174.8736,43.7184 C186.918019,43.7184 196.7328,33.9036192 196.7328,21.8592 C196.7328,9.8147808 186.918019,0 174.8736,0 C162.829181,0 153.0144,9.8147808 153.0144,21.8592 C153.0144,26.3184768 154.347811,30.4498656 156.643027,33.9036192 L116.66255,73.884096 C111.547498,70.058736 105.230189,67.76352 98.3664,67.76352 C92.2895424,67.76352 86.6280096,69.5778336 81.862704,72.6381216 L54.429408,40.986 C55.9376928,38.6252064 56.83392,35.8053696 56.83392,32.7888 C56.83392,24.3511488 49.9701312,17.48736 41.53248,17.48736 C33.0948288,17.48736 26.23104,24.3511488 26.23104,32.7888 C26.23104,41.2264512 33.0948288,48.09024 41.53248,48.09024 C43.7839776,48.09024 45.90432,47.5874784 47.8279296,46.7131104 L75.2612256,78.365232 C70.605216,83.7425952 67.76352,90.71568 67.76352,98.3664 C67.76352,104.574413 69.621552,110.345242 72.8129952,115.154266 L34.97472,148.686278 C31.3023744,145.932019 26.77752,144.27072 21.8592,144.27072 C9.8147808,144.27072 0,154.085501 0,166.12992 C0,178.174339 9.8147808,187.98912 21.8592,187.98912 C33.9036192,187.98912 43.7184,178.174339 43.7184,166.12992 C43.7184,162.151546 42.62544,158.435482 40.767408,155.222179 L78.6056832,121.712026 C82.8900864,125.340653 88.1800128,127.788883 93.99456,128.619533 L93.99456,153.451584 C84.0267648,155.48449 76.5072,164.315606 76.5072,174.8736 C76.5072,186.918019 86.3219808,196.7328 98.3664,196.7328 C110.410819,196.7328 120.2256,186.918019 120.2256,174.8736 C120.2256,164.315606 112.706035,155.48449 102.73824,153.451584 L102.73824,128.619533 C109.84248,127.59215 116.159789,124.138397 120.815798,119.110781 L153.757613,141.756912 C153.27671,143.243338 153.0144,144.8172 153.0144,146.45664 C153.0144,154.894291 159.878189,161.75808 168.31584,161.75808 C176.753491,161.75808 183.61728,154.894291 183.61728,146.45664 C183.61728,138.018989 176.753491,131.1552 168.31584,131.1552 C164.687213,131.1552 161.342755,132.423034 158.719651,134.565235 L125.777837,111.897245 C127.788883,107.809574 128.96928,103.219142 128.96928,98.3664 C128.96928,91.5026112 126.674064,85.1853024 122.848704,80.0702496 L162.829181,40.0897728 C166.282934,42.3849888 170.414323,43.7184 174.8736,43.7184 Z M41.53248,39.34656 C37.925712,39.34656 34.97472,36.395568 34.97472,32.7888 C34.97472,29.182032 37.925712,26.23104 41.53248,26.23104 C45.139248,26.23104 48.09024,29.182032 48.09024,32.7888 C48.09024,36.395568 45.139248,39.34656 41.53248,39.34656 Z M21.8592,179.24544 C14.6238048,179.24544 8.74368,173.365315 8.74368,166.12992 C8.74368,158.894525 14.6238048,153.0144 21.8592,153.0144 C29.0945952,153.0144 34.97472,158.894525 34.97472,166.12992 C34.97472,173.365315 29.0945952,179.24544 21.8592,179.24544 Z M111.48192,174.8736 C111.48192,182.108995 105.601795,187.98912 98.3664,187.98912 C91.1310048,187.98912 85.25088,182.108995 85.25088,174.8736 C85.25088,167.638205 91.1310048,161.75808 98.3664,161.75808 C105.601795,161.75808 111.48192,167.638205 111.48192,174.8736 Z M98.3664,120.2256 C86.3219808,120.2256 76.5072,110.410819 76.5072,98.3664 C76.5072,86.3219808 86.3219808,76.5072 98.3664,76.5072 C110.410819,76.5072 120.2256,86.3219808 120.2256,98.3664 C120.2256,110.410819 110.410819,120.2256 98.3664,120.2256 Z M168.31584,139.89888 C171.922608,139.89888 174.8736,142.849872 174.8736,146.45664 C174.8736,150.063408 171.922608,153.0144 168.31584,153.0144 C164.709072,153.0144 161.75808,150.063408 161.75808,146.45664 C161.75808,142.849872 164.709072,139.89888 168.31584,139.89888 Z M174.8736,8.74368 C182.108995,8.74368 187.98912,14.6238048 187.98912,21.8592 C187.98912,29.0945952 182.108995,34.97472 174.8736,34.97472 C167.638205,34.97472 161.75808,29.0945952 161.75808,21.8592 C161.75808,14.6238048 167.638205,8.74368 174.8736,8.74368 Z"></path>
                </g>
            </g>
        </g>
    </g>
</svg>