<?xml version="1.0" encoding="UTF-8"?>
<svg width="200px" height="200px" viewBox="0 0 200 200" version="1.1" xmlns="http://www.w3.org/2000/svg" xmlns:xlink="http://www.w3.org/1999/xlink">
    <!-- Generator: Sketch 56.2 (81672) - https://sketch.com -->
    <title>Rent Icon</title>
    <desc>Created with Sketch.</desc>
    <g id="Rent-Icon" stroke="none" stroke-width="1" fill="none" fill-rule="evenodd">
        <g id="noun_rent_1839709" transform="translate(2.000000, 3.000000)" fill="#363636" fill-rule="nonzero">
            <g id="Group" transform="translate(0.964655, 0.215690)">
                <g>
                    <g>
                        <path d="M10.1354695,170.318934 L47.0146252,170.318934 C52.602376,170.318934 57.1479414,165.773369 57.1479414,160.183465 L57.1479414,160.127479 L92.442286,171.815461 C97.7113521,173.561768 103.141914,174.427384 108.557403,174.427384 C116.100328,174.427384 123.610954,172.745676 130.609101,169.408098 L185.801868,142.412479 C189.223423,140.739384 191.787974,137.834614 193.023955,134.230031 C194.259935,130.625447 194.016615,126.760317 192.341366,123.336608 C188.889665,116.291089 180.34762,113.354021 173.289182,116.794956 L141.75661,132.180112 C140.201945,125.739664 134.405326,120.935706 127.495464,120.935706 L105.437306,120.935706 L97.6424472,116.77773 C90.2437914,112.832928 81.9063072,110.748557 73.5279109,110.748557 L57.1479414,110.748557 L57.1479414,110.500931 C57.1479414,104.91318 52.602376,100.365461 47.0146252,100.365461 L10.1354695,100.365461 C4.54556534,100.367614 0,104.91318 0,110.500931 L0,160.183465 C0,165.773369 4.54556534,170.318934 10.1354695,170.318934 Z M73.5279109,119.361661 C80.4980648,119.361661 87.4359197,121.097201 93.5878288,124.37664 L102.340895,129.044942 C102.392574,129.072935 102.446406,129.081548 102.500238,129.105234 C102.689726,129.197825 102.887827,129.268883 103.092388,129.333481 C103.206512,129.370087 103.318482,129.413153 103.434759,129.438992 C103.637167,129.484211 103.846035,129.499284 104.059209,129.514357 C104.160413,129.520816 104.263771,129.550962 104.364974,129.550962 C104.380047,129.550962 104.39512,129.544502 104.412347,129.544502 L127.495464,129.544502 C130.843808,129.544502 133.567702,132.268396 133.567702,135.633967 C133.567702,138.982311 130.841654,141.706204 127.495464,141.706204 L95.1941726,141.706204 C92.816956,141.706204 90.8876209,143.63554 90.8876209,146.012756 C90.8876209,148.389973 92.816956,150.319308 95.1941726,150.319308 L127.495464,150.319308 C133.169346,150.319308 138.089581,147.080781 140.535702,142.354341 L177.066027,124.533829 C179.858826,123.170806 183.241623,124.335728 184.606799,127.122067 C185.270008,128.476478 185.364753,130.007457 184.875959,131.432925 C184.387165,132.858394 183.372972,134.008243 182.018562,134.671452 L126.862401,161.651999 C116.899193,166.404279 105.639714,167.112706 95.1489538,163.639472 L57.1479414,151.055728 L57.1479414,119.361661 L73.5279109,119.361661 Z M8.61310345,110.500931 C8.61310345,109.661153 9.2956919,108.978565 10.1354695,108.978565 L47.0146252,108.978565 C47.8544028,108.978565 48.5348379,109.661153 48.5348379,110.500931 L48.5348379,160.183465 C48.5348379,161.023242 47.8544028,161.705831 47.0146252,161.705831 L10.1354695,161.705831 C9.2956919,161.705831 8.61310345,161.023242 8.61310345,160.183465 L8.61310345,110.500931 Z" id="Shape"></path>
                        <path d="M171.499809,114.243324 C173.877026,114.243324 175.806361,112.313989 175.806361,109.936772 L175.806361,58.6543545 L181.587907,63.6413414 C183.388045,65.1960066 186.107633,64.9957519 187.660145,63.19346 C189.21481,61.3933214 189.014555,58.673734 187.214417,57.1190688 L122.40512,1.20280121 C120.785856,-0.192521552 118.393567,-0.190368276 116.77861,1.20280121 L51.9800793,57.1233753 C50.1799407,58.6780405 49.979686,61.3954747 51.5343512,63.1977666 C52.3870484,64.1839669 53.5864231,64.6899867 54.7965641,64.6899867 C55.7935309,64.6899867 56.7948041,64.3454626 57.6087424,63.6434947 L63.3989012,58.6457414 L63.3989012,103.476945 C63.3989012,105.854161 65.3282364,107.783497 67.7054529,107.783497 C70.0826695,107.783497 72.0120047,105.854161 72.0120047,103.476945 L72.0120047,51.2104798 L119.592941,10.1518157 L167.195411,51.2233995 L167.195411,109.936772 C167.193258,112.313989 169.122593,114.243324 171.499809,114.243324 Z" id="Path"></path>
                        <path d="M115.290696,53.2797779 L115.290696,56.3525026 C109.6405,57.9674595 105.540663,62.6680607 105.540663,68.2062862 C105.540663,75.0730829 111.847608,80.6629871 119.597248,80.6629871 C122.547236,80.6629871 125.040729,82.4222134 125.040729,84.5065845 C125.040729,86.5909555 122.547236,88.3501819 119.597248,88.3501819 C116.862588,88.3501819 114.879421,86.8902609 114.330335,85.4497193 C113.481944,83.2253853 110.988451,82.1099884 108.77273,82.9562259 C106.550549,83.8024633 105.435153,86.2894969 106.28139,88.5138309 C107.730545,92.3208226 111.124107,95.1825262 115.292849,96.3646747 L115.292849,99.4330928 C115.292849,101.810309 117.222185,103.739644 119.599401,103.739644 C121.976618,103.739644 123.905953,101.810309 123.905953,99.4330928 L123.905953,96.3603681 C129.556149,94.7454112 133.655986,90.04481 133.655986,84.5087378 C133.655986,77.641941 127.349041,72.0520369 119.599401,72.0520369 C116.649413,72.0520369 114.15592,70.2928105 114.15592,68.2084395 C114.15592,66.1240684 116.649413,64.3648421 119.599401,64.3648421 C122.547236,64.3648421 124.562702,66.0099448 124.958905,67.5581502 C125.551056,69.8600021 127.891667,71.2531716 130.204285,70.6567141 C132.506137,70.0645633 133.895,67.7174926 133.302849,65.4134874 C132.172379,61.0164981 128.539803,57.6703074 123.905953,56.363269 L123.905953,53.2797779 C123.905953,50.9025614 121.976618,48.9732262 119.599401,48.9732262 C117.222185,48.9732262 115.290696,50.9025614 115.290696,53.2797779 Z" id="Path"></path>
                        <path d="M77.7698643,76.3564353 C77.7698643,99.4180198 96.5335102,118.181666 119.597248,118.181666 C142.660986,118.181666 161.424632,99.4180198 161.424632,76.3564353 C161.424632,53.2926976 142.660986,34.5290517 119.597248,34.5290517 C96.5335102,34.5290517 77.7698643,53.2926976 77.7698643,76.3564353 Z M152.811528,76.3564353 C152.811528,94.6700466 137.910859,109.568562 119.597248,109.568562 C101.283637,109.568562 86.3829678,94.6700466 86.3829678,76.3564353 C86.3829678,58.0428241 101.283637,43.1421552 119.597248,43.1421552 C137.910859,43.1421552 152.811528,58.0406709 152.811528,76.3564353 Z" id="Shape"></path>
                    </g>
                </g>
            </g>
        </g>
    </g>
</svg>