<?xml version="1.0" encoding="UTF-8"?>
<svg width="200px" height="200px" viewBox="0 0 200 200" version="1.1" xmlns="http://www.w3.org/2000/svg" xmlns:xlink="http://www.w3.org/1999/xlink">
    <!-- Generator: Sketch 56.2 (81672) - https://sketch.com -->
    <title>Rent Icon Paper with Money</title>
    <desc>Created with Sketch.</desc>
    <g id="Rent-Icon-Paper-with-Money" stroke="none" stroke-width="1" fill="none" fill-rule="evenodd">
        <g id="Group" transform="translate(0.000000, 1.500000)" fill="#363636" fill-rule="nonzero" stroke="#363636">
            <g id="Ресурс-60" transform="translate(0.000000, 0.440678)">
                <g id="Group">
                    <path d="M170.46839,125.636766 L108.030407,125.636766 C105.801432,125.636766 103.994492,127.443707 103.994492,129.672681 C103.994492,131.901656 105.801432,133.708597 108.030407,133.708597 L170.46839,133.708597 C172.697364,133.708597 174.504305,131.901656 174.504305,129.672681 C174.504305,127.443707 172.697364,125.636766 170.46839,125.636766 Z" id="Path"></path>
                    <path d="M170.46839,141.780427 L108.030407,141.780427 C105.801432,141.780427 103.994492,143.587368 103.994492,145.816342 C103.994492,148.045317 105.801432,149.852258 108.030407,149.852258 L170.46839,149.852258 C172.697364,149.852258 174.504305,148.045317 174.504305,145.816342 C174.504305,143.587368 172.697364,141.780427 170.46839,141.780427 Z" id="Path"></path>
                    <path d="M197.770169,72.7900169 L197.770169,72.7900169 L197.770169,72.7900169 L197.770169,72.7900169 L163.726037,38.7458847 L163.726037,38.7458847 C162.943168,37.9318391 161.864103,37.4693828 160.734712,37.4638881 L91.3169695,37.4638881 C84.9185017,37.4638881 79.7315186,42.6508712 79.7315186,49.049339 L79.7315186,172.500864 C79.7315186,178.899332 84.9185017,184.086315 91.3169695,184.086315 L187.27679,184.086315 C193.675258,184.086315 198.862241,178.899332 198.862241,172.500864 L198.862241,75.5439356 C198.851232,74.5225132 198.462166,73.5413924 197.770169,72.7900169 L197.770169,72.7900169 Z M187.27679,175.872041 L91.3169695,175.872041 C89.3764506,175.872041 87.8033492,174.298939 87.8033492,172.35842 L87.8033492,48.9068949 C87.8033492,46.966376 89.3764506,45.3932746 91.3169695,45.3932746 L158.93042,45.3932746 L190.79041,77.2532644 L158.977902,77.2532644 L158.977902,57.5010203 C158.977902,55.2720459 157.170961,53.4651051 154.941986,53.4651051 C152.713012,53.4651051 150.906071,55.2720459 150.906071,57.5010203 L150.906071,81.2416983 C150.906071,82.3120896 151.331282,83.3386404 152.088163,84.0955213 C152.845044,84.8524023 153.871595,85.2776136 154.941986,85.2776136 L190.79041,85.2776136 L190.79041,172.35842 C190.79041,174.298939 189.217309,175.872041 187.27679,175.872041 L187.27679,175.872041 Z" id="Shape"></path>
                    <path d="M67.6237729,105.552153 L67.6237729,105.552153 C43.8665176,110.706982 19.9179463,97.6819404 11.3343155,74.9376943 C2.75068475,52.1934482 12.1222496,26.5934569 33.3615293,14.7666887 C54.600809,2.93992049 81.2984934,8.45530174 96.1125864,27.7302102 L96.1125864,27.7302102 C97.4930734,29.4673038 100.016925,29.7642276 101.762868,28.3949492 C103.453524,27.1503684 103.907711,24.8174998 102.807458,23.0295559 C85.8275662,0.739052429 55.1604848,-5.89652534 30.4846328,7.38073298 C5.80878089,20.6579913 -5.55028999,49.9064491 3.69629647,76.3579878 C12.9428829,102.809526 40.0500809,118.611444 67.6237729,113.623983 L67.6237729,113.623983 C69.8527473,113.623983 71.6596881,111.817042 71.6596881,109.588068 C71.6596881,107.359093 69.8527473,105.552153 67.6237729,105.552153 L67.6237729,105.552153 Z" id="Path"></path>
                    <path d="M61.3562339,17.0469051 C61.3562339,14.8179306 59.5492931,13.0109898 57.3203186,13.0109898 C55.0913442,13.0109898 53.2844034,14.8179306 53.2844034,17.0469051 L53.2844034,55.8391729 L37.3306678,71.7929085 C36.2104825,72.7884249 35.7341411,74.3226657 36.0935404,75.7775541 C36.4529396,77.2324425 37.5888964,78.3683994 39.0437849,78.7277986 C40.4986733,79.0871979 42.0329141,78.6108565 43.0284305,77.4906712 L60.0742373,60.2074576 C60.8434415,59.4410036 61.2713428,58.3969243 61.2612712,57.3110949 L61.2612712,57.3110949 L61.3562339,17.0469051 Z" id="Path"></path>
                </g>
            </g>
        </g>
        <path d="M115.214359,65.1233479 L115.214359,68.0969659 C109.850945,69.6598345 105.959199,74.208824 105.959199,79.5684214 C105.959199,86.2137387 111.946029,91.6233479 119.302327,91.6233479 C122.102585,91.6233479 124.469519,93.3258328 124.469519,95.3429752 C124.469519,97.3601176 122.102585,99.0626024 119.302327,99.0626024 C116.706467,99.0626024 114.823958,97.6497692 114.302742,96.2556904 C113.497412,94.1030994 111.130479,93.0236782 109.027219,93.8426213 C106.917828,94.6615645 105.859044,97.0683821 106.66233,99.2209731 C108.037931,102.905175 111.25925,105.674579 115.216403,106.818598 L115.216403,109.788049 C115.216403,112.088591 117.047813,113.955698 119.304371,113.955698 C121.56093,113.955698 123.392339,112.088591 123.392339,109.788049 L123.392339,106.814431 C128.755753,105.251562 132.647499,100.702573 132.647499,95.345059 C132.647499,88.6997417 126.66067,83.2901325 119.304371,83.2901325 C116.504113,83.2901325 114.137179,81.5876477 114.137179,79.5705053 C114.137179,77.5533628 116.504113,75.850878 119.304371,75.850878 C122.102585,75.850878 124.015754,77.4429201 124.391847,78.9411902 C124.953943,81.1687989 127.175754,82.5170335 129.370993,81.9398141 C131.556012,81.3667622 132.874381,79.0953932 132.312286,76.8657007 C131.239194,72.6105304 127.790993,69.3722667 123.392339,68.107385 L123.392339,65.1233479 C123.392339,62.8228053 121.56093,60.9556983 119.304371,60.9556983 C117.047813,60.9556983 115.214359,62.8228053 115.214359,65.1233479 Z" id="Path" fill="#363636" fill-rule="nonzero"></path>
    </g>
</svg>