<?xml version="1.0" encoding="UTF-8"?>
<svg width="200px" height="200px" viewBox="0 0 200 200" version="1.1" xmlns="http://www.w3.org/2000/svg" xmlns:xlink="http://www.w3.org/1999/xlink">
    <!-- Generator: Sketch 56.2 (81672) - https://sketch.com -->
    <title>Rent Icon Paper</title>
    <desc>Created with Sketch.</desc>
    <g id="Rent-Icon-Paper" stroke="none" stroke-width="1" fill="none" fill-rule="evenodd">
        <g id="Group" transform="translate(0.000000, -3.500000)" fill="#363636" fill-rule="nonzero">
            <g id="Ресурс-60" transform="translate(0.000000, 3.440678)">
                <g id="Group">
                    <path d="M170.46839,127.636766 L108.030407,127.636766 C105.801432,127.636766 103.994492,129.443707 103.994492,131.672681 C103.994492,133.901656 105.801432,135.708597 108.030407,135.708597 L170.46839,135.708597 C172.697364,135.708597 174.504305,133.901656 174.504305,131.672681 C174.504305,129.443707 172.697364,127.636766 170.46839,127.636766 Z" id="Path"></path>
                    <path d="M170.46839,143.780427 L108.030407,143.780427 C105.801432,143.780427 103.994492,145.587368 103.994492,147.816342 C103.994492,150.045317 105.801432,151.852258 108.030407,151.852258 L170.46839,151.852258 C172.697364,151.852258 174.504305,150.045317 174.504305,147.816342 C174.504305,145.587368 172.697364,143.780427 170.46839,143.780427 Z" id="Path"></path>
                    <path d="M170.46839,109.373647 L108.030407,109.373647 C105.801432,109.373647 103.994492,111.180588 103.994492,113.409563 C103.994492,115.638537 105.801432,117.445478 108.030407,117.445478 L170.46839,117.445478 C172.697364,117.445478 174.504305,115.638537 174.504305,113.409563 C174.504305,111.180588 172.697364,109.373647 170.46839,109.373647 Z" id="Path"></path>
                    <path d="M197.770169,74.7900169 L197.770169,74.7900169 L197.770169,74.7900169 L197.770169,74.7900169 L163.726037,40.7458847 L163.726037,40.7458847 C162.943168,39.9318391 161.864103,39.4693828 160.734712,39.4638881 L91.3169695,39.4638881 C84.9185017,39.4638881 79.7315186,44.6508712 79.7315186,51.049339 L79.7315186,174.500864 C79.7315186,180.899332 84.9185017,186.086315 91.3169695,186.086315 L187.27679,186.086315 C193.675258,186.086315 198.862241,180.899332 198.862241,174.500864 L198.862241,77.5439356 C198.851232,76.5225132 198.462166,75.5413924 197.770169,74.7900169 L197.770169,74.7900169 Z M187.27679,177.872041 L91.3169695,177.872041 C89.3764506,177.872041 87.8033492,176.298939 87.8033492,174.35842 L87.8033492,50.9068949 C87.8033492,48.966376 89.3764506,47.3932746 91.3169695,47.3932746 L158.93042,47.3932746 L190.79041,79.2532644 L158.977902,79.2532644 L158.977902,59.5010203 C158.977902,57.2720459 157.170961,55.4651051 154.941986,55.4651051 C152.713012,55.4651051 150.906071,57.2720459 150.906071,59.5010203 L150.906071,83.2416983 C150.906071,84.3120896 151.331282,85.3386404 152.088163,86.0955213 C152.845044,86.8524023 153.871595,87.2776136 154.941986,87.2776136 L190.79041,87.2776136 L190.79041,174.35842 C190.79041,176.298939 189.217309,177.872041 187.27679,177.872041 L187.27679,177.872041 Z" id="Shape"></path>
                    <path d="M67.6237729,107.552153 L67.6237729,107.552153 C43.8665176,112.706982 19.9179463,99.6819404 11.3343155,76.9376943 C2.75068475,54.1934482 12.1222496,28.5934569 33.3615293,16.7666887 C54.600809,4.93992049 81.2984934,10.4553017 96.1125864,29.7302102 L96.1125864,29.7302102 C97.4930734,31.4673038 100.016925,31.7642276 101.762868,30.3949492 C103.453524,29.1503684 103.907711,26.8174998 102.807458,25.0295559 C85.8275662,2.73905243 55.1604848,-3.89652534 30.4846328,9.38073298 C5.80878089,22.6579913 -5.55028999,51.9064491 3.69629647,78.3579878 C12.9428829,104.809526 40.0500809,120.611444 67.6237729,115.623983 L67.6237729,115.623983 C69.8527473,115.623983 71.6596881,113.817042 71.6596881,111.588068 C71.6596881,109.359093 69.8527473,107.552153 67.6237729,107.552153 L67.6237729,107.552153 Z" id="Path"></path>
                    <path d="M61.3562339,19.0469051 C61.3562339,16.8179306 59.5492931,15.0109898 57.3203186,15.0109898 C55.0913442,15.0109898 53.2844034,16.8179306 53.2844034,19.0469051 L53.2844034,57.8391729 L37.3306678,73.7929085 C36.2104825,74.7884249 35.7341411,76.3226657 36.0935404,77.7775541 C36.4529396,79.2324425 37.5888964,80.3683994 39.0437849,80.7277986 C40.4986733,81.0871979 42.0329141,80.6108565 43.0284305,79.4906712 L60.0742373,62.2074576 C60.8434415,61.4410036 61.2713428,60.3969243 61.2612712,59.3110949 L61.2612712,59.3110949 L61.3562339,19.0469051 Z" id="Path"></path>
                </g>
            </g>
        </g>
    </g>
</svg>