<?xml version="1.0" encoding="UTF-8"?>
<svg width="200px" height="200px" viewBox="0 0 200 200" version="1.1" xmlns="http://www.w3.org/2000/svg" xmlns:xlink="http://www.w3.org/1999/xlink">
    <!-- Generator: Sketch 56.2 (81672) - https://sketch.com -->
    <title>Rent Icon New</title>
    <desc>Created with Sketch.</desc>
    <g id="Rent-Icon-New" stroke="none" stroke-width="1" fill="none" fill-rule="evenodd">
        <g id="Group-2" transform="translate(54.500000, 66.000000)">
            <circle id="Oval" stroke="#363636" stroke-width="9" cx="45.5" cy="45.5" r="45.5"></circle>
            <path d="M40.4439764,17.618471 L40.4439764,21.2953404 C33.8121314,23.2278226 29,28.852634 29,35.4797596 C29,43.6966738 36.4026959,50.3856387 45.4987363,50.3856387 C48.9612468,50.3856387 51.8879528,52.490756 51.8879528,54.9849463 C51.8879528,57.4791366 48.9612468,59.5842539 45.4987363,59.5842539 C42.2889638,59.5842539 39.9612468,57.83729 39.316765,56.1135159 C38.3209773,53.4518438 35.3942713,52.1171428 32.7935973,53.1297634 C30.1853412,54.1423841 28.8761584,57.1184066 29.8694187,59.7800788 C31.5703454,64.3355834 35.5534962,67.7599418 40.4465038,69.1745188 L40.4465038,72.8462349 C40.4465038,75.6908487 42.7110362,77.9995207 45.5012637,77.9995207 C48.2914912,77.9995207 50.5560236,75.6908487 50.5560236,72.8462349 L50.5560236,69.1693655 C57.1878686,67.2368833 62,61.6120719 62,54.987523 C62,46.7706088 54.5973041,40.0816438 45.5012637,40.0816438 C42.0387532,40.0816438 39.1120472,37.9765265 39.1120472,35.4823362 C39.1120472,32.9881459 42.0387532,30.8830286 45.5012637,30.8830286 C48.9612468,30.8830286 51.3268745,32.8515838 51.7919124,34.7041901 C52.4869419,37.4586213 55.2342039,39.1257093 57.9486099,38.4119792 C60.6503791,37.7034024 62.2805392,34.8948616 61.5855097,32.1378537 C60.2586352,26.8763489 55.9949452,22.8722459 50.5560236,21.3082236 L50.5560236,17.618471 C50.5560236,14.7738572 48.2914912,12.4651852 45.5012637,12.4651852 C42.7110362,12.4651852 40.4439764,14.7738572 40.4439764,17.618471 Z" id="Path" fill="#363636" fill-rule="nonzero"></path>
        </g>
        <g id="Group" transform="translate(4.000000, 5.000000)" stroke="#363636" stroke-linecap="round" stroke-width="9">
            <path d="M0.531791908,84.8208092 L95.7225434,0.265895954" id="Line"></path>
            <path d="M95.4566474,84.5549133 L190.913295,0.265895954" id="Line-Copy" transform="translate(143.317919, 42.543353) scale(-1, 1) translate(-143.317919, -42.543353) "></path>
            <polyline id="Path-4" stroke-linejoin="round" points="19.6752162 70.2121664 19.6752162 183.56188 172.657939 183.56188 172.657939 70.2121664"></polyline>
        </g>
    </g>
</svg>